<svg width="17" height="18" viewBox="0 0 17 18" fill="none" xmlns="http://www.w3.org/2000/svg">
<path d="M7.75781 1.48486C12.0342 1.48486 15.5154 4.96608 15.5154 9.24244" stroke="#112D4E" stroke-width="1.5" stroke-miterlimit="10" stroke-linecap="round" stroke-linejoin="round"/>
<path d="M7.75781 3.97217C10.6621 3.97217 13.0281 6.33338 13.0281 9.24247" stroke="#112D4E" stroke-width="1.5" stroke-miterlimit="10" stroke-linecap="round" stroke-linejoin="round"/>
<path d="M7.75781 6.74548C9.13478 6.74548 10.2548 7.86548 10.2548 9.24245" stroke="#112D4E" stroke-width="1.5" stroke-miterlimit="10" stroke-linecap="round" stroke-linejoin="round"/>
<path d="M12.9205 14.6C12.8963 14.8036 12.7993 15.0073 12.6733 15.1333L11.7326 16.0739C8.5278 18.76 4.45507 14.76 4.41628 14.7212L2.2878 12.5879C2.24416 12.5491 -1.75099 8.47636 0.920523 5.28121L1.87567 4.32606C2.00173 4.2 2.20537 4.10303 2.40416 4.07879C2.44295 4.07394 2.48173 4.06909 2.52052 4.06909C2.66598 4.06909 2.79204 4.10788 2.85992 4.17576L4.8478 6.46909C5.08537 6.70667 5.08537 7.09455 4.8478 7.33212L4.12052 8.0594C3.94113 8.25333 3.81507 8.43273 3.73749 8.61697C3.57749 9.05333 3.32537 10.1879 4.41628 11.3661L5.6381 12.5879C6.80658 13.6739 7.94113 13.4218 8.39204 13.257C8.56174 13.1842 8.74113 13.0533 8.93992 12.8691L9.65749 12.1515C9.89022 11.9188 10.2781 11.9091 10.5351 12.1661L12.809 14.1394C12.906 14.2364 12.9448 14.4061 12.9205 14.6Z" fill="#112D4E"/>
</svg>
