<svg width="640" height="212" viewBox="0 0 640 212" fill="none" xmlns="http://www.w3.org/2000/svg">
<rect x="0.5" y="0.5" width="639" height="211" stroke="#DDDDDD"/>
<rect width="225" height="212" fill="#3D638F"/>
<path d="M50.448 51.592H46.944V62.68H45.408V41.704H46.944V50.272H50.448V51.592ZM43.248 56.32L42.216 57.544C41.112 56.76 40.04 55.768 39 54.568C37.96 53.352 37.248 52.136 36.864 50.92C36.496 52.216 35.832 53.488 34.872 54.736C33.928 55.968 32.8 57.088 31.488 58.096L30.432 56.896C31.968 55.952 33.288 54.608 34.392 52.864C35.512 51.12 36.072 49.376 36.072 47.632V43.672H37.656V47.608C37.656 49.384 38.208 51.072 39.312 52.672C40.416 54.256 41.728 55.472 43.248 56.32ZM66.2696 48.088H62.4296V46.792H66.2696V41.704H67.8056V52.912H66.2696V48.088ZM67.8056 62.392H54.5816V54.088H56.1176V56.968H66.2696V54.016H67.8056V62.392ZM66.2696 61.12V58.24H56.1176V61.12H66.2696ZM56.2616 42.76C57.7176 42.76 58.9496 43.2 59.9576 44.08C60.9816 44.96 61.4936 46.104 61.4936 47.512C61.4936 48.92 60.9816 50.064 59.9576 50.944C58.9496 51.824 57.7256 52.264 56.2856 52.264C54.8136 52.264 53.5736 51.832 52.5656 50.968C51.5576 50.088 51.0536 48.944 51.0536 47.536C51.0536 46.112 51.5496 44.96 52.5416 44.08C53.5496 43.2 54.7896 42.76 56.2616 42.76ZM56.2616 44.152C55.2056 44.152 54.3256 44.464 53.6216 45.088C52.9336 45.696 52.5896 46.504 52.5896 47.512C52.5896 48.504 52.9416 49.32 53.6456 49.96C54.3496 50.584 55.2296 50.896 56.2856 50.896C57.3896 50.896 58.2776 50.584 58.9496 49.96C59.6216 49.336 59.9576 48.528 59.9576 47.536C59.9576 46.528 59.6136 45.712 58.9256 45.088C58.2536 44.464 57.3656 44.152 56.2616 44.152ZM89.8193 49.888H86.5553V57.496H85.0193V41.704H86.5553V48.592H89.8193V49.888ZM87.4673 62.176H73.5473V56.104H75.0593V60.856H87.4673V62.176ZM83.6033 53.44C81.5073 53.76 79.2353 53.968 76.7873 54.064C74.8193 54.176 72.7313 54.232 70.5233 54.232L70.2353 52.84C72.3633 52.84 73.9313 52.824 74.9393 52.792V48.04H76.4753V52.744C79.4993 52.632 81.8113 52.44 83.4113 52.168L83.6033 53.44ZM81.8993 43.384C81.8993 46.52 81.6753 48.92 81.2273 50.584L79.7393 50.344C80.1233 48.952 80.3153 47.064 80.3153 44.68H71.6273V43.384H81.8993ZM103.841 56.872C100.561 57.336 96.4729 57.568 91.5769 57.568V49.696H99.5929V44.992H91.4809V43.672H101.129V50.992H93.1129V56.248C97.4649 56.28 100.977 56.04 103.649 55.528L103.841 56.872ZM107.393 62.68H105.857V41.704H107.393V62.68ZM127.247 62.368H113.687V54.88H127.247V62.368ZM125.711 61.072V56.2H115.223V61.072H125.711ZM123.311 52.336C120.847 52.784 116.847 52.976 111.311 52.912V43.12H121.079V44.44H112.847V47.272H120.815V48.544H112.847V51.616C117.327 51.696 120.743 51.504 123.095 51.04L123.311 52.336ZM127.223 41.704V53.776H125.687V41.704H127.223ZM154.821 51.904H151.341V62.68H149.805V41.704H151.341V50.608H154.821V51.904ZM148.509 57.376C146.509 57.664 144.205 57.872 141.597 58C139.901 58.096 137.757 58.144 135.165 58.144L134.901 56.752C137.557 56.752 139.141 56.744 139.653 56.728V50.056H141.189V56.68C143.877 56.616 146.277 56.416 148.389 56.08L148.509 57.376ZM146.829 44.128C146.845 45.6 146.781 47.24 146.637 49.048C146.509 50.84 146.333 52.288 146.109 53.392L144.621 53.248C144.765 52.416 144.901 51.2 145.029 49.6C145.157 47.984 145.221 46.592 145.221 45.424H136.053V44.128H146.829ZM171.434 58.72C171.434 59.936 170.81 60.896 169.562 61.6C168.314 62.304 166.602 62.656 164.426 62.656C162.25 62.656 160.538 62.304 159.29 61.6C158.058 60.912 157.442 59.952 157.442 58.72C157.442 57.488 158.058 56.52 159.29 55.816C160.538 55.112 162.25 54.76 164.426 54.76C166.602 54.76 168.314 55.112 169.562 55.816C170.81 56.52 171.434 57.488 171.434 58.72ZM164.426 56.08C162.762 56.08 161.442 56.312 160.466 56.776C159.506 57.224 159.026 57.872 159.026 58.72C159.026 59.552 159.506 60.2 160.466 60.664C161.442 61.112 162.762 61.336 164.426 61.336C166.106 61.336 167.426 61.112 168.386 60.664C169.362 60.2 169.85 59.552 169.85 58.72C169.85 57.872 169.362 57.224 168.386 56.776C167.426 56.312 166.106 56.08 164.426 56.08ZM155.402 44.632V43.336H166.37V44.632H161.666V45.808C161.666 47.136 162.178 48.384 163.202 49.552C164.242 50.704 165.434 51.504 166.778 51.952L165.938 53.224C164.866 52.792 163.858 52.128 162.914 51.232C161.97 50.32 161.282 49.384 160.85 48.424C160.594 49.384 159.938 50.384 158.882 51.424C157.842 52.448 156.73 53.232 155.546 53.776L154.682 52.6C156.09 52.04 157.346 51.112 158.45 49.816C159.57 48.504 160.13 47.168 160.13 45.808V44.632H155.402ZM174.458 49.072H171.146V54.472H169.61V41.704H171.146V47.752H174.458V49.072Z" fill="white"/>
<path d="M57.328 86.288H53.36V92.784H49.136V76.016H53.36V82.832H57.328V86.288ZM34.512 94H53.36V104.56H49.072V97.328H34.512V94ZM45.296 91.408H31.504V77.744H35.728V81.648H40.976V77.776H45.296V91.408ZM40.976 88.048V84.912H35.728V88.048H40.976ZM82.4555 88.4L80.5675 91.952C78.5622 91.568 76.5142 90.6827 74.4235 89.296C72.3542 87.9093 70.9462 86.256 70.1995 84.336C69.4955 86.256 68.1195 87.9093 66.0715 89.296C64.0235 90.6613 61.9648 91.5467 59.8955 91.952L58.0075 88.432C60.5462 88.1333 62.8395 87.12 64.8875 85.392C66.9355 83.664 67.9595 81.5733 67.9595 79.12V77.616H72.5035V79.12C72.5035 80.784 73.0048 82.3093 74.0075 83.696C75.0315 85.0827 76.2795 86.1707 77.7515 86.96C79.2448 87.728 80.8128 88.208 82.4555 88.4ZM83.1275 101.008H57.3675V97.68H68.0555V91.216H72.2475V97.68H83.1275V101.008ZM107.615 98.704C107.615 100.453 106.719 101.84 104.927 102.864C103.135 103.888 100.671 104.4 97.535 104.4C94.4203 104.4 91.967 103.888 90.175 102.864C88.383 101.84 87.487 100.453 87.487 98.704C87.487 96.8907 88.3723 95.4613 90.143 94.416C91.935 93.3707 94.399 92.848 97.535 92.848C100.671 92.848 103.135 93.3707 104.927 94.416C106.719 95.4613 107.615 96.8907 107.615 98.704ZM98.847 84.688C98.847 86.672 98.1323 88.2933 96.703 89.552C95.2737 90.8107 93.4817 91.44 91.327 91.44C89.1723 91.44 87.3803 90.8107 85.951 89.552C84.543 88.2933 83.839 86.672 83.839 84.688C83.839 82.704 84.543 81.104 85.951 79.888C87.3803 78.6507 89.1723 78.032 91.327 78.032C93.4817 78.032 95.2737 78.6507 96.703 79.888C98.1323 81.1253 98.847 82.7253 98.847 84.688ZM99.583 89.456L99.679 85.872H103.167V83.024H99.679L99.583 79.44H103.167V76.016H107.455V93.008H103.167V89.456H99.583ZM103.327 98.704C103.327 97.936 102.815 97.3387 101.791 96.912C100.788 96.464 99.3697 96.24 97.535 96.24C95.743 96.24 94.335 96.464 93.311 96.912C92.287 97.36 91.775 97.9573 91.775 98.704C91.775 99.408 92.287 99.984 93.311 100.432C94.335 100.859 95.743 101.072 97.535 101.072C99.3697 101.072 100.788 100.859 101.791 100.432C102.815 100.005 103.327 99.4293 103.327 98.704ZM93.759 87.088C94.4203 86.4907 94.751 85.7013 94.751 84.72C94.751 83.7387 94.4203 82.9493 93.759 82.352C93.0977 81.7547 92.287 81.456 91.327 81.456C90.3457 81.456 89.535 81.7547 88.895 82.352C88.255 82.9493 87.935 83.7387 87.935 84.72C87.935 85.7013 88.255 86.4907 88.895 87.088C89.535 87.6853 90.3457 87.984 91.327 87.984C92.3083 87.984 93.119 87.6853 93.759 87.088Z" fill="white"/>
<path d="M277.368 52.368C277.368 53.2533 276.936 53.9573 276.072 54.48C275.208 55.0027 274.008 55.264 272.472 55.264C270.947 55.264 269.757 55.0027 268.904 54.48C268.051 53.9573 267.624 53.2533 267.624 52.368C267.624 51.472 268.051 50.768 268.904 50.256C269.757 49.7333 270.947 49.472 272.472 49.472C274.008 49.472 275.208 49.7333 276.072 50.256C276.936 50.768 277.368 51.472 277.368 52.368ZM277.272 49.28H275.4V47.728H272.792V46.304H275.4V44.896H272.984V43.424H275.4V41.008H277.272V49.28ZM274.664 53.392C275.176 53.1467 275.432 52.8053 275.432 52.368C275.432 51.9307 275.171 51.5893 274.648 51.344C274.136 51.088 273.411 50.96 272.472 50.96C271.565 50.96 270.856 51.088 270.344 51.344C269.832 51.5893 269.576 51.9307 269.576 52.368C269.576 52.8053 269.827 53.1467 270.328 53.392C270.84 53.6373 271.555 53.76 272.472 53.76C273.421 53.76 274.152 53.6373 274.664 53.392ZM272.776 41.936C272.627 45.6373 270.52 48.1227 266.456 49.392L265.464 47.888C266.787 47.5893 267.928 47.0613 268.888 46.304C269.848 45.5467 270.451 44.608 270.696 43.488H266.152V41.936H272.776ZM317.948 47.552L318.188 48.976C317.078 49.232 315.361 49.36 313.036 49.36C312.833 49.36 312.524 49.36 312.108 49.36C311.702 49.3493 311.398 49.344 311.196 49.344V44.784H315.596V43.44H311.196V41.952H317.468V46.192H313.084V47.888C315.494 47.888 317.116 47.776 317.948 47.552ZM322.46 49.776H320.604V47.584H318.476V46.08H320.604V44.592H318.476V43.072H320.604V41.008H322.46V49.776ZM312.764 50.496H322.476V55.28H320.604V51.984H312.764V50.496Z" fill="#222222"/>
<path d="M274.088 110.592L273.048 111.952C272.376 111.621 271.688 111.061 270.984 110.272C270.28 109.483 269.827 108.752 269.624 108.08C269.443 108.837 269.021 109.627 268.36 110.448C267.709 111.259 266.979 111.861 266.168 112.256L265.016 110.864C267.427 109.541 268.632 107.381 268.632 104.384V104H265.752V102.464H273.352V104H270.568V104.368C270.568 107.227 271.741 109.301 274.088 110.592ZM276.632 101.008V106.496H278.664V108.048H276.632V115.264H274.76V101.008H276.632ZM290.476 109.264H288.604V107.84H285.98V106.304H288.604V104.944H286.188V103.408H288.604V101.008H290.476V109.264ZM290.492 115.28H288.604V111.488H280.828V110H290.492V115.28ZM285.98 101.856C285.841 105.536 283.734 108.021 279.66 109.312L278.684 107.808C280.006 107.52 281.148 106.997 282.108 106.24C283.068 105.483 283.67 104.539 283.916 103.408H279.372V101.856H285.98ZM306.587 101.008V106.496H308.635V108.032H306.587V115.264H304.731V101.008H306.587ZM304.027 110.464C303.899 110.624 303.712 110.859 303.467 111.168C303.232 111.477 303.051 111.707 302.923 111.856C302.272 111.44 301.616 110.853 300.955 110.096C300.293 109.339 299.851 108.597 299.627 107.872C299.392 108.672 298.955 109.477 298.315 110.288C297.675 111.088 296.987 111.707 296.251 112.144C295.728 111.504 295.344 111.051 295.099 110.784C297.456 109.269 298.635 107.061 298.635 104.16V102.208H300.571V104.064C300.571 105.451 300.869 106.688 301.467 107.776C302.075 108.864 302.928 109.76 304.027 110.464ZM321.678 106.64H319.806V110.288H317.934V101.008H319.806V105.104H321.678V106.64ZM319.918 112.848C319.918 113.616 319.486 114.213 318.622 114.64C317.769 115.077 316.58 115.296 315.054 115.296C313.529 115.296 312.334 115.077 311.47 114.64C310.617 114.213 310.19 113.616 310.19 112.848C310.19 112.069 310.617 111.467 311.47 111.04C312.334 110.603 313.529 110.384 315.054 110.384C316.58 110.384 317.769 110.603 318.622 111.04C319.486 111.467 319.918 112.069 319.918 112.848ZM317.214 112.096C316.692 111.904 315.972 111.808 315.054 111.808C314.137 111.808 313.412 111.904 312.878 112.096C312.356 112.288 312.094 112.539 312.094 112.848C312.094 113.157 312.356 113.408 312.878 113.6C313.412 113.792 314.137 113.888 315.054 113.888C315.972 113.888 316.692 113.792 317.214 113.6C317.748 113.408 318.014 113.157 318.014 112.848C318.014 112.539 317.748 112.288 317.214 112.096ZM316.862 104.88H308.59V103.424H316.862V104.88ZM310.654 102.816V101.344H314.878V102.816H310.654ZM315.182 105.952C315.822 106.4 316.142 106.987 316.142 107.712C316.142 108.437 315.822 109.024 315.182 109.472C314.553 109.92 313.748 110.144 312.766 110.144C311.774 110.144 310.953 109.92 310.302 109.472C309.652 109.024 309.326 108.437 309.326 107.712C309.326 106.987 309.652 106.4 310.302 105.952C310.953 105.493 311.774 105.264 312.766 105.264C313.748 105.264 314.553 105.493 315.182 105.952ZM311.662 106.96C311.364 107.152 311.214 107.403 311.214 107.712C311.214 108.021 311.364 108.272 311.662 108.464C311.961 108.656 312.329 108.752 312.766 108.752C313.182 108.752 313.54 108.656 313.838 108.464C314.148 108.261 314.302 108.011 314.302 107.712C314.302 107.403 314.153 107.152 313.854 106.96C313.556 106.757 313.193 106.656 312.766 106.656C312.329 106.656 311.961 106.757 311.662 106.96Z" fill="#222222"/>
<path d="M357.08 51.296H355.656V41.136H357.08V51.296ZM354.072 48.016L353.256 49.12C352.573 48.832 351.907 48.384 351.256 47.776C350.616 47.1573 350.152 46.5067 349.864 45.824C349.651 46.56 349.213 47.2907 348.552 48.016C347.901 48.7307 347.208 49.2533 346.472 49.584L345.608 48.48C346.6 48.064 347.432 47.3973 348.104 46.48C348.787 45.552 349.128 44.5547 349.128 43.488V41.92H350.568V43.424C350.568 44.48 350.92 45.4293 351.624 46.272C352.339 47.1147 353.155 47.696 354.072 48.016ZM357.384 54.72H347.96V50.352H349.384V53.568H357.384V54.72ZM370.364 52.48C370.364 53.2907 369.937 53.9307 369.084 54.4C368.241 54.8693 367.052 55.104 365.516 55.104C363.99 55.104 362.801 54.8693 361.948 54.4C361.105 53.9307 360.684 53.2907 360.684 52.48C360.684 51.648 361.105 50.9973 361.948 50.528C362.801 50.0587 363.99 49.824 365.516 49.824C367.052 49.824 368.241 50.0587 369.084 50.528C369.937 50.9973 370.364 51.648 370.364 52.48ZM365.052 42.96C365.756 43.5893 366.108 44.3947 366.108 45.376C366.108 46.3573 365.756 47.1573 365.052 47.776C364.358 48.384 363.505 48.688 362.492 48.688C361.468 48.688 360.604 48.384 359.9 47.776C359.206 47.168 358.86 46.368 358.86 45.376C358.86 44.3947 359.212 43.5893 359.916 42.96C360.62 42.3307 361.478 42.016 362.492 42.016C363.494 42.016 364.348 42.3307 365.052 42.96ZM366.492 47.488C366.492 47.3493 366.492 47.152 366.492 46.896C366.502 46.6293 366.508 46.432 366.508 46.304H368.86V44.176H366.508C366.508 44.048 366.502 43.8507 366.492 43.584C366.492 43.3173 366.492 43.1147 366.492 42.976H368.86V41.136H370.284V49.808H368.86V47.488H366.492ZM367.996 53.584C368.593 53.3173 368.892 52.9493 368.892 52.48C368.892 52.0107 368.593 51.6427 367.996 51.376C367.398 51.0987 366.572 50.96 365.516 50.96C364.47 50.96 363.649 51.0987 363.052 51.376C362.465 51.6427 362.172 52.0107 362.172 52.48C362.172 52.9493 362.465 53.3173 363.052 53.584C363.649 53.84 364.47 53.968 365.516 53.968C366.572 53.968 367.398 53.84 367.996 53.584ZM364.06 46.928C364.465 46.5227 364.668 46.0053 364.668 45.376C364.668 44.7467 364.47 44.2347 364.076 43.84C363.681 43.4347 363.153 43.232 362.492 43.232C361.852 43.232 361.324 43.4347 360.908 43.84C360.492 44.2453 360.284 44.752 360.284 45.36C360.284 46 360.486 46.5227 360.892 46.928C361.308 47.3333 361.841 47.536 362.492 47.536C363.132 47.536 363.654 47.3333 364.06 46.928ZM375.343 42.24C376.282 42.24 377.013 42.64 377.535 43.44C378.069 44.2293 378.362 45.28 378.415 46.592H379.775V41.408H381.12V54.464H379.775V47.76H378.415C378.351 49.0507 378.058 50.0907 377.535 50.88C377.013 51.6587 376.282 52.048 375.343 52.048C374.341 52.048 373.578 51.5947 373.055 50.688C372.533 49.7813 372.271 48.592 372.271 47.12C372.271 45.6587 372.533 44.48 373.055 43.584C373.578 42.688 374.341 42.24 375.343 42.24ZM376.607 49.84C376.895 49.168 377.039 48.2667 377.039 47.136C377.039 46.0053 376.895 45.1093 376.607 44.448C376.319 43.776 375.898 43.44 375.343 43.44C374.81 43.44 374.394 43.776 374.095 44.448C373.807 45.12 373.663 46.016 373.663 47.136C373.663 48.2667 373.807 49.168 374.095 49.84C374.383 50.5013 374.799 50.832 375.343 50.832C375.898 50.832 376.319 50.5013 376.607 49.84ZM383.823 55.12H382.479V41.136H383.823V55.12ZM397.027 50.352H395.667V41.136H397.027V50.352ZM394.371 49.056H393.011V45.504H391.091V44.336H393.011V41.392H394.371V49.056ZM397.731 54.128L396.979 55.296C396.073 55.104 395.145 54.688 394.195 54.048C393.246 53.408 392.617 52.752 392.307 52.08C392.041 52.752 391.443 53.3973 390.515 54.016C389.587 54.6453 388.627 55.056 387.635 55.248L386.867 54.112C387.614 54.0373 388.345 53.8187 389.059 53.456C389.785 53.0827 390.387 52.6027 390.867 52.016C391.358 51.4293 391.603 50.8213 391.603 50.192V49.744H393.075V50.192C393.075 51.1413 393.566 52 394.547 52.768C395.529 53.5253 396.59 53.9787 397.731 54.128ZM392.211 47.84L391.459 48.88C390.947 48.624 390.425 48.2293 389.891 47.696C389.358 47.1627 388.995 46.6507 388.803 46.16C388.611 46.7467 388.259 47.3387 387.747 47.936C387.246 48.5333 386.665 49.0133 386.003 49.376L385.171 48.368C386.046 47.9093 386.75 47.2747 387.283 46.464C387.817 45.6533 388.083 44.7627 388.083 43.792V42.176H389.459V43.76C389.459 44.688 389.726 45.5093 390.259 46.224C390.793 46.928 391.443 47.4667 392.211 47.84ZM353.768 68.4C353.768 69.1787 353.421 69.8027 352.728 70.272C352.045 70.7413 351.155 70.976 350.056 70.976C348.968 70.976 348.077 70.7413 347.384 70.272C346.691 69.8027 346.344 69.1733 346.344 68.384C346.344 67.6053 346.691 66.9813 347.384 66.512C348.077 66.032 348.968 65.792 350.056 65.792C351.144 65.792 352.035 66.032 352.728 66.512C353.421 66.9813 353.768 67.6107 353.768 68.4ZM357.176 75.888H355.784V74.4H353.032V73.344H355.784V65.136H357.176V75.888ZM357.448 78.768H347.304V74.688H348.712V77.616H357.448V78.768ZM350.888 75.28H349.464V72.8C348.931 72.8213 348.189 72.8427 347.24 72.864C346.301 72.8853 345.773 72.896 345.656 72.896L345.432 71.728C347.256 71.728 348.808 71.7013 350.088 71.648C351.848 71.5733 353.341 71.4667 354.568 71.328L354.664 72.384C353.853 72.512 352.595 72.624 350.888 72.72V75.28ZM352.248 68.4C352.248 67.9733 352.045 67.6213 351.64 67.344C351.235 67.0667 350.707 66.928 350.056 66.928C349.405 66.928 348.877 67.0667 348.472 67.344C348.067 67.6213 347.864 67.9733 347.864 68.4C347.864 68.816 348.061 69.1627 348.456 69.44C348.861 69.7067 349.395 69.84 350.056 69.84C350.717 69.84 351.245 69.7067 351.64 69.44C352.045 69.1627 352.248 68.816 352.248 68.4ZM370.284 72.256H368.86V65.136H370.284V72.256ZM370.78 79.024H361.196V75.424H368.86V74.128H361.148V72.976H370.284V76.48H362.604V77.856H370.78V79.024ZM360.22 66.512C360.913 65.904 361.766 65.6 362.78 65.6C363.793 65.6 364.641 65.8987 365.324 66.496C366.006 67.0933 366.348 67.856 366.348 68.784C366.348 69.7013 366.006 70.448 365.324 71.024C364.641 71.6 363.793 71.888 362.78 71.888C361.766 71.888 360.913 71.6053 360.22 71.04C359.537 70.4747 359.196 69.728 359.196 68.8C359.196 67.872 359.537 67.1093 360.22 66.512ZM362.78 66.816C362.161 66.816 361.638 67.0027 361.212 67.376C360.796 67.7493 360.588 68.2187 360.588 68.784C360.588 69.3493 360.796 69.8133 361.212 70.176C361.628 70.528 362.15 70.704 362.78 70.704C363.43 70.704 363.953 70.5227 364.348 70.16C364.753 69.7973 364.956 69.3387 364.956 68.784C364.956 68.1973 364.758 67.7227 364.364 67.36C363.969 66.9973 363.441 66.816 362.78 66.816ZM383.151 76.624C383.151 77.4027 382.73 78.0053 381.887 78.432C381.045 78.8587 379.855 79.072 378.319 79.072C376.794 79.072 375.61 78.8533 374.767 78.416C373.925 77.9893 373.503 77.392 373.503 76.624C373.503 75.8773 373.925 75.2907 374.767 74.864C375.621 74.4373 376.805 74.224 378.319 74.224C379.855 74.224 381.045 74.432 381.887 74.848C382.73 75.264 383.151 75.856 383.151 76.624ZM384.063 69.824L383.439 70.96C382.341 70.8 381.306 70.4533 380.335 69.92C379.365 69.3867 378.693 68.7947 378.319 68.144C378.021 68.816 377.397 69.4187 376.447 69.952C375.509 70.4747 374.447 70.8107 373.263 70.96L372.639 69.84C373.813 69.744 374.869 69.4453 375.807 68.944C376.757 68.432 377.333 67.792 377.535 67.024H373.231V65.856H383.408V67.024H379.135C379.349 67.7813 379.951 68.4213 380.943 68.944C381.946 69.456 382.986 69.7493 384.063 69.824ZM384.639 73.328H372.015V72.16H377.599V70.048H379.023V72.16H384.639V73.328ZM378.319 75.328C377.285 75.328 376.463 75.4453 375.855 75.68C375.258 75.9147 374.959 76.2347 374.959 76.64C374.959 77.056 375.258 77.3813 375.855 77.616C376.453 77.84 377.274 77.952 378.319 77.952C379.375 77.952 380.202 77.84 380.799 77.616C381.407 77.3813 381.712 77.056 381.712 76.64C381.712 76.2347 381.407 75.9147 380.799 75.68C380.191 75.4453 379.365 75.328 378.319 75.328ZM398.099 70.256H396.019V73.216H394.611V65.136H396.019V69.072H398.099V70.256ZM396.019 78.976H387.139V73.92H388.547V75.296H394.611V73.904H396.019V78.976ZM394.611 77.84V76.416H388.547V77.84H394.611ZM391.203 66.384H387.235V65.264H391.203V66.384ZM393.267 68.352H385.139V67.248H393.267V68.352ZM392.515 71.184C392.515 71.8453 392.217 72.384 391.619 72.8C391.022 73.216 390.238 73.424 389.267 73.424C388.297 73.424 387.513 73.2213 386.915 72.816C386.329 72.4 386.035 71.856 386.035 71.184C386.035 70.5013 386.329 69.9573 386.915 69.552C387.513 69.136 388.297 68.928 389.267 68.928C390.238 68.928 391.022 69.136 391.619 69.552C392.217 69.9573 392.515 70.5013 392.515 71.184ZM391.107 71.184C391.107 70.832 390.926 70.5493 390.563 70.336C390.201 70.112 389.769 70 389.267 70C388.755 70 388.318 70.112 387.955 70.336C387.603 70.5493 387.427 70.832 387.427 71.184C387.427 71.5253 387.609 71.808 387.971 72.032C388.334 72.2453 388.766 72.352 389.267 72.352C389.769 72.352 390.201 72.2453 390.563 72.032C390.926 71.808 391.107 71.5253 391.107 71.184ZM410.215 78.768H400.759V74.352H402.183V77.616H410.215V78.768ZM408.471 70.608H405.559V69.44H408.471V65.136H409.895V75.296H408.471V70.608ZM399.175 66.24H405.447C405.383 68.1067 404.796 69.6853 403.687 70.976C402.588 72.2667 401.1 73.184 399.223 73.728L398.503 72.576C399.954 72.2133 401.164 71.568 402.135 70.64C403.106 69.712 403.692 68.6347 403.895 67.408H399.175V66.24ZM421.675 69.008H418.955V67.84H421.675V65.136H423.099V72.32H421.675V69.008ZM419.739 70.88L418.939 71.968C418.267 71.7013 417.637 71.312 417.051 70.8C416.475 70.2773 416.032 69.68 415.723 69.008C415.509 69.7013 415.099 70.352 414.491 70.96C413.883 71.5573 413.173 72.032 412.363 72.384L411.515 71.328C412.528 70.9227 413.355 70.3307 413.995 69.552C414.645 68.7627 414.971 67.8453 414.971 66.8V65.648H416.411V66.736C416.411 67.7707 416.741 68.6507 417.403 69.376C418.075 70.0907 418.853 70.592 419.739 70.88ZM423.595 79.024H414.027V75.488H421.675V74.208H413.931V73.072H423.099V76.544H415.435V77.856H423.595V79.024Z" fill="#666666"/>
<path d="M356.68 107.84H347.128V101.664H348.552V103.648H355.272V101.664H356.68V107.84ZM352.6 115.136H351.176V110.592H345.608V109.424H358.232V110.592H352.6V115.136ZM355.272 106.704V104.8H348.552V106.704H355.272ZM369.9 106.416H365.82V108.08H371.436V109.232H358.812V108.08H364.396V106.416H360.332V101.696H369.804V102.848H361.74V105.264H369.9V106.416ZM368.684 110.8C369.526 111.227 369.948 111.835 369.948 112.624C369.948 113.413 369.526 114.027 368.684 114.464C367.841 114.901 366.652 115.12 365.116 115.12C363.59 115.12 362.406 114.901 361.564 114.464C360.721 114.027 360.3 113.413 360.3 112.624C360.3 111.856 360.721 111.253 361.564 110.816C362.417 110.368 363.601 110.144 365.116 110.144C366.652 110.144 367.841 110.363 368.684 110.8ZM365.116 111.296C364.081 111.296 363.26 111.419 362.652 111.664C362.054 111.899 361.756 112.224 361.756 112.64C361.756 113.067 362.054 113.397 362.652 113.632C363.249 113.867 364.07 113.984 365.116 113.984C366.172 113.984 366.998 113.867 367.596 113.632C368.204 113.397 368.508 113.067 368.508 112.64C368.508 112.213 368.204 111.883 367.596 111.648C366.998 111.413 366.172 111.296 365.116 111.296ZM384.911 106.512H382.816V111.296H381.407V101.136H382.816V105.328H384.911V106.512ZM383.408 114.688H374.095V110.288H375.519V113.536H383.408V114.688ZM379.983 107.936L379.151 109.056C378.469 108.747 377.823 108.304 377.215 107.728C376.607 107.141 376.154 106.507 375.855 105.824C375.653 106.539 375.226 107.243 374.575 107.936C373.935 108.619 373.247 109.131 372.511 109.472L371.631 108.352C372.623 107.947 373.45 107.301 374.111 106.416C374.783 105.52 375.119 104.544 375.119 103.488V101.92H376.559V103.424C376.559 104.491 376.901 105.429 377.583 106.24C378.266 107.051 379.066 107.616 379.983 107.936ZM397.027 115.12H395.667V107.68H394.019V114.432H392.691V101.456H394.019V106.528H395.667V101.136H397.027V115.12ZM391.123 102.848C391.102 104.907 390.665 106.704 389.811 108.24C388.969 109.776 387.689 111.12 385.971 112.272L384.995 111.232C386.414 110.411 387.523 109.371 388.323 108.112C389.123 106.843 389.587 105.477 389.715 104.016H385.619V102.848H391.123ZM411.303 105.344H409.223V108.368H407.799V101.136H409.223V104.176H411.303V105.344ZM409.719 115.024H400.327V111.456H407.799V110.272H400.215V109.12H409.223V112.528H401.735V113.872H409.719V115.024ZM405.479 107.904H398.871V101.68H400.279V103.632H404.071V101.664H405.479V107.904ZM404.071 106.768V104.768H400.279V106.768H404.071ZM412.011 103.504V102.336H419.547V103.504H416.539V104.16C416.539 105.099 416.869 105.963 417.531 106.752C418.192 107.531 418.949 108.048 419.803 108.304L419.019 109.44C418.389 109.184 417.771 108.773 417.163 108.208C416.565 107.632 416.123 107.029 415.835 106.4C415.611 107.072 415.168 107.739 414.507 108.4C413.856 109.061 413.163 109.541 412.427 109.84L411.595 108.72C412.533 108.379 413.349 107.776 414.043 106.912C414.747 106.048 415.099 105.141 415.099 104.192V103.504H412.011ZM423.099 111.344H421.675V106.096H418.987V104.944H421.675V101.136H423.099V111.344ZM423.403 114.688H413.899V110.352H415.307V113.536H423.403V114.688ZM435.871 106.816H426.431V101.888H435.871V106.816ZM431.903 112.176H430.495V109.44H424.831V108.304H437.455V109.44H431.903V112.176ZM434.463 105.648V103.056H427.855V105.648H434.463ZM436.063 114.704H426.399V110.832H427.823V113.552H436.063V114.704ZM449.506 111.296H448.082V101.136H449.506V111.296ZM449.826 114.688H440.306V110.336H441.73V113.552H449.826V114.688ZM439.41 103.088C440.114 102.416 441.005 102.08 442.082 102.08C443.16 102.08 444.05 102.411 444.754 103.072C445.469 103.733 445.826 104.565 445.826 105.568C445.826 106.571 445.474 107.392 444.77 108.032C444.066 108.661 443.17 108.976 442.082 108.976C441.005 108.976 440.114 108.661 439.41 108.032C438.706 107.392 438.354 106.576 438.354 105.584C438.354 104.581 438.706 103.749 439.41 103.088ZM442.082 103.296C441.432 103.296 440.893 103.509 440.466 103.936C440.05 104.363 439.842 104.901 439.842 105.552C439.842 106.192 440.05 106.725 440.466 107.152C440.893 107.579 441.432 107.792 442.082 107.792C442.765 107.792 443.309 107.584 443.714 107.168C444.12 106.752 444.322 106.219 444.322 105.568C444.322 104.896 444.12 104.352 443.714 103.936C443.309 103.509 442.765 103.296 442.082 103.296ZM458.614 107.744L458.774 108.848C457.601 109.083 455.985 109.2 453.926 109.2H451.766V104.912H456.614V103.072H451.75V101.936H458.022V106.032H453.19V108.064H453.894C456.049 108.064 457.622 107.957 458.614 107.744ZM462.71 109.84H461.286V107.312H458.998V106.144H461.286V104.32H458.998V103.168H461.286V101.136H462.71V109.84ZM453.238 110.448H462.71V115.184H461.286V111.6H453.238V110.448Z" fill="#666666"/>
</svg>
