<svg width="640" height="212" viewBox="0 0 640 212" fill="none" xmlns="http://www.w3.org/2000/svg">
<rect x="0.5" y="0.5" width="639" height="211" stroke="#DDDDDD"/>
<rect width="225" height="212" fill="#3D638F"/>
<path d="M50.448 51.592H46.944V62.68H45.408V41.704H46.944V50.272H50.448V51.592ZM43.248 56.32L42.216 57.544C41.112 56.76 40.04 55.768 39 54.568C37.96 53.352 37.248 52.136 36.864 50.92C36.496 52.216 35.832 53.488 34.872 54.736C33.928 55.968 32.8 57.088 31.488 58.096L30.432 56.896C31.968 55.952 33.288 54.608 34.392 52.864C35.512 51.12 36.072 49.376 36.072 47.632V43.672H37.656V47.608C37.656 49.384 38.208 51.072 39.312 52.672C40.416 54.256 41.728 55.472 43.248 56.32ZM66.2696 48.088H62.4296V46.792H66.2696V41.704H67.8056V52.912H66.2696V48.088ZM67.8056 62.392H54.5816V54.088H56.1176V56.968H66.2696V54.016H67.8056V62.392ZM66.2696 61.12V58.24H56.1176V61.12H66.2696ZM56.2616 42.76C57.7176 42.76 58.9496 43.2 59.9576 44.08C60.9816 44.96 61.4936 46.104 61.4936 47.512C61.4936 48.92 60.9816 50.064 59.9576 50.944C58.9496 51.824 57.7256 52.264 56.2856 52.264C54.8136 52.264 53.5736 51.832 52.5656 50.968C51.5576 50.088 51.0536 48.944 51.0536 47.536C51.0536 46.112 51.5496 44.96 52.5416 44.08C53.5496 43.2 54.7896 42.76 56.2616 42.76ZM56.2616 44.152C55.2056 44.152 54.3256 44.464 53.6216 45.088C52.9336 45.696 52.5896 46.504 52.5896 47.512C52.5896 48.504 52.9416 49.32 53.6456 49.96C54.3496 50.584 55.2296 50.896 56.2856 50.896C57.3896 50.896 58.2776 50.584 58.9496 49.96C59.6216 49.336 59.9576 48.528 59.9576 47.536C59.9576 46.528 59.6136 45.712 58.9256 45.088C58.2536 44.464 57.3656 44.152 56.2616 44.152ZM89.8193 49.888H86.5553V57.496H85.0193V41.704H86.5553V48.592H89.8193V49.888ZM87.4673 62.176H73.5473V56.104H75.0593V60.856H87.4673V62.176ZM83.6033 53.44C81.5073 53.76 79.2353 53.968 76.7873 54.064C74.8193 54.176 72.7313 54.232 70.5233 54.232L70.2353 52.84C72.3633 52.84 73.9313 52.824 74.9393 52.792V48.04H76.4753V52.744C79.4993 52.632 81.8113 52.44 83.4113 52.168L83.6033 53.44ZM81.8993 43.384C81.8993 46.52 81.6753 48.92 81.2273 50.584L79.7393 50.344C80.1233 48.952 80.3153 47.064 80.3153 44.68H71.6273V43.384H81.8993ZM103.841 56.872C100.561 57.336 96.4729 57.568 91.5769 57.568V49.696H99.5929V44.992H91.4809V43.672H101.129V50.992H93.1129V56.248C97.4649 56.28 100.977 56.04 103.649 55.528L103.841 56.872ZM107.393 62.68H105.857V41.704H107.393V62.68ZM127.247 62.368H113.687V54.88H127.247V62.368ZM125.711 61.072V56.2H115.223V61.072H125.711ZM123.311 52.336C120.847 52.784 116.847 52.976 111.311 52.912V43.12H121.079V44.44H112.847V47.272H120.815V48.544H112.847V51.616C117.327 51.696 120.743 51.504 123.095 51.04L123.311 52.336ZM127.223 41.704V53.776H125.687V41.704H127.223ZM152.949 62.68H151.413V51.496H148.293V61.576H146.781V42.232H148.293V50.2H151.413V41.704H152.949V62.68ZM145.413 56.584C142.581 57.048 139.469 57.248 136.077 57.184V44.344H143.949V45.664H137.613V55.816C140.365 55.864 142.893 55.656 145.197 55.192L145.413 56.584ZM168.602 56.872C165.322 57.336 161.234 57.568 156.338 57.568V49.696H164.354V44.992H156.242V43.672H165.89V50.992H157.874V56.248C162.226 56.28 165.738 56.04 168.41 55.528L168.602 56.872ZM172.154 62.68H170.618V41.704H172.154V62.68Z" fill="white"/>
<path d="M54.672 104.208H35.696V93.104H54.672V104.208ZM50.416 100.944V96.272H39.984V100.944H50.416ZM54.704 91.696H50.416V76.016H54.704V91.696ZM46.096 77.648C45.9467 81.488 44.72 84.656 42.416 87.152C40.112 89.648 36.8907 91.4933 32.752 92.688L31.088 89.264C33.712 88.7307 36.0053 87.6853 37.968 86.128C39.9307 84.5707 41.0507 82.9067 41.328 81.136H32.528V77.648H46.096ZM75.0955 94.544L72.7275 97.872C71.4902 97.1467 70.1995 96.048 68.8555 94.576C67.5115 93.0827 66.6262 91.6747 66.1995 90.352C65.7942 91.8667 64.9195 93.4347 63.5755 95.056C62.2528 96.6773 60.9195 97.8507 59.5755 98.576L57.0795 95.312C59.4475 93.9253 61.1755 92.1653 62.2635 90.032C63.3728 87.8987 63.9382 85.2747 63.9595 82.16H58.4875V78.64H73.8155V82.16H68.3435C68.4075 88.0267 70.6582 92.1547 75.0955 94.544ZM81.0795 104.528H76.7595V76.016H81.0795V104.528ZM94.879 97.104H91.391V100.528H108.415V103.824H87.103V95.504H90.655V92.24C88.4363 92.3253 86.1963 92.368 83.935 92.368C83.7643 91.28 83.5937 90.16 83.423 89.008C91.3163 89.008 97.5243 88.6987 102.047 88.08C102.175 90.192 102.239 91.2693 102.239 91.312C100.767 91.5467 98.3137 91.792 94.879 92.048V97.104ZM98.239 78.704C99.583 79.7067 100.255 80.9973 100.255 82.576C100.255 84.1547 99.583 85.4453 98.239 86.448C96.895 87.4293 95.1563 87.92 93.023 87.92C90.8683 87.92 89.119 87.4293 87.775 86.448C86.4523 85.4667 85.791 84.1867 85.791 82.608C85.791 81.008 86.4523 79.7067 87.775 78.704C89.119 77.68 90.8683 77.168 93.023 77.168C95.1563 77.168 96.895 77.68 98.239 78.704ZM98.655 95.696V92.784H103.839V76.016H108.063V97.968H103.839V95.696H98.655ZM95.135 84.176C95.711 83.7707 95.999 83.2373 95.999 82.576C95.999 81.9147 95.711 81.3707 95.135 80.944C94.5803 80.5173 93.8763 80.304 93.023 80.304C92.1697 80.304 91.455 80.5173 90.879 80.944C90.3243 81.3707 90.047 81.9147 90.047 82.576C90.047 83.2373 90.3243 83.7707 90.879 84.176C91.455 84.5813 92.1697 84.784 93.023 84.784C93.8763 84.784 94.5803 84.5813 95.135 84.176Z" fill="white"/>
<path d="M277.368 52.368C277.368 53.2533 276.936 53.9573 276.072 54.48C275.208 55.0027 274.008 55.264 272.472 55.264C270.947 55.264 269.757 55.0027 268.904 54.48C268.051 53.9573 267.624 53.2533 267.624 52.368C267.624 51.472 268.051 50.768 268.904 50.256C269.757 49.7333 270.947 49.472 272.472 49.472C274.008 49.472 275.208 49.7333 276.072 50.256C276.936 50.768 277.368 51.472 277.368 52.368ZM277.272 49.28H275.4V47.728H272.792V46.304H275.4V44.896H272.984V43.424H275.4V41.008H277.272V49.28ZM274.664 53.392C275.176 53.1467 275.432 52.8053 275.432 52.368C275.432 51.9307 275.171 51.5893 274.648 51.344C274.136 51.088 273.411 50.96 272.472 50.96C271.565 50.96 270.856 51.088 270.344 51.344C269.832 51.5893 269.576 51.9307 269.576 52.368C269.576 52.8053 269.827 53.1467 270.328 53.392C270.84 53.6373 271.555 53.76 272.472 53.76C273.421 53.76 274.152 53.6373 274.664 53.392ZM272.776 41.936C272.627 45.6373 270.52 48.1227 266.456 49.392L265.464 47.888C266.787 47.5893 267.928 47.0613 268.888 46.304C269.848 45.5467 270.451 44.608 270.696 43.488H266.152V41.936H272.776ZM317.948 47.552L318.188 48.976C317.078 49.232 315.361 49.36 313.036 49.36C312.833 49.36 312.524 49.36 312.108 49.36C311.702 49.3493 311.398 49.344 311.196 49.344V44.784H315.596V43.44H311.196V41.952H317.468V46.192H313.084V47.888C315.494 47.888 317.116 47.776 317.948 47.552ZM322.46 49.776H320.604V47.584H318.476V46.08H320.604V44.592H318.476V43.072H320.604V41.008H322.46V49.776ZM312.764 50.496H322.476V55.28H320.604V51.984H312.764V50.496Z" fill="#222222"/>
<path d="M274.088 86.592L273.048 87.952C272.376 87.6213 271.688 87.0613 270.984 86.272C270.28 85.4827 269.827 84.752 269.624 84.08C269.443 84.8373 269.021 85.6267 268.36 86.448C267.709 87.2587 266.979 87.8613 266.168 88.256L265.016 86.864C267.427 85.5413 268.632 83.3813 268.632 80.384V80H265.752V78.464H273.352V80H270.568V80.368C270.568 83.2267 271.741 85.3013 274.088 86.592ZM276.632 77.008V82.496H278.664V84.048H276.632V91.264H274.76V77.008H276.632ZM290.476 85.264H288.604V83.84H285.98V82.304H288.604V80.944H286.188V79.408H288.604V77.008H290.476V85.264ZM290.492 91.28H288.604V87.488H280.828V86H290.492V91.28ZM285.98 77.856C285.841 81.536 283.734 84.0213 279.66 85.312L278.684 83.808C280.006 83.52 281.148 82.9973 282.108 82.24C283.068 81.4827 283.67 80.5387 283.916 79.408H279.372V77.856H285.98ZM306.587 77.008V82.496H308.635V84.032H306.587V91.264H304.731V77.008H306.587ZM304.027 86.464C303.899 86.624 303.712 86.8587 303.467 87.168C303.232 87.4773 303.051 87.7067 302.923 87.856C302.272 87.44 301.616 86.8533 300.955 86.096C300.293 85.3387 299.851 84.5973 299.627 83.872C299.392 84.672 298.955 85.4773 298.315 86.288C297.675 87.088 296.987 87.7067 296.251 88.144C295.728 87.504 295.344 87.0507 295.099 86.784C297.456 85.2693 298.635 83.0613 298.635 80.16V78.208H300.571V80.064C300.571 81.4507 300.869 82.688 301.467 83.776C302.075 84.864 302.928 85.76 304.027 86.464ZM321.678 82.64H319.806V86.288H317.934V77.008H319.806V81.104H321.678V82.64ZM319.918 88.848C319.918 89.616 319.486 90.2133 318.622 90.64C317.769 91.0773 316.58 91.296 315.054 91.296C313.529 91.296 312.334 91.0773 311.47 90.64C310.617 90.2133 310.19 89.616 310.19 88.848C310.19 88.0693 310.617 87.4667 311.47 87.04C312.334 86.6027 313.529 86.384 315.054 86.384C316.58 86.384 317.769 86.6027 318.622 87.04C319.486 87.4667 319.918 88.0693 319.918 88.848ZM317.214 88.096C316.692 87.904 315.972 87.808 315.054 87.808C314.137 87.808 313.412 87.904 312.878 88.096C312.356 88.288 312.094 88.5387 312.094 88.848C312.094 89.1573 312.356 89.408 312.878 89.6C313.412 89.792 314.137 89.888 315.054 89.888C315.972 89.888 316.692 89.792 317.214 89.6C317.748 89.408 318.014 89.1573 318.014 88.848C318.014 88.5387 317.748 88.288 317.214 88.096ZM316.862 80.88H308.59V79.424H316.862V80.88ZM310.654 78.816V77.344H314.878V78.816H310.654ZM315.182 81.952C315.822 82.4 316.142 82.9867 316.142 83.712C316.142 84.4373 315.822 85.024 315.182 85.472C314.553 85.92 313.748 86.144 312.766 86.144C311.774 86.144 310.953 85.92 310.302 85.472C309.652 85.024 309.326 84.4373 309.326 83.712C309.326 82.9867 309.652 82.4 310.302 81.952C310.953 81.4933 311.774 81.264 312.766 81.264C313.748 81.264 314.553 81.4933 315.182 81.952ZM311.662 82.96C311.364 83.152 311.214 83.4027 311.214 83.712C311.214 84.0213 311.364 84.272 311.662 84.464C311.961 84.656 312.329 84.752 312.766 84.752C313.182 84.752 313.54 84.656 313.838 84.464C314.148 84.2613 314.302 84.0107 314.302 83.712C314.302 83.4027 314.153 83.152 313.854 82.96C313.556 82.7573 313.193 82.656 312.766 82.656C312.329 82.656 311.961 82.7573 311.662 82.96Z" fill="#222222"/>
<path d="M346.312 53.328V42.576H349.64C351.976 42.576 353.144 43.4827 353.144 45.296C353.144 46.4693 352.557 47.2427 351.384 47.616V47.68C352.856 47.9573 353.592 48.8213 353.592 50.272C353.592 51.1893 353.277 51.9307 352.648 52.496C352.019 53.0507 351.107 53.328 349.912 53.328H346.312ZM347.72 52.144H349.832C351.357 52.144 352.12 51.4987 352.12 50.208C352.12 49.5467 351.917 49.072 351.512 48.784C351.117 48.4853 350.525 48.336 349.736 48.336H347.72V52.144ZM347.72 47.2H349.4C350.915 47.2 351.672 46.6293 351.672 45.488C351.672 44.848 351.496 44.4053 351.144 44.16C350.803 43.9147 350.264 43.792 349.528 43.792H347.72V47.2ZM354.953 53.328V42.576H356.617L361.545 50.928H361.577V42.576H362.873V53.328H361.417L356.281 44.528H356.249V53.328H354.953ZM370.876 53.328L366.396 47.84L370.828 42.576H372.332L367.98 47.68L372.54 53.328H370.876ZM364.86 53.328V42.576H366.268V53.328H364.86ZM381.341 51.056L380.509 52.112C379.794 51.696 379.09 51.0933 378.397 50.304C377.704 49.5147 377.245 48.7467 377.021 48C376.808 48.7893 376.37 49.5893 375.709 50.4C375.058 51.2107 374.317 51.8773 373.485 52.4L372.573 51.36C373.672 50.7307 374.562 49.856 375.245 48.736C375.938 47.616 376.285 46.4107 376.285 45.12V43.76H373.085V42.592H380.829V43.76H377.741V45.104C377.741 46.4053 378.077 47.5787 378.749 48.624C379.421 49.6587 380.285 50.4693 381.341 51.056ZM382.877 47.312H380.061V46.112H382.877V41.136H384.301V55.12H382.877V47.312ZM387.457 50.72H391.585V49.44H386.017V48.288H398.641V49.44H393.009V50.72H397.025V55.184H395.601V51.872H387.457V50.72ZM398.017 46.432L397.425 47.6C396.358 47.4827 395.334 47.2053 394.353 46.768C393.371 46.3307 392.694 45.8187 392.321 45.232C391.958 45.8507 391.302 46.3733 390.353 46.8C389.414 47.216 388.379 47.4773 387.249 47.584L386.625 46.432C387.798 46.3787 388.859 46.1493 389.809 45.744C390.769 45.3387 391.35 44.832 391.553 44.224H387.313V43.088H397.329V44.224H393.121C393.334 44.8213 393.931 45.328 394.913 45.744C395.894 46.1493 396.929 46.3787 398.017 46.432ZM394.577 42.288H390.049V41.136H394.577V42.288ZM411.844 49.408H399.22V48.256H411.844V49.408ZM410.34 54.704H400.852V50.64H402.26V53.568H410.34V54.704ZM409.124 42.304C409.988 42.784 410.42 43.456 410.42 44.32C410.42 45.184 409.983 45.8613 409.108 46.352C408.244 46.8427 407.05 47.088 405.524 47.088C403.999 47.088 402.804 46.8427 401.94 46.352C401.087 45.8613 400.66 45.184 400.66 44.32C400.66 43.456 401.087 42.784 401.94 42.304C402.804 41.8133 403.999 41.568 405.524 41.568C407.06 41.568 408.26 41.8133 409.124 42.304ZM405.524 42.72C404.5 42.72 403.684 42.864 403.076 43.152C402.479 43.44 402.18 43.8293 402.18 44.32C402.18 44.8107 402.479 45.2 403.076 45.488C403.684 45.776 404.5 45.92 405.524 45.92C406.559 45.92 407.386 45.776 408.004 45.488C408.623 45.2 408.932 44.8107 408.932 44.32C408.932 43.8293 408.623 43.44 408.004 43.152C407.386 42.864 406.559 42.72 405.524 42.72ZM423.128 50.896C423.971 51.3227 424.392 51.9147 424.392 52.672C424.392 53.4293 423.971 54.0213 423.128 54.448C422.296 54.8853 421.139 55.104 419.656 55.104C418.174 55.104 417.011 54.8853 416.168 54.448C415.326 54.0213 414.904 53.4293 414.904 52.672C414.904 51.9147 415.326 51.3227 416.168 50.896C417.011 50.4693 418.174 50.256 419.656 50.256C421.139 50.256 422.296 50.4693 423.128 50.896ZM424.232 50.304H422.872V46.256H421.336V49.808H419.992V41.392H421.336V45.088H422.872V41.136H424.232V50.304ZM418.984 47.632C418.984 48.3147 418.718 48.8587 418.184 49.264C417.662 49.6587 416.926 49.856 415.976 49.856C415.027 49.856 414.286 49.6587 413.752 49.264C413.219 48.8587 412.952 48.3147 412.952 47.632C412.952 46.9387 413.219 46.3893 413.752 45.984C414.286 45.5787 415.027 45.376 415.976 45.376C416.926 45.376 417.662 45.5787 418.184 45.984C418.718 46.3893 418.984 46.9387 418.984 47.632ZM419.656 51.36C418.632 51.36 417.822 51.4773 417.224 51.712C416.638 51.9467 416.344 52.2667 416.344 52.672C416.344 53.0773 416.638 53.4027 417.224 53.648C417.822 53.8827 418.632 54 419.656 54C420.67 54 421.47 53.8827 422.056 53.648C422.654 53.4027 422.952 53.0773 422.952 52.672C422.952 52.2667 422.654 51.9467 422.056 51.712C421.47 51.4773 420.67 51.36 419.656 51.36ZM419.528 44.864H412.344V43.728H419.528V44.864ZM417.176 48.4C417.475 48.208 417.624 47.952 417.624 47.632C417.624 47.312 417.475 47.056 417.176 46.864C416.888 46.672 416.488 46.576 415.976 46.576C415.464 46.576 415.059 46.672 414.76 46.864C414.462 47.056 414.312 47.312 414.312 47.632C414.312 47.952 414.462 48.208 414.76 48.4C415.059 48.592 415.464 48.688 415.976 48.688C416.488 48.688 416.888 48.592 417.176 48.4ZM417.704 42.88H414.04V41.744H417.704V42.88Z" fill="#666666"/>
<path d="M356.472 81.552H348.52V83.072H356.76V84.208H347.112V77.936H356.664V79.088H348.52V80.416H356.472V81.552ZM352.6 91.04H351.176V86.752H345.608V85.584H358.232V86.752H352.6V91.04ZM367.052 86.816L366.22 87.856C365.516 87.4507 364.828 86.8587 364.156 86.08C363.484 85.3013 363.041 84.5387 362.828 83.792C362.614 84.592 362.182 85.4027 361.532 86.224C360.892 87.0347 360.156 87.696 359.324 88.208L358.412 87.168C359.51 86.5387 360.396 85.664 361.068 84.544C361.75 83.424 362.092 82.2133 362.092 80.912V79.76H358.94V78.592H366.636V79.76H363.548V80.896C363.548 82.1973 363.868 83.3653 364.508 84.4C365.158 85.4347 366.006 86.24 367.052 86.816ZM371.804 83.904H369.612V91.12H368.204V77.136H369.612V82.72H371.804V83.904ZM380.255 86.816L379.424 87.856C378.719 87.4507 378.031 86.8587 377.359 86.08C376.687 85.3013 376.245 84.5387 376.031 83.792C375.818 84.592 375.386 85.4027 374.735 86.224C374.095 87.0347 373.359 87.696 372.527 88.208L371.615 87.168C372.714 86.5387 373.599 85.664 374.271 84.544C374.954 83.424 375.295 82.2133 375.295 80.912V79.76H372.143V78.592H379.839V79.76H376.751V80.896C376.751 82.1973 377.071 83.3653 377.711 84.4C378.362 85.4347 379.21 86.24 380.255 86.816ZM385.007 83.904H382.816V91.12H381.407V77.136H382.816V82.72H385.007V83.904ZM398.115 82.512H396.019V87.296H394.611V77.136H396.019V81.328H398.115V82.512ZM396.611 90.688H387.299V86.288H388.723V89.536H396.611V90.688ZM393.187 83.936L392.355 85.056C391.673 84.7467 391.027 84.304 390.419 83.728C389.811 83.1413 389.358 82.5067 389.059 81.824C388.857 82.5387 388.43 83.2427 387.779 83.936C387.139 84.6187 386.451 85.1307 385.715 85.472L384.835 84.352C385.827 83.9467 386.654 83.3013 387.315 82.416C387.987 81.52 388.323 80.544 388.323 79.488V77.92H389.763V79.424C389.763 80.4907 390.105 81.4293 390.787 82.24C391.47 83.0507 392.27 83.616 393.187 83.936ZM409.543 80.336C409.543 81.2 409.116 81.8773 408.263 82.368C407.41 82.848 406.231 83.088 404.727 83.088C403.212 83.088 402.034 82.848 401.191 82.368C400.359 81.8773 399.943 81.2 399.943 80.336C399.943 79.4827 400.364 78.816 401.207 78.336C402.05 77.8453 403.223 77.6 404.727 77.6C406.231 77.6 407.41 77.8453 408.263 78.336C409.116 78.816 409.543 79.4827 409.543 80.336ZM405.511 88.096H404.103V85.376H398.423V84.224H411.047V85.376H405.511V88.096ZM404.727 78.768C403.692 78.768 402.876 78.9067 402.279 79.184C401.682 79.4613 401.383 79.8507 401.383 80.352C401.383 80.8533 401.682 81.2427 402.279 81.52C402.876 81.7973 403.687 81.936 404.711 81.936C405.756 81.936 406.583 81.7973 407.191 81.52C407.799 81.2427 408.103 80.8533 408.103 80.352C408.103 79.8507 407.799 79.4613 407.191 79.184C406.594 78.9067 405.772 78.768 404.727 78.768ZM409.543 90.704H400.071V86.64H401.479V89.552H409.543V90.704ZM422.747 80.112C422.747 81.072 422.187 81.7813 421.067 82.24V84.144H424.251V85.296H411.627V84.144H414.747V82.208C413.659 81.7493 413.115 81.0507 413.115 80.112C413.115 79.3013 413.536 78.6667 414.379 78.208C415.232 77.7387 416.416 77.504 417.931 77.504C419.445 77.504 420.624 77.7387 421.467 78.208C422.32 78.6667 422.747 79.3013 422.747 80.112ZM421.579 86.72C422.464 87.1573 422.907 87.776 422.907 88.576C422.907 89.376 422.464 89.9947 421.579 90.432C420.704 90.88 419.488 91.104 417.931 91.104C416.384 91.104 415.173 90.88 414.299 90.432C413.424 89.9947 412.987 89.376 412.987 88.576C412.987 87.776 413.424 87.1573 414.299 86.72C415.173 86.2827 416.384 86.064 417.931 86.064C419.488 86.064 420.704 86.2827 421.579 86.72ZM421.307 80.112C421.307 79.632 421.008 79.264 420.411 79.008C419.813 78.752 418.987 78.624 417.931 78.624C416.885 78.624 416.064 78.7573 415.467 79.024C414.869 79.28 414.571 79.6427 414.571 80.112C414.571 80.5813 414.869 80.9493 415.467 81.216C416.064 81.472 416.885 81.6 417.931 81.6C418.976 81.6 419.797 81.472 420.395 81.216C421.003 80.9493 421.307 80.5813 421.307 80.112ZM417.931 87.2C416.875 87.2 416.037 87.3227 415.419 87.568C414.8 87.8027 414.491 88.144 414.491 88.592C414.491 89.0293 414.8 89.3653 415.419 89.6C416.037 89.8347 416.875 89.952 417.931 89.952C419.008 89.952 419.856 89.8347 420.475 89.6C421.104 89.3653 421.419 89.0293 421.419 88.592C421.419 88.144 421.104 87.8027 420.475 87.568C419.845 87.3227 418.997 87.2 417.931 87.2ZM417.931 82.736C417.269 82.736 416.677 82.688 416.155 82.592V84.144H419.659V82.608C419.115 82.6933 418.539 82.736 417.931 82.736ZM437.807 83.872H435.631V91.12H434.223V77.136H435.631V82.704H437.807V83.872ZM433.071 86.656L432.223 87.712C431.54 87.264 430.863 86.6453 430.191 85.856C429.519 85.0667 429.06 84.2933 428.815 83.536C428.58 84.3787 428.143 85.2107 427.503 86.032C426.873 86.8533 426.159 87.5307 425.359 88.064L424.479 87.008C425.556 86.336 426.425 85.4293 427.087 84.288C427.748 83.1467 428.079 81.9413 428.079 80.672V78.336H429.535V80.608C429.535 81.8667 429.865 83.0293 430.527 84.096C431.188 85.1627 432.036 86.016 433.071 86.656Z" fill="#666666"/>
</svg>
