<svg width="640" height="212" viewBox="0 0 640 212" fill="none" xmlns="http://www.w3.org/2000/svg">
<rect x="0.5" y="0.5" width="639" height="211" stroke="#DDDDDD"/>
<rect width="225" height="212" fill="#3D638F"/>
<path d="M46.776 47.944H34.992V50.656H47.496V51.976H33.456V42.808H47.208V44.128H34.992V46.696H46.776V47.944ZM41.112 62.368H39.576V55.696H30.912V54.376H49.848V55.696H41.112V62.368ZM62.9336 56.56L61.9736 57.736C60.8536 56.968 59.7896 55.992 58.7816 54.808C57.7736 53.624 57.0776 52.416 56.6936 51.184C55.9576 53.744 54.1976 56.096 51.4136 58.24L50.3816 57.088C51.9176 56.16 53.2216 54.84 54.2936 53.128C55.3656 51.416 55.9016 49.688 55.9016 47.944V45.232H51.1496V43.912H62.2376V45.232H57.4856V47.896C57.4856 49.672 58.0136 51.352 59.0696 52.936C60.1416 54.504 61.4296 55.712 62.9336 56.56ZM70.3016 51.664H66.7496V62.68H65.2136V41.704H66.7496V50.344H70.3016V51.664ZM85.2353 43.504C86.4833 44.176 87.1073 45.168 87.1073 46.48C87.1073 47.792 86.4833 48.784 85.2353 49.456C83.9873 50.128 82.2273 50.464 79.9553 50.464C77.6993 50.464 75.9553 50.128 74.7233 49.456C73.4913 48.784 72.8753 47.792 72.8753 46.48C72.8753 45.168 73.4913 44.176 74.7233 43.504C75.9713 42.832 77.7233 42.496 79.9793 42.496C82.2513 42.496 84.0033 42.832 85.2353 43.504ZM79.9793 43.84C78.2513 43.84 76.8993 44.064 75.9233 44.512C74.9473 44.944 74.4593 45.6 74.4593 46.48C74.4593 47.36 74.9393 48.024 75.8993 48.472C76.8753 48.92 78.2273 49.144 79.9553 49.144C81.6993 49.144 83.0673 48.92 84.0593 48.472C85.0673 48.024 85.5713 47.36 85.5713 46.48C85.5713 45.6 85.0753 44.944 84.0833 44.512C83.0913 44.064 81.7233 43.84 79.9793 43.84ZM80.7953 58.168H79.2593V53.848H70.5233V52.528H89.4593V53.848H80.7953V58.168ZM87.1313 61.96H73.0433V56.2H74.5793V60.664H87.1313V61.96ZM106.913 46.024C106.913 47.512 106.033 48.568 104.273 49.192V52.576H109.265V53.896H90.3289V52.576H95.2729V49.168C93.5129 48.544 92.6329 47.496 92.6329 46.024C92.6329 44.792 93.2569 43.856 94.5049 43.216C95.7689 42.56 97.5289 42.232 99.7849 42.232C102.041 42.232 103.793 42.56 105.041 43.216C106.289 43.856 106.913 44.792 106.913 46.024ZM107.009 58.888C107.009 60.072 106.369 60.976 105.089 61.6C103.809 62.24 102.041 62.56 99.7849 62.56C97.5289 62.56 95.7689 62.24 94.5049 61.6C93.2409 60.976 92.6089 60.072 92.6089 58.888C92.6089 57.72 93.2409 56.824 94.5049 56.2C95.7689 55.56 97.5289 55.24 99.7849 55.24C102.041 55.24 103.809 55.56 105.089 56.2C106.369 56.824 107.009 57.72 107.009 58.888ZM103.889 47.896C104.881 47.48 105.377 46.856 105.377 46.024C105.377 45.192 104.881 44.568 103.889 44.152C102.897 43.736 101.529 43.528 99.7849 43.528C98.0569 43.528 96.6969 43.736 95.7049 44.152C94.7289 44.568 94.2409 45.192 94.2409 46.024C94.2409 46.856 94.7289 47.48 95.7049 47.896C96.6969 48.312 98.0569 48.52 99.7849 48.52C101.529 48.52 102.897 48.312 103.889 47.896ZM99.7849 56.536C98.0569 56.536 96.6889 56.736 95.6809 57.136C94.6889 57.52 94.1929 58.104 94.1929 58.888C94.1929 59.672 94.6889 60.264 95.6809 60.664C96.6889 61.064 98.0569 61.264 99.7849 61.264C101.545 61.264 102.921 61.072 103.913 60.688C104.905 60.288 105.401 59.688 105.401 58.888C105.401 58.104 104.897 57.52 103.889 57.136C102.897 56.736 101.529 56.536 99.7849 56.536ZM99.7849 49.84C98.7289 49.84 97.7369 49.752 96.8089 49.576V52.576H102.737V49.6C101.889 49.76 100.905 49.84 99.7849 49.84ZM126.551 50.824H120.335V53.608H129.071V54.904H110.135V53.608H118.799V50.824H112.679V42.4H114.215V45.304H125.015V42.4H126.551V50.824ZM125.015 49.504V46.6H114.215V49.504H125.015ZM126.767 61.984H112.655V56.296H114.191V60.688H126.767V61.984ZM146.38 51.64H132.46V42.568H133.996V45.784H144.844V42.568H146.38V51.64ZM140.14 62.704H138.604V55.552H129.94V54.256H148.876V55.552H140.14V62.704ZM144.844 50.32V47.104H133.996V50.32H144.844ZM172.154 62.68H170.618V41.704H172.154V62.68ZM156.074 50.704C156.074 48.448 156.522 46.664 157.418 45.352C158.314 44.024 159.57 43.36 161.186 43.36C162.818 43.36 164.082 44.024 164.978 45.352C165.874 46.664 166.322 48.456 166.322 50.728C166.322 52.984 165.874 54.776 164.978 56.104C164.082 57.432 162.818 58.096 161.186 58.096C159.57 58.096 158.314 57.432 157.418 56.104C156.522 54.776 156.074 52.976 156.074 50.704ZM163.826 55.048C164.498 53.928 164.834 52.488 164.834 50.728C164.834 48.968 164.498 47.528 163.826 46.408C163.154 45.288 162.274 44.728 161.186 44.728C160.098 44.728 159.226 45.288 158.57 46.408C157.914 47.512 157.586 48.952 157.586 50.728C157.586 52.488 157.914 53.928 158.57 55.048C159.226 56.152 160.098 56.704 161.186 56.704C162.274 56.704 163.154 56.152 163.826 55.048ZM194.432 51.592H190.928V62.68H189.392V41.704H190.928V50.272H194.432V51.592ZM187.232 56.32L186.2 57.544C185.096 56.76 184.024 55.768 182.984 54.568C181.944 53.352 181.232 52.136 180.848 50.92C180.48 52.216 179.816 53.488 178.856 54.736C177.912 55.968 176.784 57.088 175.472 58.096L174.416 56.896C175.952 55.952 177.272 54.608 178.376 52.864C179.496 51.12 180.056 49.376 180.056 47.632V43.672H181.64V47.608C181.64 49.384 182.192 51.072 183.296 52.672C184.4 54.256 185.712 55.472 187.232 56.32Z" fill="white"/>
<path d="M55.92 89.04C55.5147 89.7867 54.8853 90.9067 54.032 92.4C52.7307 92.144 51.44 91.76 50.16 91.248C48.9013 90.7147 47.6427 89.9573 46.384 88.976C45.1467 87.9733 44.2827 86.864 43.792 85.648C43.3013 86.8427 42.4587 87.952 41.264 88.976C40.0693 89.9787 38.8213 90.7573 37.52 91.312C36.24 91.8667 34.96 92.272 33.68 92.528L31.76 89.168C34.1067 88.8907 36.2187 88.08 38.096 86.736C39.9947 85.3707 41.104 83.6533 41.424 81.584H32.944V78.256H54.736V81.584H46.16C46.3733 82.992 46.992 84.2507 48.016 85.36C49.0613 86.448 50.256 87.2907 51.6 87.888C52.9653 88.4853 54.4053 88.8693 55.92 89.04ZM56.72 100.976H30.96V97.68H41.648V91.536H45.84V97.68H56.72V100.976ZM79.9915 86.672H72.4075V89.168H83.1275V92.496H57.3675V89.168H68.1835V86.672H60.7275V76.56H79.7675V79.952H64.9515V83.344H79.9915V86.672ZM80.1835 99.088C80.1835 100.731 79.2875 102.053 77.4955 103.056C75.7248 104.08 73.3142 104.592 70.2635 104.592C67.1702 104.592 64.7382 104.091 62.9675 103.088C61.1968 102.085 60.3115 100.752 60.3115 99.088C60.3115 97.3813 61.1862 96.0373 62.9355 95.056C64.6848 94.0747 67.1062 93.584 70.1995 93.584C73.3142 93.584 75.7568 94.0747 77.5275 95.056C79.2982 96.0373 80.1835 97.3813 80.1835 99.088ZM75.8315 99.152C75.8315 98.4907 75.3195 97.9573 74.2955 97.552C73.2715 97.1467 71.9062 96.944 70.1995 96.944C68.5355 96.944 67.1915 97.1467 66.1675 97.552C65.1648 97.9573 64.6635 98.4907 64.6635 99.152C64.6635 99.7493 65.1755 100.251 66.1995 100.656C67.2235 101.04 68.5568 101.232 70.1995 101.232C71.8848 101.232 73.2395 101.04 74.2635 100.656C75.3088 100.251 75.8315 99.7493 75.8315 99.152ZM86.687 94.832H94.559V92.24H83.775V88.912H109.535V92.24H98.751V94.832H106.207V104.496H101.983V98.16H86.687V94.832ZM86.527 82.16C86.527 80.5387 87.4337 79.216 89.247 78.192C91.0817 77.1467 93.5457 76.624 96.639 76.624C99.7323 76.624 102.196 77.1467 104.031 78.192C105.887 79.216 106.815 80.5387 106.815 82.16C106.815 83.8027 105.887 85.1467 104.031 86.192C102.196 87.2373 99.7323 87.76 96.639 87.76C93.5457 87.76 91.0817 87.2373 89.247 86.192C87.4337 85.1467 86.527 83.8027 86.527 82.16ZM90.975 82.224C90.975 82.928 91.487 83.504 92.511 83.952C93.535 84.4 94.911 84.624 96.639 84.624C98.3883 84.624 99.775 84.4 100.799 83.952C101.844 83.504 102.367 82.928 102.367 82.224C102.367 81.5413 101.844 80.976 100.799 80.528C99.7537 80.08 98.367 79.856 96.639 79.856C94.911 79.856 93.535 80.08 92.511 80.528C91.487 80.976 90.975 81.5413 90.975 82.224Z" fill="white"/>
<path d="M277.368 52.368C277.368 53.2533 276.936 53.9573 276.072 54.48C275.208 55.0027 274.008 55.264 272.472 55.264C270.947 55.264 269.757 55.0027 268.904 54.48C268.051 53.9573 267.624 53.2533 267.624 52.368C267.624 51.472 268.051 50.768 268.904 50.256C269.757 49.7333 270.947 49.472 272.472 49.472C274.008 49.472 275.208 49.7333 276.072 50.256C276.936 50.768 277.368 51.472 277.368 52.368ZM277.272 49.28H275.4V47.728H272.792V46.304H275.4V44.896H272.984V43.424H275.4V41.008H277.272V49.28ZM274.664 53.392C275.176 53.1467 275.432 52.8053 275.432 52.368C275.432 51.9307 275.171 51.5893 274.648 51.344C274.136 51.088 273.411 50.96 272.472 50.96C271.565 50.96 270.856 51.088 270.344 51.344C269.832 51.5893 269.576 51.9307 269.576 52.368C269.576 52.8053 269.827 53.1467 270.328 53.392C270.84 53.6373 271.555 53.76 272.472 53.76C273.421 53.76 274.152 53.6373 274.664 53.392ZM272.776 41.936C272.627 45.6373 270.52 48.1227 266.456 49.392L265.464 47.888C266.787 47.5893 267.928 47.0613 268.888 46.304C269.848 45.5467 270.451 44.608 270.696 43.488H266.152V41.936H272.776ZM317.948 47.552L318.188 48.976C317.078 49.232 315.361 49.36 313.036 49.36C312.833 49.36 312.524 49.36 312.108 49.36C311.702 49.3493 311.398 49.344 311.196 49.344V44.784H315.596V43.44H311.196V41.952H317.468V46.192H313.084V47.888C315.494 47.888 317.116 47.776 317.948 47.552ZM322.46 49.776H320.604V47.584H318.476V46.08H320.604V44.592H318.476V43.072H320.604V41.008H322.46V49.776ZM312.764 50.496H322.476V55.28H320.604V51.984H312.764V50.496Z" fill="#222222"/>
<path d="M357.384 54.688H347.992V50.976H349.4V53.552H357.384V54.688ZM353.464 46.256V45.136H355.656V41.136H357.08V51.472H355.656V49.072H353.464V47.936H355.656V46.256H353.464ZM351.64 42.72H347.592V41.568H351.64V42.72ZM353.304 44.832H345.64V43.696H353.304V44.832ZM351.96 46.096C352.579 46.544 352.888 47.1253 352.888 47.84C352.888 48.5547 352.579 49.1413 351.96 49.6C351.341 50.048 350.563 50.272 349.624 50.272C348.675 50.272 347.891 50.048 347.272 49.6C346.664 49.152 346.36 48.5653 346.36 47.84C346.36 47.1147 346.664 46.5333 347.272 46.096C347.891 45.648 348.675 45.424 349.624 45.424C350.563 45.424 351.341 45.648 351.96 46.096ZM351.48 47.84C351.48 47.456 351.299 47.1413 350.936 46.896C350.573 46.6507 350.136 46.528 349.624 46.528C349.112 46.528 348.669 46.6507 348.296 46.896C347.933 47.1413 347.752 47.456 347.752 47.84C347.752 48.2133 347.933 48.528 348.296 48.784C348.669 49.04 349.112 49.168 349.624 49.168C350.125 49.168 350.557 49.04 350.92 48.784C351.293 48.528 351.48 48.2133 351.48 47.84ZM370.62 55.12H369.26V47.664H367.596V54.432H366.236V41.44H367.596V46.512H369.26V41.136H370.62V55.12ZM360.652 50.416H360.908C362.774 50.416 364.262 50.2933 365.372 50.048L365.564 51.216C364.348 51.472 362.689 51.6 360.588 51.6H359.244V42.864H364.7V44.016H360.652V50.416ZM381.151 51.152H379.807V46.112H378.543C378.447 46.9973 378.111 47.7227 377.535 48.288C376.97 48.8427 376.239 49.12 375.343 49.12C374.362 49.12 373.573 48.784 372.975 48.112C372.389 47.44 372.095 46.6027 372.095 45.6C372.095 44.6187 372.389 43.792 372.975 43.12C373.573 42.448 374.357 42.112 375.327 42.112C376.202 42.112 376.922 42.3787 377.487 42.912C378.063 43.4347 378.415 44.1173 378.543 44.96H379.807V41.424H381.151V51.152ZM384.191 54.704H374.575V50.256H375.999V53.568H384.191V54.704ZM383.823 51.52H382.464V41.136H383.823V51.52ZM376.687 47.232C377.029 46.8053 377.199 46.2667 377.199 45.616C377.199 44.9653 377.029 44.4267 376.687 44C376.357 43.5733 375.903 43.36 375.327 43.36C374.773 43.36 374.325 43.5787 373.983 44.016C373.653 44.4427 373.487 44.976 373.487 45.616C373.487 46.2667 373.653 46.8053 373.983 47.232C374.325 47.6587 374.773 47.872 375.327 47.872C375.903 47.872 376.357 47.6587 376.687 47.232ZM393.827 50.736L392.995 51.792C392.281 51.376 391.582 50.7787 390.899 50C390.217 49.2107 389.769 48.4427 389.555 47.696C389.353 48.5173 388.926 49.3387 388.275 50.16C387.625 50.9707 386.883 51.6213 386.051 52.112L385.155 51.088C386.254 50.4373 387.139 49.5627 387.811 48.464C388.483 47.3547 388.819 46.1387 388.819 44.816V43.696H385.651V42.544H393.411V43.696H390.275V44.816C390.275 46.1173 390.606 47.2907 391.267 48.336C391.929 49.3707 392.782 50.1707 393.827 50.736ZM395.331 41.136H396.755V55.12H395.331V41.136ZM409.879 41.136V55.12H408.471V41.136H409.879ZM407.159 49.84L407.335 50.992C406.578 51.184 405.532 51.3387 404.199 51.456C402.876 51.5733 401.666 51.6427 400.567 51.664H399.255V42.592H400.679V50.448C401.682 50.448 402.818 50.3947 404.087 50.288C405.367 50.1707 406.391 50.0213 407.159 49.84ZM412.603 50.64C411.995 49.7227 411.691 48.5333 411.691 47.072C411.691 45.6107 411.995 44.4213 412.603 43.504C413.211 42.5867 414.107 42.128 415.291 42.128C416.379 42.128 417.216 42.5227 417.803 43.312C418.4 44.0907 418.747 45.1307 418.843 46.432H421.675V41.136H423.099V55.12H421.675V47.632H418.843C418.757 48.9547 418.416 50.016 417.819 50.816C417.232 51.616 416.389 52.016 415.291 52.016C414.107 52.016 413.211 51.5573 412.603 50.64ZM417.451 47.088C417.451 45.968 417.259 45.0667 416.875 44.384C416.501 43.6907 415.973 43.344 415.291 43.344C414.597 43.344 414.064 43.6853 413.691 44.368C413.328 45.0507 413.147 45.9573 413.147 47.088C413.147 48.1973 413.328 49.0933 413.691 49.776C414.064 50.4587 414.597 50.8 415.291 50.8C415.973 50.8 416.501 50.4587 416.875 49.776C417.259 49.0933 417.451 48.1973 417.451 47.088ZM436.303 49.808H434.879V41.136H436.303V49.808ZM433.231 47.392L433.407 48.544C432.084 48.8107 430.18 48.9547 427.695 48.976C427.236 48.9867 426.495 48.992 425.471 48.992V44.816H430.527V43.152H425.471V42.016H431.935V45.936H426.879V47.84C427.817 47.872 428.953 47.8453 430.287 47.76C431.631 47.6747 432.612 47.552 433.231 47.392ZM435.151 50.544C435.983 51.0133 436.399 51.6587 436.399 52.48C436.399 53.3013 435.983 53.9467 435.151 54.416C434.319 54.8853 433.151 55.12 431.647 55.12C430.143 55.12 428.969 54.8853 428.127 54.416C427.295 53.9467 426.879 53.3013 426.879 52.48C426.879 51.6587 427.295 51.0133 428.127 50.544C428.969 50.0747 430.143 49.84 431.647 49.84C433.151 49.84 434.319 50.0747 435.151 50.544ZM434.079 51.376C433.492 51.0987 432.681 50.96 431.647 50.96C430.612 50.96 429.801 51.0987 429.215 51.376C428.639 51.6427 428.351 52.0107 428.351 52.48C428.351 52.9493 428.639 53.3227 429.215 53.6C429.801 53.8667 430.612 54 431.647 54C432.692 54 433.503 53.8667 434.079 53.6C434.665 53.3227 434.959 52.9493 434.959 52.48C434.959 52.0107 434.665 51.6427 434.079 51.376ZM453.389 54.768H443.933V50.352H445.357V53.616H453.389V54.768ZM451.645 46.608H448.733V45.44H451.645V41.136H453.069V51.296H451.645V46.608ZM442.349 42.24H448.621C448.557 44.1067 447.971 45.6853 446.861 46.976C445.763 48.2667 444.275 49.184 442.397 49.728L441.677 48.576C443.128 48.2133 444.339 47.568 445.309 46.64C446.28 45.712 446.867 44.6347 447.069 43.408H442.349V42.24ZM456.241 50.72H460.369V49.44H454.801V48.288H467.425V49.44H461.793V50.72H465.809V55.184H464.385V51.872H456.241V50.72ZM466.801 46.432L466.209 47.6C465.142 47.4827 464.118 47.2053 463.137 46.768C462.156 46.3307 461.478 45.8187 461.105 45.232C460.742 45.8507 460.086 46.3733 459.137 46.8C458.198 47.216 457.164 47.4773 456.033 47.584L455.409 46.432C456.582 46.3787 457.644 46.1493 458.593 45.744C459.553 45.3387 460.134 44.832 460.337 44.224H456.097V43.088H466.113V44.224H461.905C462.118 44.8213 462.716 45.328 463.697 45.744C464.678 46.1493 465.713 46.3787 466.801 46.432ZM463.361 42.288H458.833V41.136H463.361V42.288ZM480.981 47.872H478.805V55.12H477.397V41.136H478.805V46.704H480.981V47.872ZM476.245 50.656L475.397 51.712C474.714 51.264 474.037 50.6453 473.365 49.856C472.693 49.0667 472.234 48.2933 471.989 47.536C471.754 48.3787 471.317 49.2107 470.677 50.032C470.048 50.8533 469.333 51.5307 468.533 52.064L467.653 51.008C468.73 50.336 469.6 49.4293 470.261 48.288C470.922 47.1467 471.253 45.9413 471.253 44.672V42.336H472.709V44.608C472.709 45.8667 473.04 47.0293 473.701 48.096C474.362 49.1627 475.21 50.016 476.245 50.656ZM491.257 45.584H489.033V44.432H491.257V41.136H492.681V48.608H491.257V45.584ZM492.681 54.944H483.689V49.376H485.097V51.04H491.257V49.344H492.681V54.944ZM491.257 53.808V52.16H485.097V53.808H491.257ZM482.361 42.72C483.043 42.112 483.891 41.808 484.905 41.808C485.918 41.808 486.761 42.112 487.433 42.72C488.115 43.3173 488.457 44.096 488.457 45.056C488.457 46.016 488.115 46.7893 487.433 47.376C486.761 47.952 485.918 48.24 484.905 48.24C483.891 48.24 483.043 47.952 482.361 47.376C481.689 46.7893 481.353 46.0213 481.353 45.072C481.353 44.112 481.689 43.328 482.361 42.72ZM484.905 43.008C484.286 43.008 483.774 43.1947 483.369 43.568C482.963 43.9413 482.761 44.432 482.761 45.04C482.761 45.648 482.963 46.1333 483.369 46.496C483.774 46.8587 484.286 47.04 484.905 47.04C485.523 47.04 486.03 46.8587 486.425 46.496C486.819 46.1333 487.017 45.6533 487.017 45.056C487.017 44.4373 486.819 43.9413 486.425 43.568C486.041 43.1947 485.534 43.008 484.905 43.008ZM505.404 47.264H501.404V48.864H507.036V50.016H494.412V48.864H499.98V47.264H496.06V41.616H497.468V43.392H503.98V41.6H505.404V47.264ZM505.532 54.688H495.996V50.896H497.42V53.536H505.532V54.688ZM503.98 46.096V44.544H497.468V46.096H503.98ZM518.688 47.84H509.136V41.664H510.56V43.648H517.28V41.664H518.688V47.84ZM514.608 55.136H513.184V50.592H507.616V49.424H520.24V50.592H514.608V55.136ZM517.28 46.704V44.8H510.56V46.704H517.28ZM356.872 68.832C356.872 69.7707 356.424 70.5333 355.528 71.12C354.632 71.696 353.421 71.984 351.896 71.984C350.371 71.984 349.16 71.696 348.264 71.12C347.379 70.5333 346.936 69.7707 346.936 68.832C346.936 67.904 347.379 67.152 348.264 66.576C349.16 66 350.371 65.712 351.896 65.712C353.421 65.712 354.632 66 355.528 66.576C356.424 67.152 356.872 67.904 356.872 68.832ZM351.896 66.912C350.808 66.912 349.939 67.0987 349.288 67.472C348.648 67.8347 348.328 68.288 348.328 68.832C348.328 69.376 348.648 69.84 349.288 70.224C349.939 70.5973 350.808 70.784 351.896 70.784C352.973 70.784 353.832 70.5973 354.472 70.224C355.123 69.84 355.448 69.376 355.448 68.832C355.448 68.288 355.123 67.8347 354.472 67.472C353.832 67.0987 352.973 66.912 351.896 66.912ZM352.6 79.136H351.176V74.304H345.608V73.136H358.232V74.304H352.6V79.136ZM370.284 78.928H360.988V74.208H370.284V78.928ZM368.86 77.792V75.344H362.396V77.792H368.86ZM370.284 73.472H368.86V65.136H370.284V73.472ZM367.292 71.328L367.468 72.464C366.166 72.7093 364.23 72.8533 361.66 72.896C361.436 72.896 361.084 72.9013 360.604 72.912C360.124 72.912 359.761 72.912 359.516 72.912V68.768H364.588V67.072H359.452V65.904H366.012V69.856H360.924V71.744C364.06 71.744 366.182 71.6053 367.292 71.328ZM383.807 78.768H374.351V74.352H375.775V77.616H383.807V78.768ZM382.063 70.608H379.151V69.44H382.063V65.136H383.488V75.296H382.063V70.608ZM372.767 66.24H379.039C378.975 68.1067 378.389 69.6853 377.279 70.976C376.181 72.2667 374.693 73.184 372.815 73.728L372.095 72.576C373.546 72.2133 374.757 71.568 375.727 70.64C376.698 69.712 377.285 68.6347 377.487 67.408H372.767V66.24ZM395.267 69.008H392.547V67.84H395.267V65.136H396.691V72.32H395.267V69.008ZM393.331 70.88L392.531 71.968C391.859 71.7013 391.23 71.312 390.643 70.8C390.067 70.2773 389.625 69.68 389.315 69.008C389.102 69.7013 388.691 70.352 388.083 70.96C387.475 71.5573 386.766 72.032 385.955 72.384L385.107 71.328C386.121 70.9227 386.947 70.3307 387.587 69.552C388.238 68.7627 388.563 67.8453 388.563 66.8V65.648H390.003V66.736C390.003 67.7707 390.334 68.6507 390.995 69.376C391.667 70.0907 392.446 70.592 393.331 70.88ZM397.187 79.024H387.619V75.488H395.267V74.208H387.523V73.072H396.691V76.544H389.027V77.856H397.187V79.024ZM413.794 79.12H412.434V72.08H410.994V78.432H409.634V65.44H410.994V70.912H412.434V65.136H413.794V79.12ZM408.658 73.12C408.658 73.9627 408.375 74.6347 407.81 75.136C407.245 75.6267 406.503 75.872 405.586 75.872C404.679 75.872 403.938 75.616 403.362 75.104C402.786 74.5813 402.498 73.92 402.498 73.12C402.498 72.288 402.781 71.6267 403.346 71.136C403.922 70.6347 404.669 70.384 405.586 70.384C406.503 70.384 407.245 70.6347 407.81 71.136C408.375 71.6267 408.658 72.288 408.658 73.12ZM406.802 74.272C407.133 73.9627 407.298 73.5787 407.298 73.12C407.298 72.6613 407.133 72.2827 406.802 71.984C406.482 71.6853 406.077 71.536 405.586 71.536C405.085 71.536 404.669 71.6907 404.338 72C404.018 72.2987 403.858 72.672 403.858 73.12C403.858 73.5893 404.018 73.9787 404.338 74.288C404.658 74.5867 405.074 74.736 405.586 74.736C406.077 74.736 406.482 74.5813 406.802 74.272ZM408.946 69.744H402.018V68.576H408.946V69.744ZM407.33 67.344H403.57V66.192H407.33V67.344ZM424.614 75.808C423.27 75.968 421.723 76.0907 419.974 76.176C418.331 76.2613 416.811 76.304 415.414 76.304L415.206 75.088C416.849 75.088 418.123 75.0773 419.03 75.056V72.816C418.113 72.6987 417.361 72.3413 416.774 71.744C416.198 71.1467 415.91 70.416 415.91 69.552C415.91 68.56 416.273 67.7387 416.998 67.088C417.723 66.4373 418.63 66.112 419.718 66.112C420.817 66.112 421.729 66.432 422.454 67.072C423.19 67.7013 423.558 68.528 423.558 69.552C423.558 70.416 423.27 71.1413 422.694 71.728C422.118 72.3147 421.371 72.6773 420.454 72.816V74.992C422.321 74.9173 423.665 74.816 424.486 74.688L424.614 75.808ZM426.758 79.12H425.35V65.136H426.758V79.12ZM422.086 69.536C422.086 68.8747 421.857 68.3467 421.398 67.952C420.95 67.5573 420.39 67.36 419.718 67.36C419.057 67.36 418.497 67.568 418.038 67.984C417.579 68.3893 417.35 68.9067 417.35 69.536C417.35 70.1547 417.574 70.6613 418.022 71.056C418.481 71.44 419.046 71.632 419.718 71.632C420.369 71.632 420.923 71.44 421.382 71.056C421.851 70.6613 422.086 70.1547 422.086 69.536ZM441.37 71.872H439.194V79.12H437.786V65.136H439.194V70.704H441.37V71.872ZM436.634 74.656L435.786 75.712C435.103 75.264 434.426 74.6453 433.754 73.856C433.082 73.0667 432.623 72.2933 432.378 71.536C432.143 72.3787 431.706 73.2107 431.066 74.032C430.436 74.8533 429.722 75.5307 428.922 76.064L428.042 75.008C429.119 74.336 429.988 73.4293 430.65 72.288C431.311 71.1467 431.642 69.9413 431.642 68.672V66.336H433.098V68.608C433.098 69.8667 433.428 71.0293 434.09 72.096C434.751 73.1627 435.599 74.016 436.634 74.656ZM451.645 69.584H449.421V68.432H451.645V65.136H453.069V72.608H451.645V69.584ZM453.069 78.944H444.077V73.376H445.485V75.04H451.645V73.344H453.069V78.944ZM451.645 77.808V76.16H445.485V77.808H451.645ZM442.749 66.72C443.432 66.112 444.28 65.808 445.293 65.808C446.307 65.808 447.149 66.112 447.821 66.72C448.504 67.3173 448.845 68.096 448.845 69.056C448.845 70.016 448.504 70.7893 447.821 71.376C447.149 71.952 446.307 72.24 445.293 72.24C444.28 72.24 443.432 71.952 442.749 71.376C442.077 70.7893 441.741 70.0213 441.741 69.072C441.741 68.112 442.077 67.328 442.749 66.72ZM445.293 67.008C444.675 67.008 444.163 67.1947 443.757 67.568C443.352 67.9413 443.149 68.432 443.149 69.04C443.149 69.648 443.352 70.1333 443.757 70.496C444.163 70.8587 444.675 71.04 445.293 71.04C445.912 71.04 446.419 70.8587 446.813 70.496C447.208 70.1333 447.405 69.6533 447.405 69.056C447.405 68.4373 447.208 67.9413 446.813 67.568C446.429 67.1947 445.923 67.008 445.293 67.008ZM465.873 71.84H456.321V65.664H457.745V67.648H464.465V65.664H465.873V71.84ZM461.793 79.136H460.369V74.592H454.801V73.424H467.425V74.592H461.793V79.136ZM464.465 70.704V68.8H457.745V70.704H464.465Z" fill="#666666"/>
</svg>
