<svg width="640" height="212" viewBox="0 0 640 212" fill="none" xmlns="http://www.w3.org/2000/svg">
<rect x="0.5" y="0.5" width="639" height="211" stroke="#DDDDDD"/>
<rect width="225" height="212" fill="#3D638F"/>
<path d="M46.776 47.944H34.992V50.656H47.496V51.976H33.456V42.808H47.208V44.128H34.992V46.696H46.776V47.944ZM41.112 62.368H39.576V55.696H30.912V54.376H49.848V55.696H41.112V62.368ZM62.9336 56.56L61.9736 57.736C60.8536 56.968 59.7896 55.992 58.7816 54.808C57.7736 53.624 57.0776 52.416 56.6936 51.184C55.9576 53.744 54.1976 56.096 51.4136 58.24L50.3816 57.088C51.9176 56.16 53.2216 54.84 54.2936 53.128C55.3656 51.416 55.9016 49.688 55.9016 47.944V45.232H51.1496V43.912H62.2376V45.232H57.4856V47.896C57.4856 49.672 58.0136 51.352 59.0696 52.936C60.1416 54.504 61.4296 55.712 62.9336 56.56ZM70.3016 51.664H66.7496V62.68H65.2136V41.704H66.7496V50.344H70.3016V51.664ZM85.2353 43.504C86.4833 44.176 87.1073 45.168 87.1073 46.48C87.1073 47.792 86.4833 48.784 85.2353 49.456C83.9873 50.128 82.2273 50.464 79.9553 50.464C77.6993 50.464 75.9553 50.128 74.7233 49.456C73.4913 48.784 72.8753 47.792 72.8753 46.48C72.8753 45.168 73.4913 44.176 74.7233 43.504C75.9713 42.832 77.7233 42.496 79.9793 42.496C82.2513 42.496 84.0033 42.832 85.2353 43.504ZM79.9793 43.84C78.2513 43.84 76.8993 44.064 75.9233 44.512C74.9473 44.944 74.4593 45.6 74.4593 46.48C74.4593 47.36 74.9393 48.024 75.8993 48.472C76.8753 48.92 78.2273 49.144 79.9553 49.144C81.6993 49.144 83.0673 48.92 84.0593 48.472C85.0673 48.024 85.5713 47.36 85.5713 46.48C85.5713 45.6 85.0753 44.944 84.0833 44.512C83.0913 44.064 81.7233 43.84 79.9793 43.84ZM80.7953 58.168H79.2593V53.848H70.5233V52.528H89.4593V53.848H80.7953V58.168ZM87.1313 61.96H73.0433V56.2H74.5793V60.664H87.1313V61.96ZM106.913 46.024C106.913 47.512 106.033 48.568 104.273 49.192V52.576H109.265V53.896H90.3289V52.576H95.2729V49.168C93.5129 48.544 92.6329 47.496 92.6329 46.024C92.6329 44.792 93.2569 43.856 94.5049 43.216C95.7689 42.56 97.5289 42.232 99.7849 42.232C102.041 42.232 103.793 42.56 105.041 43.216C106.289 43.856 106.913 44.792 106.913 46.024ZM107.009 58.888C107.009 60.072 106.369 60.976 105.089 61.6C103.809 62.24 102.041 62.56 99.7849 62.56C97.5289 62.56 95.7689 62.24 94.5049 61.6C93.2409 60.976 92.6089 60.072 92.6089 58.888C92.6089 57.72 93.2409 56.824 94.5049 56.2C95.7689 55.56 97.5289 55.24 99.7849 55.24C102.041 55.24 103.809 55.56 105.089 56.2C106.369 56.824 107.009 57.72 107.009 58.888ZM103.889 47.896C104.881 47.48 105.377 46.856 105.377 46.024C105.377 45.192 104.881 44.568 103.889 44.152C102.897 43.736 101.529 43.528 99.7849 43.528C98.0569 43.528 96.6969 43.736 95.7049 44.152C94.7289 44.568 94.2409 45.192 94.2409 46.024C94.2409 46.856 94.7289 47.48 95.7049 47.896C96.6969 48.312 98.0569 48.52 99.7849 48.52C101.529 48.52 102.897 48.312 103.889 47.896ZM99.7849 56.536C98.0569 56.536 96.6889 56.736 95.6809 57.136C94.6889 57.52 94.1929 58.104 94.1929 58.888C94.1929 59.672 94.6889 60.264 95.6809 60.664C96.6889 61.064 98.0569 61.264 99.7849 61.264C101.545 61.264 102.921 61.072 103.913 60.688C104.905 60.288 105.401 59.688 105.401 58.888C105.401 58.104 104.897 57.52 103.889 57.136C102.897 56.736 101.529 56.536 99.7849 56.536ZM99.7849 49.84C98.7289 49.84 97.7369 49.752 96.8089 49.576V52.576H102.737V49.6C101.889 49.76 100.905 49.84 99.7849 49.84ZM127.247 62.368H113.687V54.88H127.247V62.368ZM125.711 61.072V56.2H115.223V61.072H125.711ZM123.311 52.336C120.847 52.784 116.847 52.976 111.311 52.912V43.12H121.079V44.44H112.847V47.272H120.815V48.544H112.847V51.616C117.327 51.696 120.743 51.504 123.095 51.04L123.311 52.336ZM127.223 41.704V53.776H125.687V41.704H127.223ZM151.725 51.64H137.805V42.568H139.341V45.784H150.189V42.568H151.725V51.64ZM145.485 62.704H143.949V55.552H135.285V54.256H154.221V55.552H145.485V62.704ZM150.189 50.32V47.104H139.341V50.32H150.189ZM171.434 58.72C171.434 59.936 170.81 60.896 169.562 61.6C168.314 62.304 166.602 62.656 164.426 62.656C162.25 62.656 160.538 62.304 159.29 61.6C158.058 60.912 157.442 59.952 157.442 58.72C157.442 57.488 158.058 56.52 159.29 55.816C160.538 55.112 162.25 54.76 164.426 54.76C166.602 54.76 168.314 55.112 169.562 55.816C170.81 56.52 171.434 57.488 171.434 58.72ZM164.426 56.08C162.762 56.08 161.442 56.312 160.466 56.776C159.506 57.224 159.026 57.872 159.026 58.72C159.026 59.552 159.506 60.2 160.466 60.664C161.442 61.112 162.762 61.336 164.426 61.336C166.106 61.336 167.426 61.112 168.386 60.664C169.362 60.2 169.85 59.552 169.85 58.72C169.85 57.872 169.362 57.224 168.386 56.776C167.426 56.312 166.106 56.08 164.426 56.08ZM155.402 44.632V43.336H166.37V44.632H161.666V45.808C161.666 47.136 162.178 48.384 163.202 49.552C164.242 50.704 165.434 51.504 166.778 51.952L165.938 53.224C164.866 52.792 163.858 52.128 162.914 51.232C161.97 50.32 161.282 49.384 160.85 48.424C160.594 49.384 159.938 50.384 158.882 51.424C157.842 52.448 156.73 53.232 155.546 53.776L154.682 52.6C156.09 52.04 157.346 51.112 158.45 49.816C159.57 48.504 160.13 47.168 160.13 45.808V44.632H155.402ZM174.458 49.072H171.146V54.472H169.61V41.704H171.146V47.752H174.458V49.072Z" fill="white"/>
<path d="M54.832 76.016V104.528H50.544V76.016H54.832ZM32.784 85.488V82.128H47.984V85.488H42.864C43.184 86.5333 43.9413 87.4507 45.136 88.24C46.352 89.0293 47.6533 89.52 49.04 89.712L47.312 93.072C46.0107 92.8587 44.6667 92.3573 43.28 91.568C41.9147 90.7787 41.008 89.904 40.56 88.944C40.0053 90.0107 39.0773 90.96 37.776 91.792C36.4747 92.624 35.1307 93.1787 33.744 93.456L31.888 90.128C33.5947 89.744 35.0133 89.1573 36.144 88.368C37.296 87.5787 37.9893 86.6187 38.224 85.488H32.784ZM49.776 98.352C44.272 99.12 38.2347 99.504 31.664 99.504C31.472 98.3947 31.2907 97.2 31.12 95.92C33.7867 95.92 36.2827 95.888 38.608 95.824V91.728H42.832V95.632C45.392 95.4827 47.6 95.28 49.456 95.024L49.776 98.352ZM36.304 80.848V77.52H44.624V80.848H36.304ZM80.4715 83.632C80.4715 85.5733 79.5542 87.1307 77.7195 88.304C75.8848 89.4773 73.3888 90.064 70.2315 90.064C67.0955 90.064 64.5995 89.4773 62.7435 88.304C60.8875 87.1307 59.9595 85.5733 59.9595 83.632C59.9595 81.7333 60.8875 80.208 62.7435 79.056C64.6208 77.8827 67.1168 77.296 70.2315 77.296C73.3675 77.296 75.8528 77.8827 77.6875 79.056C79.5435 80.208 80.4715 81.7333 80.4715 83.632ZM72.3435 104.56H68.1515V95.28H57.3675V91.952H83.1275V95.28H72.3435V104.56ZM76.0235 83.632C76.0235 82.7787 75.4902 82.064 74.4235 81.488C73.3782 80.912 71.9808 80.624 70.2315 80.624C68.4822 80.624 67.0742 80.912 66.0075 81.488C64.9408 82.064 64.4075 82.7787 64.4075 83.632C64.4075 84.528 64.9302 85.2747 65.9755 85.872C67.0422 86.448 68.4608 86.736 70.2315 86.736C72.0022 86.736 73.4102 86.448 74.4555 85.872C75.5008 85.2747 76.0235 84.528 76.0235 83.632ZM108.255 104.304H88.351V96.368H103.167V94.992H88.415V91.664H107.455V99.408H92.607V100.976H108.255V104.304ZM107.455 90.576H103.167V76.016H107.455V90.576ZM84.575 83.632C84.575 81.6693 85.311 80.08 86.783 78.864C88.255 77.6267 90.0897 77.008 92.287 77.008C94.5057 77.008 96.3617 77.6267 97.855 78.864C99.3483 80.1013 100.095 81.6907 100.095 83.632C100.095 85.552 99.3483 87.1413 97.855 88.4C96.3617 89.6373 94.5057 90.256 92.287 90.256C90.0683 90.256 88.223 89.6373 86.751 88.4C85.3003 87.1413 84.575 85.552 84.575 83.632ZM88.703 83.632C88.703 84.6133 89.0337 85.4027 89.695 86C90.3777 86.5973 91.2417 86.896 92.287 86.896C93.3323 86.896 94.1963 86.5973 94.879 86C95.583 85.4027 95.935 84.6133 95.935 83.632C95.935 82.6507 95.583 81.8613 94.879 81.264C94.1963 80.6453 93.3323 80.336 92.287 80.336C91.2417 80.336 90.3777 80.6347 89.695 81.232C89.0337 81.8293 88.703 82.6293 88.703 83.632Z" fill="white"/>
<path d="M277.368 52.368C277.368 53.2533 276.936 53.9573 276.072 54.48C275.208 55.0027 274.008 55.264 272.472 55.264C270.947 55.264 269.757 55.0027 268.904 54.48C268.051 53.9573 267.624 53.2533 267.624 52.368C267.624 51.472 268.051 50.768 268.904 50.256C269.757 49.7333 270.947 49.472 272.472 49.472C274.008 49.472 275.208 49.7333 276.072 50.256C276.936 50.768 277.368 51.472 277.368 52.368ZM277.272 49.28H275.4V47.728H272.792V46.304H275.4V44.896H272.984V43.424H275.4V41.008H277.272V49.28ZM274.664 53.392C275.176 53.1467 275.432 52.8053 275.432 52.368C275.432 51.9307 275.171 51.5893 274.648 51.344C274.136 51.088 273.411 50.96 272.472 50.96C271.565 50.96 270.856 51.088 270.344 51.344C269.832 51.5893 269.576 51.9307 269.576 52.368C269.576 52.8053 269.827 53.1467 270.328 53.392C270.84 53.6373 271.555 53.76 272.472 53.76C273.421 53.76 274.152 53.6373 274.664 53.392ZM272.776 41.936C272.627 45.6373 270.52 48.1227 266.456 49.392L265.464 47.888C266.787 47.5893 267.928 47.0613 268.888 46.304C269.848 45.5467 270.451 44.608 270.696 43.488H266.152V41.936H272.776ZM317.948 47.552L318.188 48.976C317.078 49.232 315.361 49.36 313.036 49.36C312.833 49.36 312.524 49.36 312.108 49.36C311.702 49.3493 311.398 49.344 311.196 49.344V44.784H315.596V43.44H311.196V41.952H317.468V46.192H313.084V47.888C315.494 47.888 317.116 47.776 317.948 47.552ZM322.46 49.776H320.604V47.584H318.476V46.08H320.604V44.592H318.476V43.072H320.604V41.008H322.46V49.776ZM312.764 50.496H322.476V55.28H320.604V51.984H312.764V50.496Z" fill="#222222"/>
<path d="M274.088 110.592L273.048 111.952C272.376 111.621 271.688 111.061 270.984 110.272C270.28 109.483 269.827 108.752 269.624 108.08C269.443 108.837 269.021 109.627 268.36 110.448C267.709 111.259 266.979 111.861 266.168 112.256L265.016 110.864C267.427 109.541 268.632 107.381 268.632 104.384V104H265.752V102.464H273.352V104H270.568V104.368C270.568 107.227 271.741 109.301 274.088 110.592ZM276.632 101.008V106.496H278.664V108.048H276.632V115.264H274.76V101.008H276.632ZM290.476 109.264H288.604V107.84H285.98V106.304H288.604V104.944H286.188V103.408H288.604V101.008H290.476V109.264ZM290.492 115.28H288.604V111.488H280.828V110H290.492V115.28ZM285.98 101.856C285.841 105.536 283.734 108.021 279.66 109.312L278.684 107.808C280.006 107.52 281.148 106.997 282.108 106.24C283.068 105.483 283.67 104.539 283.916 103.408H279.372V101.856H285.98ZM306.587 101.008V106.496H308.635V108.032H306.587V115.264H304.731V101.008H306.587ZM304.027 110.464C303.899 110.624 303.712 110.859 303.467 111.168C303.232 111.477 303.051 111.707 302.923 111.856C302.272 111.44 301.616 110.853 300.955 110.096C300.293 109.339 299.851 108.597 299.627 107.872C299.392 108.672 298.955 109.477 298.315 110.288C297.675 111.088 296.987 111.707 296.251 112.144C295.728 111.504 295.344 111.051 295.099 110.784C297.456 109.269 298.635 107.061 298.635 104.16V102.208H300.571V104.064C300.571 105.451 300.869 106.688 301.467 107.776C302.075 108.864 302.928 109.76 304.027 110.464ZM321.678 106.64H319.806V110.288H317.934V101.008H319.806V105.104H321.678V106.64ZM319.918 112.848C319.918 113.616 319.486 114.213 318.622 114.64C317.769 115.077 316.58 115.296 315.054 115.296C313.529 115.296 312.334 115.077 311.47 114.64C310.617 114.213 310.19 113.616 310.19 112.848C310.19 112.069 310.617 111.467 311.47 111.04C312.334 110.603 313.529 110.384 315.054 110.384C316.58 110.384 317.769 110.603 318.622 111.04C319.486 111.467 319.918 112.069 319.918 112.848ZM317.214 112.096C316.692 111.904 315.972 111.808 315.054 111.808C314.137 111.808 313.412 111.904 312.878 112.096C312.356 112.288 312.094 112.539 312.094 112.848C312.094 113.157 312.356 113.408 312.878 113.6C313.412 113.792 314.137 113.888 315.054 113.888C315.972 113.888 316.692 113.792 317.214 113.6C317.748 113.408 318.014 113.157 318.014 112.848C318.014 112.539 317.748 112.288 317.214 112.096ZM316.862 104.88H308.59V103.424H316.862V104.88ZM310.654 102.816V101.344H314.878V102.816H310.654ZM315.182 105.952C315.822 106.4 316.142 106.987 316.142 107.712C316.142 108.437 315.822 109.024 315.182 109.472C314.553 109.92 313.748 110.144 312.766 110.144C311.774 110.144 310.953 109.92 310.302 109.472C309.652 109.024 309.326 108.437 309.326 107.712C309.326 106.987 309.652 106.4 310.302 105.952C310.953 105.493 311.774 105.264 312.766 105.264C313.748 105.264 314.553 105.493 315.182 105.952ZM311.662 106.96C311.364 107.152 311.214 107.403 311.214 107.712C311.214 108.021 311.364 108.272 311.662 108.464C311.961 108.656 312.329 108.752 312.766 108.752C313.182 108.752 313.54 108.656 313.838 108.464C314.148 108.261 314.302 108.011 314.302 107.712C314.302 107.403 314.153 107.152 313.854 106.96C313.556 106.757 313.193 106.656 312.766 106.656C312.329 106.656 311.961 106.757 311.662 106.96Z" fill="#222222"/>
<path d="M357.144 55.12H355.72V47.248H352.6V46.048H355.72V41.136H357.144V55.12ZM354.024 50.736L353.176 51.792C352.493 51.344 351.816 50.7253 351.144 49.936C350.472 49.1467 350.013 48.368 349.768 47.6C349.533 48.4427 349.096 49.28 348.456 50.112C347.827 50.9333 347.117 51.6053 346.328 52.128L345.432 51.088C346.509 50.416 347.379 49.5093 348.04 48.368C348.701 47.2267 349.032 46.0213 349.032 44.752V42.336H350.488V44.688C350.488 45.9467 350.819 47.1093 351.48 48.176C352.141 49.2427 352.989 50.096 354.024 50.736ZM370.428 55.024H360.284V51.728H368.492V50.704H360.252V49.552H364.38V48.24H358.812V47.088H371.436V48.24H365.804V49.552H369.9V52.784H361.692V53.856H370.428V55.024ZM370.124 43.888C370.124 44.6773 369.686 45.2853 368.812 45.712C367.937 46.1387 366.71 46.352 365.132 46.352C363.574 46.352 362.353 46.1387 361.468 45.712C360.593 45.2853 360.156 44.6773 360.156 43.888C360.156 43.1093 360.593 42.5067 361.468 42.08C362.353 41.6427 363.574 41.424 365.132 41.424C366.7 41.424 367.921 41.6427 368.796 42.08C369.681 42.5067 370.124 43.1093 370.124 43.888ZM365.132 42.544C364.065 42.544 363.217 42.6667 362.588 42.912C361.958 43.1573 361.644 43.4827 361.644 43.888C361.644 44.304 361.958 44.6347 362.588 44.88C363.217 45.1253 364.065 45.248 365.132 45.248C366.209 45.248 367.062 45.1253 367.692 44.88C368.332 44.6347 368.652 44.304 368.652 43.888C368.652 43.4827 368.332 43.1573 367.692 42.912C367.062 42.6667 366.209 42.544 365.132 42.544ZM384.08 46.624L383.439 47.76C382.384 47.5893 381.349 47.216 380.335 46.64C379.333 46.064 378.661 45.456 378.319 44.816C378.01 45.4773 377.365 46.1013 376.383 46.688C375.413 47.264 374.373 47.6373 373.263 47.808L372.591 46.688C373.775 46.56 374.879 46.176 375.903 45.536C376.927 44.8853 377.487 44.1387 377.583 43.296H373.183V42.128H383.503V43.296H379.087C379.194 44.128 379.765 44.864 380.799 45.504C381.845 46.1333 382.938 46.5067 384.08 46.624ZM379.007 55.12H377.583V50.224H372.015V49.072H384.639V50.224H379.007V55.12ZM397.027 49.504H395.667V45.856H394.067V49.392H392.723V41.392H394.067V44.704H395.667V41.136H397.027V49.504ZM387.507 50.16H397.027V55.12H395.619V51.328H387.507V50.16ZM387.219 47.568H387.507C389.438 47.568 390.894 47.456 391.875 47.232L392.051 48.368C390.921 48.6133 389.385 48.736 387.443 48.736H385.811V42.128H391.283V43.296H387.219V44.816H391.075V45.936H387.219V47.568ZM411.047 53.344H398.423V52.192H403.991V48.912H399.927V42.272H409.559V43.424H401.335V47.76H409.639V48.912H405.415V52.192H411.047V53.344ZM423.195 55.12H421.787V41.136H423.195V55.12ZM420.123 50.704L419.275 51.76C418.571 51.2693 417.888 50.6453 417.227 49.888C416.576 49.12 416.133 48.3573 415.899 47.6C415.653 48.4533 415.216 49.2907 414.587 50.112C413.957 50.9333 413.243 51.6053 412.443 52.128L411.563 51.088C412.629 50.4053 413.493 49.4987 414.155 48.368C414.816 47.2267 415.147 46.0213 415.147 44.752V42.368H416.619V44.688C416.619 45.9467 416.949 47.12 417.611 48.208C418.272 49.2853 419.109 50.1173 420.123 50.704ZM435.919 52.48C435.919 53.2907 435.497 53.9253 434.655 54.384C433.812 54.8533 432.623 55.088 431.087 55.088C429.54 55.088 428.34 54.8533 427.487 54.384C426.633 53.9253 426.207 53.2907 426.207 52.48C426.207 51.6587 426.628 51.0187 427.471 50.56C428.324 50.0907 429.529 49.856 431.087 49.856C432.633 49.856 433.823 50.0907 434.655 50.56C435.497 51.0187 435.919 51.6587 435.919 52.48ZM437.455 48.816H424.831V47.664H429.983V44.752H431.391V47.664H437.455V48.816ZM433.567 53.568C434.175 53.312 434.479 52.9493 434.479 52.48C434.479 52.0107 434.175 51.648 433.567 51.392C432.959 51.136 432.132 51.008 431.087 51.008C430.031 51.008 429.193 51.136 428.575 51.392C427.967 51.648 427.663 52.0107 427.663 52.48C427.663 52.9493 427.967 53.312 428.575 53.568C429.183 53.824 430.02 53.952 431.087 53.952C432.132 53.952 432.959 53.824 433.567 53.568ZM435.951 41.872C435.951 42.0533 435.945 42.2933 435.935 42.592C435.935 42.8907 435.935 43.1147 435.935 43.264C435.903 44.672 435.769 45.8613 435.535 46.832C435.236 46.8 434.777 46.7413 434.159 46.656C434.404 45.7173 434.527 44.5067 434.527 43.024H426.351V41.872H435.951ZM451.01 47.872H448.834V55.12H447.426V41.136H448.834V46.704H451.01V47.872ZM446.274 50.656L445.426 51.712C444.744 51.264 444.066 50.6453 443.394 49.856C442.722 49.0667 442.264 48.2933 442.018 47.536C441.784 48.3787 441.346 49.2107 440.706 50.032C440.077 50.8533 439.362 51.5307 438.562 52.064L437.682 51.008C438.76 50.336 439.629 49.4293 440.29 48.288C440.952 47.1467 441.282 45.9413 441.282 44.672V42.336H442.738V44.608C442.738 45.8667 443.069 47.0293 443.73 48.096C444.392 49.1627 445.24 50.016 446.274 50.656ZM465.825 54.928H456.401V49.936H465.825V54.928ZM465.761 41.968C465.761 43.9307 465.612 45.6427 465.313 47.104H467.425V48.256H454.801V47.104H463.921C464.188 45.952 464.321 44.6187 464.321 43.104H456.449V41.968H465.761ZM464.401 53.808V51.072H457.825V53.808H464.401ZM479.253 52.544C479.253 53.3547 478.816 53.984 477.941 54.432C477.077 54.88 475.872 55.104 474.325 55.104C472.789 55.104 471.589 54.88 470.725 54.432C469.861 53.984 469.429 53.3547 469.429 52.544C469.429 51.616 469.989 50.928 471.109 50.48V48.592H468.005V47.44H480.629V48.592H477.509V50.464C478.672 50.9013 479.253 51.5947 479.253 52.544ZM479.125 44.112C479.125 44.9227 478.698 45.5627 477.845 46.032C477.002 46.5013 475.824 46.736 474.309 46.736C472.794 46.736 471.616 46.5013 470.773 46.032C469.93 45.5627 469.509 44.9227 469.509 44.112C469.509 43.312 469.93 42.6827 470.773 42.224C471.626 41.7547 472.805 41.52 474.309 41.52C475.824 41.52 477.002 41.7547 477.845 42.224C478.698 42.6827 479.125 43.312 479.125 44.112ZM477.685 44.112C477.685 43.6533 477.381 43.2907 476.773 43.024C476.176 42.7573 475.354 42.624 474.309 42.624C473.274 42.624 472.458 42.7573 471.861 43.024C471.264 43.2907 470.965 43.6533 470.965 44.112C470.965 44.592 471.258 44.9653 471.845 45.232C472.442 45.488 473.264 45.616 474.309 45.616C475.344 45.616 476.165 45.4827 476.773 45.216C477.381 44.9493 477.685 44.5813 477.685 44.112ZM474.325 51.152C473.269 51.152 472.432 51.2693 471.813 51.504C471.205 51.7387 470.901 52.0907 470.901 52.56C470.901 53.0187 471.205 53.3707 471.813 53.616C472.432 53.8507 473.269 53.968 474.325 53.968C475.392 53.968 476.234 53.8507 476.853 53.616C477.472 53.3707 477.781 53.0187 477.781 52.56C477.781 52.0907 477.472 51.7387 476.853 51.504C476.234 51.2693 475.392 51.152 474.325 51.152ZM472.533 48.592V50.112C473.098 50.0267 473.696 49.984 474.325 49.984C474.88 49.984 475.466 50.0213 476.085 50.096V48.592H472.533ZM494.185 47.872H492.009V55.12H490.601V41.136H492.009V46.704H494.185V47.872ZM489.449 50.656L488.601 51.712C487.918 51.264 487.241 50.6453 486.569 49.856C485.897 49.0667 485.438 48.2933 485.193 47.536C484.958 48.3787 484.521 49.2107 483.881 50.032C483.251 50.8533 482.537 51.5307 481.737 52.064L480.857 51.008C481.934 50.336 482.803 49.4293 483.465 48.288C484.126 47.1467 484.457 45.9413 484.457 44.672V42.336H485.913V44.608C485.913 45.8667 486.243 47.0293 486.905 48.096C487.566 49.1627 488.414 50.016 489.449 50.656ZM504.46 45.584H502.236V44.432H504.46V41.136H505.884V48.608H504.46V45.584ZM505.884 54.944H496.892V49.376H498.3V51.04H504.46V49.344H505.884V54.944ZM504.46 53.808V52.16H498.3V53.808H504.46ZM495.564 42.72C496.247 42.112 497.095 41.808 498.108 41.808C499.122 41.808 499.964 42.112 500.636 42.72C501.319 43.3173 501.66 44.096 501.66 45.056C501.66 46.016 501.319 46.7893 500.636 47.376C499.964 47.952 499.122 48.24 498.108 48.24C497.095 48.24 496.247 47.952 495.564 47.376C494.892 46.7893 494.556 46.0213 494.556 45.072C494.556 44.112 494.892 43.328 495.564 42.72ZM498.108 43.008C497.49 43.008 496.978 43.1947 496.572 43.568C496.167 43.9413 495.964 44.432 495.964 45.04C495.964 45.648 496.167 46.1333 496.572 46.496C496.978 46.8587 497.49 47.04 498.108 47.04C498.727 47.04 499.234 46.8587 499.628 46.496C500.023 46.1333 500.22 45.6533 500.22 45.056C500.22 44.4373 500.023 43.9413 499.628 43.568C499.244 43.1947 498.738 43.008 498.108 43.008ZM518.688 47.84H509.136V41.664H510.56V43.648H517.28V41.664H518.688V47.84ZM514.608 55.136H513.184V50.592H507.616V49.424H520.24V50.592H514.608V55.136ZM517.28 46.704V44.8H510.56V46.704H517.28ZM357.144 79.12H355.72V71.248H352.6V70.048H355.72V65.136H357.144V79.12ZM354.024 74.736L353.176 75.792C352.493 75.344 351.816 74.7253 351.144 73.936C350.472 73.1467 350.013 72.368 349.768 71.6C349.533 72.4427 349.096 73.28 348.456 74.112C347.827 74.9333 347.117 75.6053 346.328 76.128L345.432 75.088C346.509 74.416 347.379 73.5093 348.04 72.368C348.701 71.2267 349.032 70.0213 349.032 68.752V66.336H350.488V68.688C350.488 69.9467 350.819 71.1093 351.48 72.176C352.141 73.2427 352.989 74.096 354.024 74.736ZM370.428 79.024H360.284V75.728H368.492V74.704H360.252V73.552H364.38V72.24H358.812V71.088H371.436V72.24H365.804V73.552H369.9V76.784H361.692V77.856H370.428V79.024ZM370.124 67.888C370.124 68.6773 369.686 69.2853 368.812 69.712C367.937 70.1387 366.71 70.352 365.132 70.352C363.574 70.352 362.353 70.1387 361.468 69.712C360.593 69.2853 360.156 68.6773 360.156 67.888C360.156 67.1093 360.593 66.5067 361.468 66.08C362.353 65.6427 363.574 65.424 365.132 65.424C366.7 65.424 367.921 65.6427 368.796 66.08C369.681 66.5067 370.124 67.1093 370.124 67.888ZM365.132 66.544C364.065 66.544 363.217 66.6667 362.588 66.912C361.958 67.1573 361.644 67.4827 361.644 67.888C361.644 68.304 361.958 68.6347 362.588 68.88C363.217 69.1253 364.065 69.248 365.132 69.248C366.209 69.248 367.062 69.1253 367.692 68.88C368.332 68.6347 368.652 68.304 368.652 67.888C368.652 67.4827 368.332 67.1573 367.692 66.912C367.062 66.6667 366.209 66.544 365.132 66.544ZM384.08 70.624L383.439 71.76C382.384 71.5893 381.349 71.216 380.335 70.64C379.333 70.064 378.661 69.456 378.319 68.816C378.01 69.4773 377.365 70.1013 376.383 70.688C375.413 71.264 374.373 71.6373 373.263 71.808L372.591 70.688C373.775 70.56 374.879 70.176 375.903 69.536C376.927 68.8853 377.487 68.1387 377.583 67.296H373.183V66.128H383.503V67.296H379.087C379.194 68.128 379.765 68.864 380.799 69.504C381.845 70.1333 382.938 70.5067 384.08 70.624ZM379.007 79.12H377.583V74.224H372.015V73.072H384.639V74.224H379.007V79.12ZM397.027 73.504H395.667V69.856H394.067V73.392H392.723V65.392H394.067V68.704H395.667V65.136H397.027V73.504ZM387.507 74.16H397.027V79.12H395.619V75.328H387.507V74.16ZM387.219 71.568H387.507C389.438 71.568 390.894 71.456 391.875 71.232L392.051 72.368C390.921 72.6133 389.385 72.736 387.443 72.736H385.811V66.128H391.283V67.296H387.219V68.816H391.075V69.936H387.219V71.568ZM411.047 77.344H398.423V76.192H403.991V72.912H399.927V66.272H409.559V67.424H401.335V71.76H409.639V72.912H405.415V76.192H411.047V77.344ZM423.195 79.12H421.787V65.136H423.195V79.12ZM420.123 74.704L419.275 75.76C418.571 75.2693 417.888 74.6453 417.227 73.888C416.576 73.12 416.133 72.3573 415.899 71.6C415.653 72.4533 415.216 73.2907 414.587 74.112C413.957 74.9333 413.243 75.6053 412.443 76.128L411.563 75.088C412.629 74.4053 413.493 73.4987 414.155 72.368C414.816 71.2267 415.147 70.0213 415.147 68.752V66.368H416.619V68.688C416.619 69.9467 416.949 71.12 417.611 72.208C418.272 73.2853 419.109 74.1173 420.123 74.704ZM435.919 76.48C435.919 77.2907 435.497 77.9253 434.655 78.384C433.812 78.8533 432.623 79.088 431.087 79.088C429.54 79.088 428.34 78.8533 427.487 78.384C426.633 77.9253 426.207 77.2907 426.207 76.48C426.207 75.6587 426.628 75.0187 427.471 74.56C428.324 74.0907 429.529 73.856 431.087 73.856C432.633 73.856 433.823 74.0907 434.655 74.56C435.497 75.0187 435.919 75.6587 435.919 76.48ZM437.455 72.816H424.831V71.664H429.983V68.752H431.391V71.664H437.455V72.816ZM433.567 77.568C434.175 77.312 434.479 76.9493 434.479 76.48C434.479 76.0107 434.175 75.648 433.567 75.392C432.959 75.136 432.132 75.008 431.087 75.008C430.031 75.008 429.193 75.136 428.575 75.392C427.967 75.648 427.663 76.0107 427.663 76.48C427.663 76.9493 427.967 77.312 428.575 77.568C429.183 77.824 430.02 77.952 431.087 77.952C432.132 77.952 432.959 77.824 433.567 77.568ZM435.951 65.872C435.951 66.0533 435.945 66.2933 435.935 66.592C435.935 66.8907 435.935 67.1147 435.935 67.264C435.903 68.672 435.769 69.8613 435.535 70.832C435.236 70.8 434.777 70.7413 434.159 70.656C434.404 69.7173 434.527 68.5067 434.527 67.024H426.351V65.872H435.951ZM451.01 71.872H448.834V79.12H447.426V65.136H448.834V70.704H451.01V71.872ZM446.274 74.656L445.426 75.712C444.744 75.264 444.066 74.6453 443.394 73.856C442.722 73.0667 442.264 72.2933 442.018 71.536C441.784 72.3787 441.346 73.2107 440.706 74.032C440.077 74.8533 439.362 75.5307 438.562 76.064L437.682 75.008C438.76 74.336 439.629 73.4293 440.29 72.288C440.952 71.1467 441.282 69.9413 441.282 68.672V66.336H442.738V68.608C442.738 69.8667 443.069 71.0293 443.73 72.096C444.392 73.1627 445.24 74.016 446.274 74.656ZM466.593 78.768H457.137V74.352H458.561V77.616H466.593V78.768ZM464.849 70.608H461.937V69.44H464.849V65.136H466.273V75.296H464.849V70.608ZM455.553 66.24H461.825C461.761 68.1067 461.174 69.6853 460.065 70.976C458.966 72.2667 457.478 73.184 455.601 73.728L454.881 72.576C456.332 72.2133 457.542 71.568 458.513 70.64C459.484 69.712 460.07 68.6347 460.273 67.408H455.553V66.24ZM469.445 74.72H473.573V73.44H468.005V72.288H480.629V73.44H474.997V74.72H479.013V79.184H477.589V75.872H469.445V74.72ZM480.005 70.432L479.413 71.6C478.346 71.4827 477.322 71.2053 476.341 70.768C475.36 70.3307 474.682 69.8187 474.309 69.232C473.946 69.8507 473.29 70.3733 472.341 70.8C471.402 71.216 470.368 71.4773 469.237 71.584L468.613 70.432C469.786 70.3787 470.848 70.1493 471.797 69.744C472.757 69.3387 473.338 68.832 473.541 68.224H469.301V67.088H479.317V68.224H475.109C475.322 68.8213 475.92 69.328 476.901 69.744C477.882 70.1493 478.917 70.3787 480.005 70.432ZM476.565 66.288H472.037V65.136H476.565V66.288ZM492.297 76.48C492.297 77.2907 491.875 77.9253 491.033 78.384C490.19 78.8533 489.001 79.088 487.465 79.088C485.918 79.088 484.718 78.8533 483.865 78.384C483.011 77.9253 482.585 77.2907 482.585 76.48C482.585 75.6587 483.006 75.0187 483.849 74.56C484.702 74.0907 485.907 73.856 487.465 73.856C489.011 73.856 490.201 74.0907 491.033 74.56C491.875 75.0187 492.297 75.6587 492.297 76.48ZM493.833 72.816H481.209V71.664H486.361V68.752H487.769V71.664H493.833V72.816ZM489.945 77.568C490.553 77.312 490.857 76.9493 490.857 76.48C490.857 76.0107 490.553 75.648 489.945 75.392C489.337 75.136 488.51 75.008 487.465 75.008C486.409 75.008 485.571 75.136 484.953 75.392C484.345 75.648 484.041 76.0107 484.041 76.48C484.041 76.9493 484.345 77.312 484.953 77.568C485.561 77.824 486.398 77.952 487.465 77.952C488.51 77.952 489.337 77.824 489.945 77.568ZM492.329 65.872C492.329 66.0533 492.323 66.2933 492.313 66.592C492.313 66.8907 492.313 67.1147 492.313 67.264C492.281 68.672 492.147 69.8613 491.913 70.832C491.614 70.8 491.155 70.7413 490.537 70.656C490.782 69.7173 490.905 68.5067 490.905 67.024H482.729V65.872H492.329ZM507.388 71.872H505.212V79.12H503.804V65.136H505.212V70.704H507.388V71.872ZM502.652 74.656L501.804 75.712C501.122 75.264 500.444 74.6453 499.772 73.856C499.1 73.0667 498.642 72.2933 498.396 71.536C498.162 72.3787 497.724 73.2107 497.084 74.032C496.455 74.8533 495.74 75.5307 494.94 76.064L494.06 75.008C495.138 74.336 496.007 73.4293 496.668 72.288C497.33 71.1467 497.66 69.9413 497.66 68.672V66.336H499.116V68.608C499.116 69.8667 499.447 71.0293 500.108 72.096C500.77 73.1627 501.618 74.016 502.652 74.656ZM518.688 71.84H509.136V65.664H510.56V67.648H517.28V65.664H518.688V71.84ZM514.608 79.136H513.184V74.592H507.616V73.424H520.24V74.592H514.608V79.136ZM517.28 70.704V68.8H510.56V70.704H517.28Z" fill="#666666"/>
<path d="M357.4 114.768H347.944V110.352H349.368V113.616H357.4V114.768ZM355.656 106.608H352.744V105.44H355.656V101.136H357.08V111.296H355.656V106.608ZM346.36 102.24H352.632C352.568 104.107 351.981 105.685 350.872 106.976C349.773 108.267 348.285 109.184 346.408 109.728L345.688 108.576C347.139 108.213 348.349 107.568 349.32 106.64C350.291 105.712 350.877 104.635 351.08 103.408H346.36V102.24ZM360.252 110.72H364.38V109.44H358.812V108.288H371.436V109.44H365.804V110.72H369.82V115.184H368.396V111.872H360.252V110.72ZM370.812 106.432L370.22 107.6C369.153 107.483 368.129 107.205 367.148 106.768C366.166 106.331 365.489 105.819 365.116 105.232C364.753 105.851 364.097 106.373 363.148 106.8C362.209 107.216 361.174 107.477 360.044 107.584L359.42 106.432C360.593 106.379 361.654 106.149 362.604 105.744C363.564 105.339 364.145 104.832 364.348 104.224H360.108V103.088H370.124V104.224H365.916C366.129 104.821 366.726 105.328 367.708 105.744C368.689 106.149 369.724 106.379 370.812 106.432ZM367.372 102.288H362.844V101.136H367.372V102.288ZM383.488 115.12H382.063V101.136H383.488V115.12ZM379.391 102.624C379.349 104.768 378.751 106.667 377.599 108.32C376.458 109.963 374.89 111.328 372.895 112.416L372.031 111.344C373.685 110.555 375.034 109.483 376.079 108.128C377.135 106.763 377.727 105.328 377.855 103.824H372.655V102.624H379.391ZM398.195 107.872H396.019V115.12H394.611V101.136H396.019V106.704H398.195V107.872ZM393.459 110.656L392.611 111.712C391.929 111.264 391.251 110.645 390.579 109.856C389.907 109.067 389.449 108.293 389.203 107.536C388.969 108.379 388.531 109.211 387.891 110.032C387.262 110.853 386.547 111.531 385.747 112.064L384.867 111.008C385.945 110.336 386.814 109.429 387.475 108.288C388.137 107.147 388.467 105.941 388.467 104.672V102.336H389.923V104.608C389.923 105.867 390.254 107.029 390.915 108.096C391.577 109.163 392.425 110.016 393.459 110.656ZM357.4 138.768H347.944V134.352H349.368V137.616H357.4V138.768ZM355.656 130.608H352.744V129.44H355.656V125.136H357.08V135.296H355.656V130.608ZM346.36 126.24H352.632C352.568 128.107 351.981 129.685 350.872 130.976C349.773 132.267 348.285 133.184 346.408 133.728L345.688 132.576C347.139 132.213 348.349 131.568 349.32 130.64C350.291 129.712 350.877 128.635 351.08 127.408H346.36V126.24ZM368.86 129.008H366.14V127.84H368.86V125.136H370.284V132.32H368.86V129.008ZM366.924 130.88L366.124 131.968C365.452 131.701 364.822 131.312 364.236 130.8C363.66 130.277 363.217 129.68 362.908 129.008C362.694 129.701 362.284 130.352 361.676 130.96C361.068 131.557 360.358 132.032 359.548 132.384L358.7 131.328C359.713 130.923 360.54 130.331 361.18 129.552C361.83 128.763 362.156 127.845 362.156 126.8V125.648H363.596V126.736C363.596 127.771 363.926 128.651 364.588 129.376C365.26 130.091 366.038 130.592 366.924 130.88ZM370.78 139.024H361.212V135.488H368.86V134.208H361.116V133.072H370.284V136.544H362.62V137.856H370.78V139.024ZM384.911 130.4H382.816V135.296H381.407V125.136H382.816V129.216H384.911V130.4ZM383.28 138.672H373.967V134.288H375.375V137.52H383.28V138.672ZM373.263 127.152C373.978 126.48 374.874 126.144 375.951 126.144C377.029 126.144 377.919 126.48 378.623 127.152C379.338 127.813 379.695 128.656 379.695 129.68C379.695 130.704 379.343 131.536 378.639 132.176C377.935 132.816 377.045 133.136 375.967 133.136C374.869 133.136 373.967 132.816 373.263 132.176C372.559 131.536 372.207 130.709 372.207 129.696C372.207 128.661 372.559 127.813 373.263 127.152ZM375.951 127.344C375.279 127.344 374.73 127.563 374.303 128C373.877 128.437 373.663 128.992 373.663 129.664C373.663 130.336 373.877 130.885 374.303 131.312C374.73 131.728 375.285 131.936 375.967 131.936C376.65 131.936 377.199 131.728 377.615 131.312C378.031 130.896 378.239 130.352 378.239 129.68C378.239 128.997 378.031 128.437 377.615 128C377.199 127.563 376.645 127.344 375.951 127.344ZM385.603 127.504V126.336H393.139V127.504H390.131V128.16C390.131 129.099 390.462 129.963 391.123 130.752C391.785 131.531 392.542 132.048 393.395 132.304L392.611 133.44C391.982 133.184 391.363 132.773 390.755 132.208C390.158 131.632 389.715 131.029 389.427 130.4C389.203 131.072 388.761 131.739 388.099 132.4C387.449 133.061 386.755 133.541 386.019 133.84L385.187 132.72C386.126 132.379 386.942 131.776 387.635 130.912C388.339 130.048 388.691 129.141 388.691 128.192V127.504H385.603ZM396.691 135.344H395.267V130.096H392.579V128.944H395.267V125.136H396.691V135.344ZM396.995 138.688H387.491V134.352H388.899V137.536H396.995V138.688ZM409.895 139.12H408.471V125.136H409.895V139.12ZM405.799 126.624C405.756 128.768 405.159 130.667 404.007 132.32C402.866 133.963 401.298 135.328 399.303 136.416L398.439 135.344C400.092 134.555 401.442 133.483 402.487 132.128C403.543 130.763 404.135 129.328 404.263 127.824H399.063V126.624H405.799ZM424.603 131.872H422.427V139.12H421.019V125.136H422.427V130.704H424.603V131.872ZM419.867 134.656L419.019 135.712C418.336 135.264 417.659 134.645 416.987 133.856C416.315 133.067 415.856 132.293 415.611 131.536C415.376 132.379 414.939 133.211 414.299 134.032C413.669 134.853 412.955 135.531 412.155 136.064L411.275 135.008C412.352 134.336 413.221 133.429 413.883 132.288C414.544 131.147 414.875 129.941 414.875 128.672V126.336H416.331V128.608C416.331 129.867 416.661 131.029 417.323 132.096C417.984 133.163 418.832 134.016 419.867 134.656ZM357.4 162.768H347.944V158.352H349.368V161.616H357.4V162.768ZM355.656 154.608H352.744V153.44H355.656V149.136H357.08V159.296H355.656V154.608ZM346.36 150.24H352.632C352.568 152.107 351.981 153.685 350.872 154.976C349.773 156.267 348.285 157.184 346.408 157.728L345.688 156.576C347.139 156.213 348.349 155.568 349.32 154.64C350.291 153.712 350.877 152.635 351.08 151.408H346.36V150.24ZM360.252 158.72H364.38V157.44H358.812V156.288H371.436V157.44H365.804V158.72H369.82V163.184H368.396V159.872H360.252V158.72ZM370.812 154.432L370.22 155.6C369.153 155.483 368.129 155.205 367.148 154.768C366.166 154.331 365.489 153.819 365.116 153.232C364.753 153.851 364.097 154.373 363.148 154.8C362.209 155.216 361.174 155.477 360.044 155.584L359.42 154.432C360.593 154.379 361.654 154.149 362.604 153.744C363.564 153.339 364.145 152.832 364.348 152.224H360.108V151.088H370.124V152.224H365.916C366.129 152.821 366.726 153.328 367.708 153.744C368.689 154.149 369.724 154.379 370.812 154.432ZM367.372 150.288H362.844V149.136H367.372V150.288ZM383.583 163.12H382.175V149.136H383.583V163.12ZM380.511 158.704L379.663 159.76C378.959 159.269 378.277 158.645 377.615 157.888C376.965 157.12 376.522 156.357 376.287 155.6C376.042 156.453 375.605 157.291 374.975 158.112C374.346 158.933 373.631 159.605 372.831 160.128L371.951 159.088C373.018 158.405 373.882 157.499 374.543 156.368C375.205 155.227 375.535 154.021 375.535 152.752V150.368H377.007V152.688C377.007 153.947 377.338 155.12 377.999 156.208C378.661 157.285 379.498 158.117 380.511 158.704ZM396.307 160.48C396.307 161.291 395.886 161.925 395.043 162.384C394.201 162.853 393.011 163.088 391.475 163.088C389.929 163.088 388.729 162.853 387.875 162.384C387.022 161.925 386.595 161.291 386.595 160.48C386.595 159.659 387.017 159.019 387.859 158.56C388.713 158.091 389.918 157.856 391.475 157.856C393.022 157.856 394.211 158.091 395.043 158.56C395.886 159.019 396.307 159.659 396.307 160.48ZM397.843 156.816H385.219V155.664H390.371V152.752H391.779V155.664H397.843V156.816ZM393.955 161.568C394.563 161.312 394.867 160.949 394.867 160.48C394.867 160.011 394.563 159.648 393.955 159.392C393.347 159.136 392.521 159.008 391.475 159.008C390.419 159.008 389.582 159.136 388.963 159.392C388.355 159.648 388.051 160.011 388.051 160.48C388.051 160.949 388.355 161.312 388.963 161.568C389.571 161.824 390.409 161.952 391.475 161.952C392.521 161.952 393.347 161.824 393.955 161.568ZM396.339 149.872C396.339 150.053 396.334 150.293 396.323 150.592C396.323 150.891 396.323 151.115 396.323 151.264C396.291 152.672 396.158 153.861 395.923 154.832C395.625 154.8 395.166 154.741 394.547 154.656C394.793 153.717 394.915 152.507 394.915 151.024H386.739V149.872H396.339ZM409.895 163.12H408.471V149.136H409.895V163.12ZM405.799 150.624C405.756 152.768 405.159 154.667 404.007 156.32C402.866 157.963 401.298 159.328 399.303 160.416L398.439 159.344C400.092 158.555 401.442 157.483 402.487 156.128C403.543 154.763 404.135 153.328 404.263 151.824H399.063V150.624H405.799ZM423.227 163.008H413.083V159.776H421.307V158.8H413.035V157.568H417.195V156.224H411.627V155.088H424.251V156.224H418.619V157.568H422.715V160.832H414.491V161.84H423.227V163.008ZM423.627 153.216L422.971 154.32C421.872 154.128 420.837 153.749 419.867 153.184C418.907 152.608 418.261 151.984 417.931 151.312C417.653 152.005 417.04 152.629 416.091 153.184C415.152 153.739 414.096 154.117 412.923 154.32L412.315 153.216C413.125 153.131 413.893 152.939 414.619 152.64C415.344 152.331 415.957 151.915 416.459 151.392C416.96 150.869 417.211 150.293 417.211 149.664V149.344H418.683V149.664C418.683 150.283 418.955 150.864 419.499 151.408C420.053 151.952 420.699 152.379 421.435 152.688C422.181 152.987 422.912 153.163 423.627 153.216ZM437.807 155.872H435.631V163.12H434.223V149.136H435.631V154.704H437.807V155.872ZM433.071 158.656L432.223 159.712C431.54 159.264 430.863 158.645 430.191 157.856C429.519 157.067 429.06 156.293 428.815 155.536C428.58 156.379 428.143 157.211 427.503 158.032C426.873 158.853 426.159 159.531 425.359 160.064L424.479 159.008C425.556 158.336 426.425 157.429 427.087 156.288C427.748 155.147 428.079 153.941 428.079 152.672V150.336H429.535V152.608C429.535 153.867 429.865 155.029 430.527 156.096C431.188 157.163 432.036 158.016 433.071 158.656Z" fill="#666666"/>
</svg>
