<svg width="640" height="212" viewBox="0 0 640 212" fill="none" xmlns="http://www.w3.org/2000/svg">
<rect x="0.5" y="0.5" width="639" height="211" stroke="#DDDDDD"/>
<rect width="225" height="212" fill="#3D638F"/>
<path d="M50.448 51.592H46.944V62.68H45.408V41.704H46.944V50.272H50.448V51.592ZM43.248 56.32L42.216 57.544C41.112 56.76 40.04 55.768 39 54.568C37.96 53.352 37.248 52.136 36.864 50.92C36.496 52.216 35.832 53.488 34.872 54.736C33.928 55.968 32.8 57.088 31.488 58.096L30.432 56.896C31.968 55.952 33.288 54.608 34.392 52.864C35.512 51.12 36.072 49.376 36.072 47.632V43.672H37.656V47.608C37.656 49.384 38.208 51.072 39.312 52.672C40.416 54.256 41.728 55.472 43.248 56.32ZM66.2696 48.088H62.4296V46.792H66.2696V41.704H67.8056V52.912H66.2696V48.088ZM67.8056 62.392H54.5816V54.088H56.1176V56.968H66.2696V54.016H67.8056V62.392ZM66.2696 61.12V58.24H56.1176V61.12H66.2696ZM56.2616 42.76C57.7176 42.76 58.9496 43.2 59.9576 44.08C60.9816 44.96 61.4936 46.104 61.4936 47.512C61.4936 48.92 60.9816 50.064 59.9576 50.944C58.9496 51.824 57.7256 52.264 56.2856 52.264C54.8136 52.264 53.5736 51.832 52.5656 50.968C51.5576 50.088 51.0536 48.944 51.0536 47.536C51.0536 46.112 51.5496 44.96 52.5416 44.08C53.5496 43.2 54.7896 42.76 56.2616 42.76ZM56.2616 44.152C55.2056 44.152 54.3256 44.464 53.6216 45.088C52.9336 45.696 52.5896 46.504 52.5896 47.512C52.5896 48.504 52.9416 49.32 53.6456 49.96C54.3496 50.584 55.2296 50.896 56.2856 50.896C57.3896 50.896 58.2776 50.584 58.9496 49.96C59.6216 49.336 59.9576 48.528 59.9576 47.536C59.9576 46.528 59.6136 45.712 58.9256 45.088C58.2536 44.464 57.3656 44.152 56.2616 44.152ZM89.8193 49.888H86.5553V57.496H85.0193V41.704H86.5553V48.592H89.8193V49.888ZM87.4673 62.176H73.5473V56.104H75.0593V60.856H87.4673V62.176ZM83.6033 53.44C81.5073 53.76 79.2353 53.968 76.7873 54.064C74.8193 54.176 72.7313 54.232 70.5233 54.232L70.2353 52.84C72.3633 52.84 73.9313 52.824 74.9393 52.792V48.04H76.4753V52.744C79.4993 52.632 81.8113 52.44 83.4113 52.168L83.6033 53.44ZM81.8993 43.384C81.8993 46.52 81.6753 48.92 81.2273 50.584L79.7393 50.344C80.1233 48.952 80.3153 47.064 80.3153 44.68H71.6273V43.384H81.8993ZM103.841 56.872C100.561 57.336 96.4729 57.568 91.5769 57.568V49.696H99.5929V44.992H91.4809V43.672H101.129V50.992H93.1129V56.248C97.4649 56.28 100.977 56.04 103.649 55.528L103.841 56.872ZM107.393 62.68H105.857V41.704H107.393V62.68ZM127.247 62.368H113.687V54.88H127.247V62.368ZM125.711 61.072V56.2H115.223V61.072H125.711ZM123.311 52.336C120.847 52.784 116.847 52.976 111.311 52.912V43.12H121.079V44.44H112.847V47.272H120.815V48.544H112.847V51.616C117.327 51.696 120.743 51.504 123.095 51.04L123.311 52.336ZM127.223 41.704V53.776H125.687V41.704H127.223ZM152.949 62.68H151.413V51.496H148.293V61.576H146.781V42.232H148.293V50.2H151.413V41.704H152.949V62.68ZM145.413 56.584C142.581 57.048 139.469 57.248 136.077 57.184V44.344H143.949V45.664H137.613V55.816C140.365 55.864 142.893 55.656 145.197 55.192L145.413 56.584ZM168.602 56.872C165.322 57.336 161.234 57.568 156.338 57.568V49.696H164.354V44.992H156.242V43.672H165.89V50.992H157.874V56.248C162.226 56.28 165.738 56.04 168.41 55.528L168.602 56.872ZM172.154 62.68H170.618V41.704H172.154V62.68Z" fill="white"/>
<path d="M54.672 104.208H35.696V93.104H54.672V104.208ZM50.416 100.944V96.272H39.984V100.944H50.416ZM54.704 91.696H50.416V76.016H54.704V91.696ZM46.096 77.648C45.9467 81.488 44.72 84.656 42.416 87.152C40.112 89.648 36.8907 91.4933 32.752 92.688L31.088 89.264C33.712 88.7307 36.0053 87.6853 37.968 86.128C39.9307 84.5707 41.0507 82.9067 41.328 81.136H32.528V77.648H46.096ZM60.1195 82.128C60.1195 80.528 61.0262 79.2267 62.8395 78.224C64.6742 77.2 67.1382 76.688 70.2315 76.688C73.3248 76.688 75.7888 77.2 77.6235 78.224C79.4795 79.2267 80.4075 80.528 80.4075 82.128C80.4075 83.856 79.3302 85.2427 77.1755 86.288V89.328H83.1275V92.656H57.3675V89.328H63.1275V86.16C61.1222 85.1787 60.1195 83.8347 60.1195 82.128ZM80.1835 99.088C80.1835 100.709 79.2875 102 77.4955 102.96C75.7248 103.941 73.3142 104.432 70.2635 104.432C67.1702 104.432 64.7382 103.941 62.9675 102.96C61.1968 102 60.3115 100.709 60.3115 99.088C60.3115 97.4453 61.1862 96.144 62.9355 95.184C64.7062 94.2027 67.1275 93.712 70.1995 93.712C73.2928 93.712 75.7248 94.2027 77.4955 95.184C79.2875 96.144 80.1835 97.4453 80.1835 99.088ZM64.5675 82.16C64.5675 82.864 65.0688 83.4293 66.0715 83.856C67.0955 84.2613 68.4822 84.464 70.2315 84.464C72.0022 84.464 73.3995 84.2613 74.4235 83.856C75.4475 83.4293 75.9595 82.864 75.9595 82.16C75.9595 81.4773 75.4368 80.9227 74.3915 80.496C73.3675 80.0693 71.9808 79.856 70.2315 79.856C68.5035 79.856 67.1275 80.0693 66.1035 80.496C65.0795 80.9227 64.5675 81.4773 64.5675 82.16ZM75.8315 99.152C75.8315 98.4907 75.3195 97.9787 74.2955 97.616C73.2928 97.232 71.9275 97.04 70.1995 97.04C68.5142 97.04 67.1702 97.232 66.1675 97.616C65.1648 97.9787 64.6635 98.4907 64.6635 99.152C64.6635 99.728 65.1755 100.208 66.1995 100.592C67.2235 100.976 68.5568 101.168 70.1995 101.168C71.8848 101.168 73.2395 100.976 74.2635 100.592C75.3088 100.208 75.8315 99.728 75.8315 99.152ZM70.2315 87.568C69.2075 87.568 68.2688 87.504 67.4155 87.376V89.328H72.9515V87.408C72.2688 87.5147 71.3622 87.568 70.2315 87.568ZM96.031 80.24H88.095V77.04H96.031V80.24ZM99.167 84.656H84.191V81.392H99.167V84.656ZM108.063 104.048H88.063V96.496H92.351V100.72H108.063V104.048ZM107.423 97.424H103.167V92.656H99.647V89.264H103.167V86.672H99.839V83.28H103.167V76.016H107.423V97.424ZM96.575 86.608C97.8337 87.6107 98.463 88.8587 98.463 90.352C98.463 91.8453 97.8337 93.0933 96.575 94.096C95.3377 95.0987 93.7483 95.6 91.807 95.6C89.8657 95.6 88.2763 95.0987 87.039 94.096C85.8017 93.0933 85.183 91.8453 85.183 90.352C85.183 88.8373 85.8017 87.5893 87.039 86.608C88.2763 85.6053 89.8657 85.104 91.807 85.104C93.7483 85.104 95.3377 85.6053 96.575 86.608ZM94.527 90.32C94.527 89.744 94.2603 89.232 93.727 88.784C93.215 88.336 92.575 88.112 91.807 88.112C91.039 88.112 90.399 88.336 89.887 88.784C89.3963 89.232 89.151 89.744 89.151 90.32C89.151 90.9387 89.3963 91.4613 89.887 91.888C90.3777 92.3147 91.0177 92.528 91.807 92.528C92.5963 92.528 93.247 92.3147 93.759 91.888C94.271 91.44 94.527 90.9173 94.527 90.32Z" fill="white"/>
<path d="M277.368 52.368C277.368 53.2533 276.936 53.9573 276.072 54.48C275.208 55.0027 274.008 55.264 272.472 55.264C270.947 55.264 269.757 55.0027 268.904 54.48C268.051 53.9573 267.624 53.2533 267.624 52.368C267.624 51.472 268.051 50.768 268.904 50.256C269.757 49.7333 270.947 49.472 272.472 49.472C274.008 49.472 275.208 49.7333 276.072 50.256C276.936 50.768 277.368 51.472 277.368 52.368ZM277.272 49.28H275.4V47.728H272.792V46.304H275.4V44.896H272.984V43.424H275.4V41.008H277.272V49.28ZM274.664 53.392C275.176 53.1467 275.432 52.8053 275.432 52.368C275.432 51.9307 275.171 51.5893 274.648 51.344C274.136 51.088 273.411 50.96 272.472 50.96C271.565 50.96 270.856 51.088 270.344 51.344C269.832 51.5893 269.576 51.9307 269.576 52.368C269.576 52.8053 269.827 53.1467 270.328 53.392C270.84 53.6373 271.555 53.76 272.472 53.76C273.421 53.76 274.152 53.6373 274.664 53.392ZM272.776 41.936C272.627 45.6373 270.52 48.1227 266.456 49.392L265.464 47.888C266.787 47.5893 267.928 47.0613 268.888 46.304C269.848 45.5467 270.451 44.608 270.696 43.488H266.152V41.936H272.776ZM317.948 47.552L318.188 48.976C317.078 49.232 315.361 49.36 313.036 49.36C312.833 49.36 312.524 49.36 312.108 49.36C311.702 49.3493 311.398 49.344 311.196 49.344V44.784H315.596V43.44H311.196V41.952H317.468V46.192H313.084V47.888C315.494 47.888 317.116 47.776 317.948 47.552ZM322.46 49.776H320.604V47.584H318.476V46.08H320.604V44.592H318.476V43.072H320.604V41.008H322.46V49.776ZM312.764 50.496H322.476V55.28H320.604V51.984H312.764V50.496Z" fill="#222222"/>
<path d="M274.088 110.592L273.048 111.952C272.376 111.621 271.688 111.061 270.984 110.272C270.28 109.483 269.827 108.752 269.624 108.08C269.443 108.837 269.021 109.627 268.36 110.448C267.709 111.259 266.979 111.861 266.168 112.256L265.016 110.864C267.427 109.541 268.632 107.381 268.632 104.384V104H265.752V102.464H273.352V104H270.568V104.368C270.568 107.227 271.741 109.301 274.088 110.592ZM276.632 101.008V106.496H278.664V108.048H276.632V115.264H274.76V101.008H276.632ZM290.476 109.264H288.604V107.84H285.98V106.304H288.604V104.944H286.188V103.408H288.604V101.008H290.476V109.264ZM290.492 115.28H288.604V111.488H280.828V110H290.492V115.28ZM285.98 101.856C285.841 105.536 283.734 108.021 279.66 109.312L278.684 107.808C280.006 107.52 281.148 106.997 282.108 106.24C283.068 105.483 283.67 104.539 283.916 103.408H279.372V101.856H285.98ZM306.587 101.008V106.496H308.635V108.032H306.587V115.264H304.731V101.008H306.587ZM304.027 110.464C303.899 110.624 303.712 110.859 303.467 111.168C303.232 111.477 303.051 111.707 302.923 111.856C302.272 111.44 301.616 110.853 300.955 110.096C300.293 109.339 299.851 108.597 299.627 107.872C299.392 108.672 298.955 109.477 298.315 110.288C297.675 111.088 296.987 111.707 296.251 112.144C295.728 111.504 295.344 111.051 295.099 110.784C297.456 109.269 298.635 107.061 298.635 104.16V102.208H300.571V104.064C300.571 105.451 300.869 106.688 301.467 107.776C302.075 108.864 302.928 109.76 304.027 110.464ZM321.678 106.64H319.806V110.288H317.934V101.008H319.806V105.104H321.678V106.64ZM319.918 112.848C319.918 113.616 319.486 114.213 318.622 114.64C317.769 115.077 316.58 115.296 315.054 115.296C313.529 115.296 312.334 115.077 311.47 114.64C310.617 114.213 310.19 113.616 310.19 112.848C310.19 112.069 310.617 111.467 311.47 111.04C312.334 110.603 313.529 110.384 315.054 110.384C316.58 110.384 317.769 110.603 318.622 111.04C319.486 111.467 319.918 112.069 319.918 112.848ZM317.214 112.096C316.692 111.904 315.972 111.808 315.054 111.808C314.137 111.808 313.412 111.904 312.878 112.096C312.356 112.288 312.094 112.539 312.094 112.848C312.094 113.157 312.356 113.408 312.878 113.6C313.412 113.792 314.137 113.888 315.054 113.888C315.972 113.888 316.692 113.792 317.214 113.6C317.748 113.408 318.014 113.157 318.014 112.848C318.014 112.539 317.748 112.288 317.214 112.096ZM316.862 104.88H308.59V103.424H316.862V104.88ZM310.654 102.816V101.344H314.878V102.816H310.654ZM315.182 105.952C315.822 106.4 316.142 106.987 316.142 107.712C316.142 108.437 315.822 109.024 315.182 109.472C314.553 109.92 313.748 110.144 312.766 110.144C311.774 110.144 310.953 109.92 310.302 109.472C309.652 109.024 309.326 108.437 309.326 107.712C309.326 106.987 309.652 106.4 310.302 105.952C310.953 105.493 311.774 105.264 312.766 105.264C313.748 105.264 314.553 105.493 315.182 105.952ZM311.662 106.96C311.364 107.152 311.214 107.403 311.214 107.712C311.214 108.021 311.364 108.272 311.662 108.464C311.961 108.656 312.329 108.752 312.766 108.752C313.182 108.752 313.54 108.656 313.838 108.464C314.148 108.261 314.302 108.011 314.302 107.712C314.302 107.403 314.153 107.152 313.854 106.96C313.556 106.757 313.193 106.656 312.766 106.656C312.329 106.656 311.961 106.757 311.662 106.96Z" fill="#222222"/>
<path d="M357.416 55.12H356.056V47.664H354.392V54.432H353.032V41.44H354.392V46.512H356.056V41.136H357.416V55.12ZM347.448 50.416H347.704C349.571 50.416 351.059 50.2933 352.168 50.048L352.36 51.216C351.144 51.472 349.485 51.6 347.384 51.6H346.04V42.864H351.496V44.016H347.448V50.416ZM370.588 54.688H361.196V50.976H362.604V53.552H370.588V54.688ZM366.668 46.256V45.136H368.86V41.136H370.284V51.472H368.86V49.072H366.668V47.936H368.86V46.256H366.668ZM364.844 42.72H360.796V41.568H364.844V42.72ZM366.508 44.832H358.844V43.696H366.508V44.832ZM365.164 46.096C365.782 46.544 366.092 47.1253 366.092 47.84C366.092 48.5547 365.782 49.1413 365.164 49.6C364.545 50.048 363.766 50.272 362.828 50.272C361.878 50.272 361.094 50.048 360.476 49.6C359.868 49.152 359.564 48.5653 359.564 47.84C359.564 47.1147 359.868 46.5333 360.476 46.096C361.094 45.648 361.878 45.424 362.828 45.424C363.766 45.424 364.545 45.648 365.164 46.096ZM364.684 47.84C364.684 47.456 364.502 47.1413 364.14 46.896C363.777 46.6507 363.34 46.528 362.828 46.528C362.316 46.528 361.873 46.6507 361.5 46.896C361.137 47.1413 360.956 47.456 360.956 47.84C360.956 48.2133 361.137 48.528 361.5 48.784C361.873 49.04 362.316 49.168 362.828 49.168C363.329 49.168 363.761 49.04 364.124 48.784C364.497 48.528 364.684 48.2133 364.684 47.84ZM381.439 52.448C380.095 52.608 378.506 52.7413 376.671 52.848C374.367 52.944 372.901 52.992 372.271 52.992L372.031 51.808C373.247 51.808 374.543 51.776 375.919 51.712V50.432C375.119 50.3253 374.479 50.064 373.999 49.648C373.519 49.232 373.279 48.72 373.279 48.112C373.279 47.408 373.594 46.8427 374.223 46.416C374.853 45.9787 375.663 45.76 376.655 45.76C377.669 45.76 378.485 45.9733 379.103 46.4C379.733 46.8267 380.047 47.3973 380.047 48.112C380.047 48.7307 379.797 49.2533 379.295 49.68C378.805 50.096 378.149 50.352 377.327 50.448V51.632C379.002 51.5573 380.33 51.456 381.311 51.328L381.439 52.448ZM383.583 55.12H382.175V41.136H383.583V55.12ZM380.863 45.04H372.527V43.904H380.863V45.04ZM378.031 48.992C378.394 48.7573 378.575 48.464 378.575 48.112C378.575 47.76 378.394 47.4667 378.031 47.232C377.669 46.9973 377.21 46.88 376.655 46.88C376.111 46.88 375.658 46.9973 375.295 47.232C374.943 47.4667 374.767 47.76 374.767 48.112C374.767 48.464 374.943 48.7573 375.295 48.992C375.658 49.2267 376.111 49.344 376.655 49.344C377.21 49.344 377.669 49.2267 378.031 48.992ZM378.607 42.944H374.559V41.808H378.607V42.944ZM394.339 54.432H392.995V49.6H390.883V48.448H392.995V46.096H391.203V44.944H392.995V41.456H394.339V54.432ZM397.027 55.12H395.667V41.136H397.027V55.12ZM391.091 42.816C391.07 44.8853 390.638 46.688 389.795 48.224C388.953 49.7493 387.667 51.088 385.939 52.24L384.979 51.2C386.387 50.3787 387.491 49.3387 388.291 48.08C389.091 46.8107 389.555 45.4453 389.683 43.984H385.587V42.816H391.091ZM408.471 45.536H406.215V44.336H408.471V41.136H409.895V48.752H408.471V45.536ZM409.911 54.944H400.887V49.472H402.311V51.072H408.471V49.424H409.911V54.944ZM408.471 53.808V52.176H402.311V53.808H408.471ZM405.479 48.4H398.983V41.936H400.407V44H404.071V41.92H405.479V48.4ZM404.071 47.248V45.136H400.407V47.248H404.071ZM423.099 51.296H421.675V41.136H423.099V51.296ZM423.419 54.688H413.899V50.336H415.323V53.552H423.419V54.688ZM413.003 43.088C413.707 42.416 414.597 42.08 415.675 42.08C416.752 42.08 417.643 42.4107 418.347 43.072C419.061 43.7333 419.419 44.5653 419.419 45.568C419.419 46.5707 419.067 47.392 418.363 48.032C417.659 48.6613 416.763 48.976 415.675 48.976C414.597 48.976 413.707 48.6613 413.003 48.032C412.299 47.392 411.947 46.576 411.947 45.584C411.947 44.5813 412.299 43.7493 413.003 43.088ZM415.675 43.296C415.024 43.296 414.485 43.5093 414.059 43.936C413.643 44.3627 413.435 44.9013 413.435 45.552C413.435 46.192 413.643 46.7253 414.059 47.152C414.485 47.5787 415.024 47.792 415.675 47.792C416.357 47.792 416.901 47.584 417.307 47.168C417.712 46.752 417.915 46.2187 417.915 45.568C417.915 44.896 417.712 44.352 417.307 43.936C416.901 43.5093 416.357 43.296 415.675 43.296ZM345.96 67.632V66.48H352.136V67.632H349.8V68.288C349.8 69.2267 350.072 70.0587 350.616 70.784C351.171 71.4987 351.821 71.9947 352.568 72.272L351.784 73.344C351.304 73.1307 350.797 72.7573 350.264 72.224C349.731 71.68 349.352 71.152 349.128 70.64C348.968 71.2053 348.632 71.7813 348.12 72.368C347.608 72.944 347.037 73.3973 346.408 73.728L345.544 72.672C346.387 72.288 347.075 71.7013 347.608 70.912C348.152 70.112 348.424 69.2427 348.424 68.304V67.632H345.96ZM357.784 78.704H348.168V74.336H349.592V77.568H357.784V78.704ZM354.76 75.168H353.4V70.128H351.448V68.976H353.4V65.424H354.76V75.168ZM357.416 75.536H356.056V65.136H357.416V75.536ZM371.052 72.224L370.284 73.344C369.185 73.0347 368.129 72.4907 367.116 71.712C366.113 70.9333 365.446 70.1547 365.116 69.376C364.838 70.1653 364.193 70.9493 363.18 71.728C362.166 72.496 361.089 73.0293 359.948 73.328L359.228 72.176C360.017 72.0373 360.801 71.744 361.58 71.296C362.358 70.848 363.02 70.272 363.564 69.568C364.118 68.864 364.396 68.1387 364.396 67.392V66.304H365.852V67.392C365.852 68.128 366.14 68.8533 366.716 69.568C367.292 70.2827 367.969 70.8693 368.748 71.328C369.537 71.776 370.305 72.0747 371.052 72.224ZM371.436 77.232H358.812V76.08H371.436V77.232ZM373.935 74.656C376.89 74.656 379.013 74.5013 380.304 74.192L380.431 75.344C378.97 75.6427 376.773 75.808 373.839 75.84H372.527V66.432H379.215V67.568H373.935V70.384H378.863V71.536H373.935V74.656ZM382.816 65.136V70.592H384.991V71.776H382.816V79.12H381.407V65.136H382.816Z" fill="#666666"/>
<path d="M356.472 105.552H348.52V107.072H356.76V108.208H347.112V101.936H356.664V103.088H348.52V104.416H356.472V105.552ZM352.6 115.04H351.176V110.752H345.608V109.584H358.232V110.752H352.6V115.04ZM367.052 110.816L366.22 111.856C365.516 111.451 364.828 110.859 364.156 110.08C363.484 109.301 363.041 108.539 362.828 107.792C362.614 108.592 362.182 109.403 361.532 110.224C360.892 111.035 360.156 111.696 359.324 112.208L358.412 111.168C359.51 110.539 360.396 109.664 361.068 108.544C361.75 107.424 362.092 106.213 362.092 104.912V103.76H358.94V102.592H366.636V103.76H363.548V104.896C363.548 106.197 363.868 107.365 364.508 108.4C365.158 109.435 366.006 110.24 367.052 110.816ZM371.804 107.904H369.612V115.12H368.204V101.136H369.612V106.72H371.804V107.904ZM380.255 110.816L379.424 111.856C378.719 111.451 378.031 110.859 377.359 110.08C376.687 109.301 376.245 108.539 376.031 107.792C375.818 108.592 375.386 109.403 374.735 110.224C374.095 111.035 373.359 111.696 372.527 112.208L371.615 111.168C372.714 110.539 373.599 109.664 374.271 108.544C374.954 107.424 375.295 106.213 375.295 104.912V103.76H372.143V102.592H379.839V103.76H376.751V104.896C376.751 106.197 377.071 107.365 377.711 108.4C378.362 109.435 379.21 110.24 380.255 110.816ZM385.007 107.904H382.816V115.12H381.407V101.136H382.816V106.72H385.007V107.904ZM398.115 106.512H396.019V111.296H394.611V101.136H396.019V105.328H398.115V106.512ZM396.611 114.688H387.299V110.288H388.723V113.536H396.611V114.688ZM393.187 107.936L392.355 109.056C391.673 108.747 391.027 108.304 390.419 107.728C389.811 107.141 389.358 106.507 389.059 105.824C388.857 106.539 388.43 107.243 387.779 107.936C387.139 108.619 386.451 109.131 385.715 109.472L384.835 108.352C385.827 107.947 386.654 107.301 387.315 106.416C387.987 105.52 388.323 104.544 388.323 103.488V101.92H389.763V103.424C389.763 104.491 390.105 105.429 390.787 106.24C391.47 107.051 392.27 107.616 393.187 107.936ZM409.543 104.336C409.543 105.2 409.116 105.877 408.263 106.368C407.41 106.848 406.231 107.088 404.727 107.088C403.212 107.088 402.034 106.848 401.191 106.368C400.359 105.877 399.943 105.2 399.943 104.336C399.943 103.483 400.364 102.816 401.207 102.336C402.05 101.845 403.223 101.6 404.727 101.6C406.231 101.6 407.41 101.845 408.263 102.336C409.116 102.816 409.543 103.483 409.543 104.336ZM405.511 112.096H404.103V109.376H398.423V108.224H411.047V109.376H405.511V112.096ZM404.727 102.768C403.692 102.768 402.876 102.907 402.279 103.184C401.682 103.461 401.383 103.851 401.383 104.352C401.383 104.853 401.682 105.243 402.279 105.52C402.876 105.797 403.687 105.936 404.711 105.936C405.756 105.936 406.583 105.797 407.191 105.52C407.799 105.243 408.103 104.853 408.103 104.352C408.103 103.851 407.799 103.461 407.191 103.184C406.594 102.907 405.772 102.768 404.727 102.768ZM409.543 114.704H400.071V110.64H401.479V113.552H409.543V114.704ZM422.747 104.112C422.747 105.072 422.187 105.781 421.067 106.24V108.144H424.251V109.296H411.627V108.144H414.747V106.208C413.659 105.749 413.115 105.051 413.115 104.112C413.115 103.301 413.536 102.667 414.379 102.208C415.232 101.739 416.416 101.504 417.931 101.504C419.445 101.504 420.624 101.739 421.467 102.208C422.32 102.667 422.747 103.301 422.747 104.112ZM421.579 110.72C422.464 111.157 422.907 111.776 422.907 112.576C422.907 113.376 422.464 113.995 421.579 114.432C420.704 114.88 419.488 115.104 417.931 115.104C416.384 115.104 415.173 114.88 414.299 114.432C413.424 113.995 412.987 113.376 412.987 112.576C412.987 111.776 413.424 111.157 414.299 110.72C415.173 110.283 416.384 110.064 417.931 110.064C419.488 110.064 420.704 110.283 421.579 110.72ZM421.307 104.112C421.307 103.632 421.008 103.264 420.411 103.008C419.813 102.752 418.987 102.624 417.931 102.624C416.885 102.624 416.064 102.757 415.467 103.024C414.869 103.28 414.571 103.643 414.571 104.112C414.571 104.581 414.869 104.949 415.467 105.216C416.064 105.472 416.885 105.6 417.931 105.6C418.976 105.6 419.797 105.472 420.395 105.216C421.003 104.949 421.307 104.581 421.307 104.112ZM417.931 111.2C416.875 111.2 416.037 111.323 415.419 111.568C414.8 111.803 414.491 112.144 414.491 112.592C414.491 113.029 414.8 113.365 415.419 113.6C416.037 113.835 416.875 113.952 417.931 113.952C419.008 113.952 419.856 113.835 420.475 113.6C421.104 113.365 421.419 113.029 421.419 112.592C421.419 112.144 421.104 111.803 420.475 111.568C419.845 111.323 418.997 111.2 417.931 111.2ZM417.931 106.736C417.269 106.736 416.677 106.688 416.155 106.592V108.144H419.659V106.608C419.115 106.693 418.539 106.736 417.931 106.736ZM437.807 107.872H435.631V115.12H434.223V101.136H435.631V106.704H437.807V107.872ZM433.071 110.656L432.223 111.712C431.54 111.264 430.863 110.645 430.191 109.856C429.519 109.067 429.06 108.293 428.815 107.536C428.58 108.379 428.143 109.211 427.503 110.032C426.873 110.853 426.159 111.531 425.359 112.064L424.479 111.008C425.556 110.336 426.425 109.429 427.087 108.288C427.748 107.147 428.079 105.941 428.079 104.672V102.336H429.535V104.608C429.535 105.867 429.865 107.029 430.527 108.096C431.188 109.163 432.036 110.016 433.071 110.656Z" fill="#666666"/>
</svg>
