<svg width="1280" height="322" viewBox="0 0 1280 322" fill="none" xmlns="http://www.w3.org/2000/svg">
<rect x="0.5" y="0.5" width="1279" height="321" fill="white" stroke="#DDDDDD"/>
<line y1="19.5" x2="1280" y2="19.5" stroke="#DDDDDD"/>
<line y1="38.5" x2="1280" y2="38.5" stroke="#DDDDDD"/>
<line y1="57.5" x2="1280" y2="57.5" stroke="#DDDDDD"/>
<line y1="76.5" x2="1280" y2="76.5" stroke="#DDDDDD"/>
<line y1="95.5" x2="1280" y2="95.5" stroke="#DDDDDD"/>
<line y1="114.5" x2="1280" y2="114.5" stroke="#DDDDDD"/>
<line y1="133.5" x2="1280" y2="133.5" stroke="#DDDDDD"/>
<line y1="152.5" x2="1280" y2="152.5" stroke="#DDDDDD"/>
<line y1="171.5" x2="1280" y2="171.5" stroke="#DDDDDD"/>
<line y1="190.5" x2="1280" y2="190.5" stroke="#DDDDDD"/>
<line y1="209.5" x2="1280" y2="209.5" stroke="#DDDDDD"/>
<line y1="228.5" x2="1280" y2="228.5" stroke="#DDDDDD"/>
<line y1="247.5" x2="1280" y2="247.5" stroke="#DDDDDD"/>
<line y1="266.5" x2="1280" y2="266.5" stroke="#DDDDDD"/>
<line y1="285.5" x2="1280" y2="285.5" stroke="#DDDDDD"/>
<line y1="304.5" x2="1280" y2="304.5" stroke="#DDDDDD"/>
<line x1="305.5" y1="2.18557e-08" x2="305.5" y2="322" stroke="#DDDDDD"/>
<line x1="609.5" y1="2.18557e-08" x2="609.5" y2="322" stroke="#DDDDDD"/>
<line x1="913.5" y1="2.18557e-08" x2="913.5" y2="322" stroke="#DDDDDD"/>
<line x1="1217.5" y1="2.18557e-08" x2="1217.5" y2="322" stroke="#DDDDDD"/>
<line x1="286.5" y1="2.18557e-08" x2="286.5" y2="322" stroke="#DDDDDD"/>
<line x1="590.5" y1="2.18557e-08" x2="590.5" y2="322" stroke="#DDDDDD"/>
<line x1="894.5" y1="2.18557e-08" x2="894.5" y2="322" stroke="#DDDDDD"/>
<line x1="1198.5" y1="2.18557e-08" x2="1198.5" y2="322" stroke="#DDDDDD"/>
<line x1="1255.5" y1="2.18557e-08" x2="1255.5" y2="322" stroke="#DDDDDD"/>
<line x1="267.5" y1="2.18557e-08" x2="267.5" y2="322" stroke="#DDDDDD"/>
<line x1="571.5" y1="2.18557e-08" x2="571.5" y2="322" stroke="#DDDDDD"/>
<line x1="875.5" y1="2.18557e-08" x2="875.5" y2="322" stroke="#DDDDDD"/>
<line x1="1179.5" y1="2.18557e-08" x2="1179.5" y2="322" stroke="#DDDDDD"/>
<line x1="1236.5" y1="2.18557e-08" x2="1236.5" y2="322" stroke="#DDDDDD"/>
<line x1="248.5" y1="2.18557e-08" x2="248.5" y2="322" stroke="#DDDDDD"/>
<line x1="552.5" y1="2.18557e-08" x2="552.5" y2="322" stroke="#DDDDDD"/>
<line x1="856.5" y1="2.18557e-08" x2="856.5" y2="322" stroke="#DDDDDD"/>
<line x1="1160.5" y1="2.18557e-08" x2="1160.5" y2="322" stroke="#DDDDDD"/>
<line x1="229.5" y1="2.18557e-08" x2="229.5" y2="322" stroke="#DDDDDD"/>
<line x1="533.5" y1="2.18557e-08" x2="533.5" y2="322" stroke="#DDDDDD"/>
<line x1="837.5" y1="2.18557e-08" x2="837.5" y2="322" stroke="#DDDDDD"/>
<line x1="1141.5" y1="2.18557e-08" x2="1141.5" y2="322" stroke="#DDDDDD"/>
<line x1="210.5" y1="2.18557e-08" x2="210.5" y2="322" stroke="#DDDDDD"/>
<line x1="514.5" y1="2.18557e-08" x2="514.5" y2="322" stroke="#DDDDDD"/>
<line x1="818.5" y1="2.18557e-08" x2="818.5" y2="322" stroke="#DDDDDD"/>
<line x1="1122.5" y1="2.18557e-08" x2="1122.5" y2="322" stroke="#DDDDDD"/>
<line x1="191.5" y1="2.18557e-08" x2="191.5" y2="322" stroke="#DDDDDD"/>
<line x1="495.5" y1="2.18557e-08" x2="495.5" y2="322" stroke="#DDDDDD"/>
<line x1="799.5" y1="2.18557e-08" x2="799.5" y2="322" stroke="#DDDDDD"/>
<line x1="1103.5" y1="2.18557e-08" x2="1103.5" y2="322" stroke="#DDDDDD"/>
<line x1="172.5" y1="2.18557e-08" x2="172.5" y2="322" stroke="#DDDDDD"/>
<line x1="476.5" y1="2.18557e-08" x2="476.5" y2="322" stroke="#DDDDDD"/>
<line x1="780.5" y1="2.18557e-08" x2="780.5" y2="322" stroke="#DDDDDD"/>
<line x1="1084.5" y1="2.18557e-08" x2="1084.5" y2="322" stroke="#DDDDDD"/>
<line x1="153.5" y1="2.18557e-08" x2="153.5" y2="322" stroke="#DDDDDD"/>
<line x1="457.5" y1="2.18557e-08" x2="457.5" y2="322" stroke="#DDDDDD"/>
<line x1="761.5" y1="2.18557e-08" x2="761.5" y2="322" stroke="#DDDDDD"/>
<line x1="1065.5" y1="2.18557e-08" x2="1065.5" y2="322" stroke="#DDDDDD"/>
<line x1="134.5" y1="2.18557e-08" x2="134.5" y2="322" stroke="#DDDDDD"/>
<line x1="438.5" y1="2.18557e-08" x2="438.5" y2="322" stroke="#DDDDDD"/>
<line x1="742.5" y1="2.18557e-08" x2="742.5" y2="322" stroke="#DDDDDD"/>
<line x1="1046.5" y1="2.18557e-08" x2="1046.5" y2="322" stroke="#DDDDDD"/>
<line x1="115.5" y1="2.18557e-08" x2="115.5" y2="322" stroke="#DDDDDD"/>
<line x1="419.5" y1="2.18557e-08" x2="419.5" y2="322" stroke="#DDDDDD"/>
<line x1="723.5" y1="2.18557e-08" x2="723.5" y2="322" stroke="#DDDDDD"/>
<line x1="1027.5" y1="2.18557e-08" x2="1027.5" y2="322" stroke="#DDDDDD"/>
<line x1="96.5" y1="2.18557e-08" x2="96.5" y2="322" stroke="#DDDDDD"/>
<line x1="400.5" y1="2.18557e-08" x2="400.5" y2="322" stroke="#DDDDDD"/>
<line x1="704.5" y1="2.18557e-08" x2="704.5" y2="322" stroke="#DDDDDD"/>
<line x1="1008.5" y1="2.18557e-08" x2="1008.5" y2="322" stroke="#DDDDDD"/>
<line x1="77.5" y1="2.18557e-08" x2="77.5" y2="322" stroke="#DDDDDD"/>
<line x1="381.5" y1="2.18557e-08" x2="381.5" y2="322" stroke="#DDDDDD"/>
<line x1="685.5" y1="2.18557e-08" x2="685.5" y2="322" stroke="#DDDDDD"/>
<line x1="989.5" y1="2.18557e-08" x2="989.5" y2="322" stroke="#DDDDDD"/>
<line x1="58.5" y1="2.18557e-08" x2="58.5" y2="322" stroke="#DDDDDD"/>
<line x1="362.5" y1="2.18557e-08" x2="362.5" y2="322" stroke="#DDDDDD"/>
<line x1="666.5" y1="2.18557e-08" x2="666.5" y2="322" stroke="#DDDDDD"/>
<line x1="970.5" y1="2.18557e-08" x2="970.5" y2="322" stroke="#DDDDDD"/>
<line x1="39.5" y1="2.18557e-08" x2="39.5" y2="322" stroke="#DDDDDD"/>
<line x1="343.5" y1="2.18557e-08" x2="343.5" y2="322" stroke="#DDDDDD"/>
<line x1="647.5" y1="2.18557e-08" x2="647.5" y2="322" stroke="#DDDDDD"/>
<line x1="951.5" y1="2.18557e-08" x2="951.5" y2="322" stroke="#DDDDDD"/>
<line x1="20.5" y1="2.18557e-08" x2="20.5" y2="322" stroke="#DDDDDD"/>
<line x1="324.5" y1="2.18557e-08" x2="324.5" y2="322" stroke="#DDDDDD"/>
<line x1="628.5" y1="2.18557e-08" x2="628.5" y2="322" stroke="#DDDDDD"/>
<line x1="932.5" y1="2.18557e-08" x2="932.5" y2="322" stroke="#DDDDDD"/>
<path d="M326.381 187.543L296 170.079V201.511C296 203.689 297.166 205.695 299.057 206.784L326.4 222.51L356.782 205.046L326.381 187.543Z" fill="url(#paint0_linear)"/>
<path d="M356.762 135.131L326.381 152.595L296 170.079L326.381 187.543L356.762 170.079L387.144 152.595L356.762 135.131Z" fill="url(#paint1_linear)"/>
<path d="M387.144 117.666L359.781 101.941C357.909 100.871 355.597 100.871 353.724 101.941L326.381 117.666L299.057 133.373C297.166 134.462 296 136.468 296 138.647V170.079L326.381 152.614L356.762 135.15L387.144 152.614L417.525 170.079V138.647C417.525 136.468 416.359 134.462 414.468 133.373L387.144 117.666Z" fill="url(#paint2_radial)"/>
<path d="M356.762 170.079L326.381 187.543L356.762 205.007L387.144 187.543L356.762 170.079Z" fill="#53340A"/>
<path d="M416.722 204.549L387.163 187.543L356.782 205.007L326.4 222.472L353.763 238.197C355.635 239.267 357.947 239.267 359.82 238.197L387.182 222.472L414.525 206.746C415.423 206.23 416.187 205.447 416.722 204.549Z" fill="url(#paint3_linear)"/>
<path d="M417.544 201.492V170.079L387.163 152.614L356.763 170.079L387.144 187.543L416.703 204.549C417.238 203.632 417.544 202.581 417.544 201.492Z" fill="url(#paint4_linear)"/>
<path d="M556.075 152.117H595.857V146.156H561.979V141.685H595.857V135.723H561.979V131.252H595.857V125.29H556.075C554.985 125.29 554.106 126.169 554.106 127.258V150.188C554.106 151.238 554.985 152.117 556.075 152.117Z" fill="#58595B"/>
<path d="M480.924 139.831H467.166L461.033 125.844C460.345 124.278 458.128 124.278 457.441 125.844L441.161 162.703H449.033L459.179 139.984L469.326 162.703H477.217L470.09 146.442H480.943V176.805H488.892V125.271H480.943V139.831H480.924Z" fill="#58595B"/>
<path d="M638.887 131.806V125.271H605.869V131.806H617.448L604.551 162.703H612.442L622.588 138.379L632.543 162.703H640.416L627.575 131.806H638.887Z" fill="#58595B"/>
<path d="M650.734 125.271H642.785V176.785H650.734V148.926H658.32V141.646H650.734V125.271Z" fill="#58595B"/>
<path d="M673.243 160.353H665.179V174.817C665.179 175.906 666.058 176.785 667.147 176.785H708.038V170.193H673.243V160.353Z" fill="#58595B"/>
<path d="M781.067 150.417L794.596 135.284L808.162 150.417H817.888L800.997 131.71H816.569V125.271H772.641V131.71H788.214L771.323 150.417H781.067Z" fill="#58595B"/>
<path d="M870.854 125.271H862.905V151.659H870.854V125.271Z" fill="#58595B"/>
<path d="M840.76 135.647L850.562 150.398H858.912L842.365 124.354C841.6 123.15 839.823 123.15 839.059 124.354L822.512 150.398H830.976L840.76 135.647Z" fill="#58595B"/>
<path d="M917.229 161.518H899.822V155.06C900.357 154.907 900.892 154.754 901.407 154.544C903.127 153.856 904.637 152.939 905.936 151.754C907.254 150.589 908.286 149.213 909.031 147.627C909.796 146.06 910.159 144.398 910.159 142.659C910.159 140.92 909.777 139.258 909.031 137.71C908.592 136.869 908.076 136.086 907.484 135.322H912.738V128.902H899.822V123.227H891.873V128.902H878.478V135.322H884.211C883.618 136.086 883.102 136.869 882.663 137.71C881.899 139.258 881.536 140.92 881.536 142.659C881.536 144.398 881.918 146.06 882.663 147.627C883.427 149.194 884.459 150.57 885.758 151.754C887.077 152.92 888.605 153.856 890.363 154.544C890.841 154.754 891.338 154.926 891.892 155.06V161.537H878.077V167.499H917.248V176.805H925.197V125.271H917.248V161.518H917.229ZM891.051 147.302C889.714 146.022 889.045 144.455 889.045 142.64C889.045 140.825 889.714 139.258 891.051 137.978C892.389 136.698 893.994 136.048 895.866 136.048C897.739 136.048 899.344 136.698 900.681 137.978C902.019 139.277 902.688 140.825 902.688 142.64C902.688 144.455 902.019 146.022 900.681 147.302C899.344 148.583 897.739 149.232 895.866 149.232C893.975 149.251 892.389 148.602 891.051 147.302Z" fill="#58595B"/>
<path d="M532.782 144.57C534.292 143.366 535.477 141.952 536.355 140.347C537.234 138.742 537.674 137.022 537.674 135.207C537.674 133.392 537.234 131.691 536.355 130.067C535.477 128.462 534.292 127.048 532.782 125.825C531.273 124.622 529.515 123.647 527.547 122.902C525.56 122.157 523.458 121.794 521.222 121.794C519.006 121.794 516.885 122.157 514.917 122.902C512.929 123.647 511.172 124.622 509.681 125.825C508.172 127.029 506.987 128.443 506.108 130.067C505.229 131.672 504.79 133.392 504.79 135.207C504.79 137.022 505.229 138.742 506.108 140.347C506.987 141.952 508.172 143.366 509.681 144.57C510.159 144.952 510.656 145.296 511.172 145.621H496.631V151.582H517.343V154.945H514.993H499.783V160.467H534.884V163.429H499.783V174.817C499.783 175.907 500.662 176.785 501.751 176.785H542.737V171.263H507.675V168.302H542.776V156.913C542.776 155.824 541.897 154.945 540.808 154.945H525.216V151.582H545.928V145.621H531.292C531.808 145.296 532.305 144.952 532.782 144.57ZM513.254 132.341C513.713 131.443 514.343 130.66 515.146 129.972C515.929 129.303 516.866 128.749 517.897 128.348C518.948 127.927 520.057 127.736 521.222 127.736C522.388 127.736 523.496 127.946 524.547 128.348C525.598 128.768 526.515 129.303 527.298 129.972C528.101 130.64 528.712 131.443 529.171 132.341C529.63 133.239 529.859 134.194 529.859 135.207C529.859 136.22 529.63 137.175 529.171 138.073C528.712 138.971 528.082 139.755 527.298 140.443C526.496 141.111 525.579 141.666 524.547 142.086C523.496 142.506 522.388 142.697 521.222 142.697C520.057 142.697 518.948 142.487 517.897 142.086C516.847 141.666 515.929 141.131 515.146 140.443C514.343 139.774 513.732 138.971 513.254 138.073C512.777 137.175 512.566 136.22 512.566 135.207C512.566 134.194 512.796 133.239 513.254 132.341Z" fill="#58595B"/>
<path d="M769.947 161.117H790.602V176.785H798.608V161.117H819.263V155.136H769.947V161.117Z" fill="#58595B"/>
<path d="M868.886 155.175H830.021V161.232H862.905V176.785H870.854V157.124C870.835 156.054 869.956 155.175 868.886 155.175Z" fill="#58595B"/>
<path d="M661.3 156.283H682.644V165.799H690.573V156.283H710.617V150.302H661.3V156.283Z" fill="#58595B"/>
<path d="M550.304 162.206H570.959V176.785H578.946V162.206H599.602V156.245H550.304V162.206Z" fill="#58595B"/>
<path d="M976.692 141.646V125.271H968.743V176.785H976.692V148.926H984.258V141.646H976.692Z" fill="#58595B"/>
<path d="M946.597 125.844L930.317 162.703H938.19L948.336 139.984L958.482 162.703H966.373L950.208 125.844C949.501 124.278 947.285 124.278 946.597 125.844Z" fill="#58595B"/>
<path d="M752.903 142.143C753.915 141.226 754.756 140.194 755.425 139.067C756.304 137.557 756.743 135.971 756.743 134.271C756.743 132.589 756.304 130.984 755.425 129.494C754.546 127.984 753.361 126.685 751.852 125.558C750.342 124.43 748.584 123.532 746.616 122.844C744.629 122.157 742.527 121.813 740.291 121.813C738.075 121.813 735.954 122.157 733.967 122.844C731.98 123.532 730.222 124.43 728.731 125.558C727.222 126.685 726.037 128.004 725.158 129.494C724.279 131.003 723.84 132.589 723.84 134.271C723.84 135.971 724.279 137.557 725.158 139.067C725.827 140.194 726.649 141.226 727.68 142.143V150.302H715.643V156.264H730.566C729.916 156.627 729.305 157.009 728.731 157.448C727.222 158.576 726.037 159.894 725.158 161.385C724.279 162.894 723.84 164.48 723.84 166.162C723.84 167.862 724.279 169.448 725.158 170.958C726.037 172.467 727.222 173.766 728.731 174.894C730.241 176.021 731.98 176.938 733.967 177.626C735.954 178.314 738.056 178.658 740.291 178.658C742.508 178.658 744.629 178.314 746.616 177.626C748.603 176.938 750.342 176.021 751.852 174.894C753.361 173.766 754.546 172.448 755.425 170.958C756.304 169.448 756.743 167.862 756.743 166.162C756.743 164.48 756.304 162.875 755.425 161.385C754.546 159.875 753.361 158.576 751.852 157.448C751.278 157.028 750.667 156.627 750.017 156.264H764.94V150.302H752.903V142.143ZM748.24 168.76C747.782 169.563 747.151 170.27 746.368 170.881C745.565 171.493 744.648 171.97 743.616 172.352C742.565 172.716 741.457 172.907 740.291 172.907C739.126 172.907 738.018 172.716 736.967 172.352C735.916 171.989 734.999 171.493 734.215 170.881C733.413 170.27 732.801 169.582 732.324 168.76C731.865 167.958 731.636 167.098 731.636 166.2C731.636 165.302 731.865 164.442 732.324 163.639C732.782 162.837 733.413 162.13 734.215 161.518C735.018 160.907 735.935 160.429 736.967 160.066C738.018 159.703 739.126 159.512 740.291 159.512C741.457 159.512 742.565 159.703 743.616 160.066C744.667 160.429 745.584 160.926 746.368 161.518C747.17 162.13 747.782 162.837 748.24 163.639C748.699 164.442 748.928 165.302 748.928 166.2C748.928 167.098 748.699 167.958 748.24 168.76ZM732.324 131.71C732.782 130.908 733.413 130.201 734.215 129.59C735.018 128.978 735.935 128.5 736.967 128.137C738.018 127.774 739.126 127.583 740.291 127.583C741.457 127.583 742.565 127.774 743.616 128.137C744.667 128.5 745.584 128.997 746.368 129.59C747.17 130.201 747.782 130.908 748.24 131.71C748.699 132.513 748.928 133.373 748.928 134.271C748.928 135.188 748.699 136.029 748.24 136.831C747.782 137.634 747.151 138.341 746.368 138.952C745.565 139.564 744.648 140.041 743.616 140.404C742.565 140.767 741.457 140.959 740.291 140.959C739.126 140.959 738.018 140.767 736.967 140.404C735.916 140.041 734.999 139.545 734.215 138.952C733.413 138.341 732.801 137.634 732.324 136.831C731.865 136.029 731.636 135.169 731.636 134.271C731.617 133.373 731.846 132.532 732.324 131.71ZM734.636 145.946C736.413 146.481 738.304 146.767 740.272 146.767C742.24 146.767 744.113 146.481 745.909 145.946V150.321H734.636V145.946Z" fill="#58595B"/>
<path d="M674.389 144.57C675.899 145.774 677.637 146.748 679.625 147.493C681.612 148.239 683.714 148.602 685.949 148.602C688.166 148.602 690.287 148.239 692.274 147.493C694.261 146.748 696 145.774 697.509 144.57C699.019 143.366 700.204 141.952 701.083 140.347C701.961 138.742 702.401 137.022 702.401 135.207C702.401 133.392 701.961 131.691 701.083 130.067C700.204 128.462 699.019 127.048 697.509 125.825C696 124.622 694.242 123.647 692.274 122.902C690.287 122.157 688.185 121.794 685.949 121.794C683.733 121.794 681.612 122.157 679.625 122.902C677.637 123.647 675.88 124.622 674.389 125.825C672.88 127.029 671.695 128.443 670.816 130.067C669.937 131.672 669.498 133.392 669.498 135.207C669.498 137.022 669.937 138.742 670.816 140.347C671.695 141.952 672.88 143.366 674.389 144.57ZM677.981 132.341C678.44 131.443 679.07 130.66 679.873 129.972C680.656 129.303 681.593 128.749 682.625 128.348C683.675 127.927 684.784 127.736 685.949 127.736C687.115 127.736 688.223 127.946 689.274 128.348C690.325 128.768 691.242 129.303 692.025 129.972C692.828 130.64 693.439 131.443 693.917 132.341C694.376 133.239 694.605 134.194 694.605 135.207C694.605 136.22 694.376 137.175 693.917 138.073C693.459 138.971 692.828 139.755 692.025 140.443C691.223 141.111 690.306 141.666 689.274 142.086C688.223 142.506 687.115 142.697 685.949 142.697C684.784 142.697 683.675 142.487 682.625 142.086C681.574 141.666 680.656 141.131 679.873 140.443C679.07 139.774 678.459 138.971 677.981 138.073C677.523 137.175 677.293 136.22 677.293 135.207C677.293 134.194 677.523 133.239 677.981 132.341Z" fill="#58595B"/>
<path d="M456.16 193.275C455.3 192.951 454.593 192.721 454.078 192.587C453.543 192.454 452.893 192.377 452.148 192.377C451.689 192.377 451.25 192.415 450.81 192.511C450.371 192.607 449.969 192.759 449.587 192.97C449.224 193.18 448.919 193.486 448.708 193.868C448.498 194.25 448.383 194.708 448.383 195.243C448.383 196.046 448.689 196.677 449.282 197.173C449.874 197.651 450.81 198.205 452.09 198.817C452.969 199.218 453.695 199.6 454.25 199.925C454.823 200.25 455.358 200.67 455.874 201.167C456.39 201.664 456.81 202.275 457.135 202.982C457.46 203.689 457.613 204.53 457.613 205.485C457.613 206.593 457.421 207.549 457.02 208.37C456.619 209.192 456.065 209.861 455.339 210.377C454.613 210.893 453.791 211.275 452.855 211.523C451.918 211.772 450.887 211.886 449.759 211.886C449.09 211.886 448.403 211.81 447.696 211.657C447.008 211.504 446.224 211.275 445.364 210.988L445.67 208.122C446.32 208.39 447.065 208.619 447.868 208.848C448.67 209.058 449.434 209.173 450.122 209.173C450.6 209.173 451.078 209.116 451.574 208.982C452.071 208.848 452.53 208.638 452.95 208.351C453.371 208.065 453.715 207.702 453.963 207.243C454.211 206.784 454.345 206.269 454.345 205.676C454.345 205.141 454.23 204.683 454.02 204.281C453.81 203.88 453.504 203.517 453.122 203.154C452.606 202.753 451.67 202.218 450.313 201.587C449.473 201.186 448.785 200.823 448.25 200.517C447.715 200.211 447.199 199.848 446.721 199.39C446.224 198.931 445.842 198.396 445.556 197.766C445.269 197.135 445.116 196.371 445.116 195.53C445.116 193.677 445.766 192.244 447.046 191.231C448.345 190.199 449.989 189.702 451.995 189.702C452.74 189.702 453.504 189.76 454.307 189.893C455.109 190.008 455.874 190.218 456.581 190.486L456.16 193.275Z" fill="#58595B"/>
<path d="M472.918 210.854C472.784 210.893 472.65 210.95 472.478 211.007C471.79 211.275 471.103 211.485 470.434 211.638C469.765 211.791 468.943 211.867 467.95 211.867C465.236 211.867 463.211 211.122 461.854 209.612C460.498 208.103 459.829 206.02 459.829 203.383C459.829 202.237 460.001 201.167 460.345 200.192C460.689 199.218 461.186 198.377 461.835 197.67C462.485 196.963 463.268 196.409 464.166 196.027C465.084 195.645 466.077 195.434 467.166 195.434C468.447 195.434 469.517 195.664 470.415 196.103C471.313 196.543 472.02 197.154 472.574 197.957C473.109 198.74 473.51 199.676 473.739 200.746C473.969 201.816 474.102 203.001 474.102 204.32H462.905C462.905 205.084 463.039 205.772 463.326 206.421C463.612 207.071 463.975 207.625 464.472 208.103C464.95 208.581 465.504 208.924 466.135 209.173C466.765 209.421 467.415 209.536 468.083 209.536C468.542 209.536 469.001 209.479 469.497 209.383C469.994 209.288 470.453 209.154 470.911 208.982C471.37 208.81 471.752 208.638 472.115 208.466C472.459 208.275 472.727 208.122 472.918 207.969V210.854ZM471.045 202.16C471.045 200.918 470.701 199.867 469.994 199.046C469.306 198.224 468.351 197.804 467.128 197.804C466.459 197.804 465.848 197.918 465.351 198.167C464.835 198.415 464.415 198.74 464.071 199.16C463.727 199.581 463.479 200.058 463.287 200.574C463.096 201.09 462.982 201.625 462.924 202.16H471.045Z" fill="#58595B"/>
<path d="M476.892 200.383C477.274 199.371 477.809 198.511 478.516 197.766C479.223 197.02 480.083 196.466 481.077 196.065C482.07 195.664 483.16 195.473 484.325 195.473C485.491 195.473 486.561 195.664 487.554 196.065C488.548 196.466 489.389 197.04 490.096 197.766C490.803 198.511 491.338 199.371 491.72 200.383C492.102 201.396 492.293 202.485 492.293 203.67C492.293 204.778 492.102 205.829 491.701 206.842C491.319 207.854 490.764 208.733 490.057 209.479C489.35 210.243 488.51 210.835 487.516 211.256C486.522 211.676 485.472 211.886 484.325 211.886C483.179 211.886 482.109 211.676 481.134 211.256C480.16 210.835 479.3 210.243 478.574 209.479C477.848 208.714 477.293 207.835 476.911 206.842C476.529 205.848 476.338 204.797 476.338 203.689C476.319 202.485 476.51 201.377 476.892 200.383ZM479.701 205.791C479.892 206.498 480.198 207.109 480.618 207.683C481.019 208.256 481.535 208.695 482.166 209.039C482.796 209.383 483.523 209.536 484.344 209.536C485.166 209.536 485.873 209.364 486.503 209.039C487.115 208.695 487.631 208.256 488.032 207.683C488.433 207.109 488.739 206.498 488.93 205.791C489.121 205.103 489.217 204.396 489.217 203.67C489.217 202.906 489.102 202.18 488.873 201.492C488.643 200.804 488.319 200.173 487.898 199.6C487.478 199.046 486.962 198.587 486.351 198.282C485.739 197.957 485.051 197.804 484.325 197.804C483.561 197.804 482.892 197.957 482.281 198.282C481.669 198.606 481.153 199.046 480.733 199.6C480.293 200.173 479.969 200.804 479.758 201.492C479.529 202.18 479.414 202.925 479.414 203.67C479.395 204.377 479.51 205.084 479.701 205.791Z" fill="#58595B"/>
<path d="M509.413 211.504H506.624V209.02H506.566C506.127 209.899 505.458 210.606 504.503 211.103C503.566 211.619 502.535 211.867 501.426 211.867C499.439 211.867 497.968 211.275 496.993 210.109C496.038 208.944 495.541 207.281 495.541 205.122V195.798H498.427V203.918C498.427 205.81 498.675 207.186 499.172 208.065C499.669 208.944 500.528 209.421 501.751 209.517C503.337 209.517 504.522 208.944 505.324 207.778C506.127 206.612 506.528 205.046 506.528 203.058V195.798H509.413V211.504Z" fill="#58595B"/>
<path d="M514.095 188.441H516.98V211.504H514.095V188.441Z" fill="#58595B"/>
<path d="M529.859 190.046H532.935V211.504H529.859V190.046Z" fill="#58595B"/>
<path d="M537.521 195.817H540.31V198.301H540.368C540.807 197.422 541.476 196.715 542.431 196.218C543.368 195.702 544.4 195.454 545.508 195.454C547.495 195.454 548.966 196.027 549.941 197.192C550.896 198.358 551.393 200.02 551.393 202.18V211.504H548.508V203.383C548.508 201.492 548.259 200.116 547.762 199.237C547.266 198.358 546.406 197.88 545.183 197.785C543.597 197.785 542.412 198.358 541.61 199.524C540.807 200.689 540.406 202.256 540.406 204.243V211.504H537.521V195.817Z" fill="#58595B"/>
<path d="M562.647 211.504H559.208L553.571 195.817H556.743L560.985 208.6H561.042L565.38 195.817H568.265L562.647 211.504Z" fill="#58595B"/>
<path d="M582.481 210.854C582.367 210.893 582.214 210.95 582.042 211.007C581.354 211.275 580.666 211.485 579.997 211.638C579.329 211.791 578.507 211.867 577.513 211.867C574.8 211.867 572.775 211.122 571.418 209.612C570.061 208.103 569.393 206.02 569.393 203.383C569.393 202.237 569.565 201.167 569.908 200.192C570.252 199.218 570.749 198.377 571.399 197.67C572.049 196.963 572.832 196.409 573.73 196.027C574.647 195.645 575.641 195.434 576.73 195.434C578.01 195.434 579.08 195.664 579.978 196.103C580.876 196.543 581.583 197.154 582.137 197.957C582.672 198.74 583.074 199.676 583.303 200.746C583.532 201.816 583.666 203.001 583.666 204.32H572.469C572.469 205.084 572.603 205.772 572.889 206.421C573.157 207.071 573.539 207.625 574.036 208.103C574.513 208.581 575.068 208.924 575.698 209.173C576.329 209.421 576.978 209.536 577.647 209.536C578.106 209.536 578.564 209.479 579.061 209.383C579.558 209.288 580.016 209.154 580.475 208.982C580.934 208.81 581.316 208.638 581.679 208.466C582.023 208.275 582.29 208.122 582.481 207.969V210.854ZM580.609 202.16C580.609 200.918 580.265 199.867 579.558 199.046C578.851 198.224 577.915 197.804 576.692 197.804C576.023 197.804 575.411 197.918 574.915 198.167C574.399 198.415 573.978 198.74 573.634 199.16C573.291 199.581 573.042 200.058 572.851 200.574C572.66 201.09 572.545 201.625 572.488 202.16H580.609Z" fill="#58595B"/>
<path d="M585.768 208.428C586.303 208.772 586.914 209.058 587.621 209.249C588.309 209.44 588.901 209.536 589.379 209.536C590.162 209.536 590.85 209.345 591.443 208.982C592.035 208.619 592.341 208.046 592.341 207.3C592.341 206.727 592.111 206.249 591.653 205.886C591.194 205.523 590.468 205.103 589.494 204.625C588.844 204.32 588.309 204.052 587.927 203.823C587.545 203.593 587.163 203.326 586.8 203.001C586.436 202.676 586.131 202.275 585.901 201.836C585.672 201.377 585.557 200.88 585.557 200.307C585.557 198.759 586.073 197.555 587.105 196.734C588.137 195.912 589.475 195.492 591.08 195.492C591.691 195.492 592.283 195.549 592.838 195.645C593.392 195.74 594.003 195.893 594.691 196.103L594.443 198.625C594.137 198.434 593.64 198.262 592.971 198.09C592.303 197.918 591.768 197.823 591.404 197.823C590.621 197.823 589.971 197.995 589.436 198.32C588.901 198.645 588.634 199.122 588.634 199.734C588.634 200.364 588.863 200.861 589.322 201.224C589.78 201.587 590.487 201.988 591.462 202.447C592.092 202.734 592.627 202.982 593.029 203.211C593.43 203.441 593.831 203.708 594.194 204.052C594.557 204.396 594.863 204.797 595.092 205.294C595.322 205.791 595.436 206.364 595.436 207.014C595.436 208.6 594.901 209.803 593.831 210.644C592.761 211.485 591.481 211.905 589.952 211.905C589.112 211.905 588.347 211.848 587.621 211.714C586.914 211.6 586.245 211.37 585.634 211.045L585.768 208.428Z" fill="#58595B"/>
<path d="M606.614 198.167H602.468V206.746C602.468 207.625 602.697 208.313 603.156 208.81C603.614 209.307 604.187 209.555 604.894 209.555C605.64 209.555 606.289 209.364 606.862 209.001V211.466C606.423 211.581 606.022 211.695 605.62 211.772C605.219 211.848 604.818 211.886 604.398 211.886C602.85 211.886 601.665 211.504 600.824 210.759C599.984 210.014 599.563 208.867 599.563 207.339V198.167H596.028V195.836H599.563V192.205L602.449 191.288V195.836H606.595V198.167H606.614Z" fill="#58595B"/>
<path d="M609.595 195.817H612.308V198.09H612.365C612.92 197.192 613.607 196.524 614.41 196.084C615.213 195.645 616.206 195.434 617.353 195.434C618.308 195.434 619.206 195.683 620.009 196.199C620.811 196.715 621.422 197.46 621.805 198.473C622.301 197.441 623.028 196.676 623.983 196.18C624.938 195.683 625.836 195.434 626.677 195.434C628.569 195.434 629.945 195.969 630.804 197.059C631.683 198.129 632.104 199.6 632.104 201.434V211.485H629.218V202.141C629.218 201.606 629.18 201.09 629.104 200.574C629.027 200.058 628.875 199.6 628.664 199.18C628.454 198.759 628.168 198.415 627.804 198.167C627.441 197.918 626.983 197.785 626.429 197.785C625.741 197.785 625.11 197.938 624.575 198.262C624.04 198.587 623.601 199.008 623.276 199.562C622.932 200.097 622.684 200.727 622.531 201.415C622.378 202.103 622.301 202.848 622.301 203.593V211.504H619.416V202.16C619.416 201.625 619.378 201.109 619.302 200.594C619.225 200.078 619.072 199.619 618.881 199.199C618.671 198.778 618.384 198.434 618.021 198.186C617.658 197.938 617.2 197.804 616.646 197.804C615.939 197.804 615.327 197.957 614.792 198.281C614.257 198.606 613.818 199.027 613.493 199.581C613.149 200.116 612.9 200.746 612.748 201.434C612.595 202.122 612.518 202.867 612.518 203.613V211.523H609.633V195.817H609.595Z" fill="#58595B"/>
<path d="M648.384 210.854C648.269 210.893 648.116 210.95 647.944 211.007C647.256 211.275 646.568 211.485 645.9 211.638C645.231 211.791 644.409 211.867 643.416 211.867C640.702 211.867 638.677 211.122 637.32 209.612C635.964 208.103 635.295 206.02 635.295 203.383C635.295 202.237 635.467 201.167 635.811 200.192C636.155 199.218 636.651 198.377 637.301 197.67C637.951 196.963 638.734 196.409 639.632 196.027C640.549 195.645 641.543 195.434 642.632 195.434C643.912 195.434 644.982 195.664 645.88 196.103C646.778 196.543 647.485 197.154 648.04 197.957C648.575 198.74 648.976 199.676 649.205 200.746C649.434 201.816 649.549 203.001 649.549 204.32H638.352C638.352 205.084 638.486 205.772 638.772 206.421C639.04 207.071 639.422 207.625 639.919 208.103C640.397 208.581 640.951 208.924 641.581 209.173C642.212 209.421 642.861 209.536 643.53 209.536C643.989 209.536 644.447 209.479 644.944 209.383C645.441 209.288 645.9 209.154 646.358 208.982C646.817 208.81 647.199 208.638 647.562 208.466C647.906 208.275 648.173 208.122 648.364 207.969V210.854H648.384ZM646.511 202.16C646.511 200.918 646.167 199.867 645.46 199.046C644.753 198.224 643.817 197.804 642.594 197.804C641.925 197.804 641.333 197.918 640.817 198.167C640.301 198.415 639.881 198.74 639.537 199.16C639.193 199.581 638.944 200.058 638.753 200.574C638.562 201.09 638.448 201.625 638.39 202.16H646.511Z" fill="#58595B"/>
<path d="M652.836 195.817H655.625V198.301H655.683C656.122 197.422 656.791 196.715 657.746 196.218C658.683 195.702 659.714 195.454 660.823 195.454C662.81 195.454 664.281 196.027 665.256 197.192C666.211 198.358 666.708 200.02 666.708 202.18V211.504H663.822V203.383C663.822 201.492 663.574 200.116 663.077 199.237C662.58 198.358 661.721 197.88 660.498 197.785C658.912 197.785 657.727 198.358 656.925 199.524C656.122 200.689 655.721 202.256 655.721 204.243V211.504H652.836V195.817Z" fill="#58595B"/>
<path d="M679.357 198.167H675.211V206.746C675.211 207.625 675.44 208.313 675.899 208.81C676.357 209.307 676.93 209.555 677.637 209.555C678.383 209.555 679.032 209.364 679.606 209.001V211.466C679.166 211.581 678.765 211.695 678.364 211.772C677.962 211.848 677.561 211.886 677.141 211.886C675.593 211.886 674.408 211.504 673.568 210.759C672.727 210.014 672.306 208.867 672.306 207.339V198.167H668.771V195.836H672.306V192.205L675.192 191.288V195.836H679.338V198.167H679.357Z" fill="#58595B"/>
<path d="M690.611 190.046H695.694L702.42 207.893L709.031 190.046H714.114V211.504H711.038V192.932H710.98L703.872 211.504H700.853L693.745 192.932H693.688V211.504H690.611V190.046Z" fill="#58595B"/>
<path d="M719.445 196.925C721.107 195.95 722.827 195.454 724.604 195.454C726.801 195.454 728.387 195.989 729.4 197.078C730.413 198.148 730.91 199.772 730.91 201.95V208.447C730.91 209.307 730.929 209.975 730.948 210.434C730.967 210.893 731.005 211.256 731.043 211.523H728.33V209.498H728.273C727.814 210.128 727.184 210.702 726.381 211.179C725.579 211.657 724.585 211.905 723.419 211.905C721.661 211.905 720.267 211.504 719.216 210.682C718.184 209.88 717.668 208.657 717.668 207.014C717.668 206.097 717.897 205.294 718.337 204.625C718.795 203.957 719.388 203.402 720.114 203.001C720.859 202.6 721.642 202.313 722.464 202.122C723.286 201.931 724.126 201.836 724.948 201.836C725.655 201.836 726.19 201.836 726.572 201.836C726.954 201.836 727.451 201.855 728.024 201.893C728.024 200.498 727.738 199.466 727.145 198.797C726.553 198.129 725.559 197.804 724.145 197.804C723.324 197.804 722.502 197.957 721.681 198.243C720.859 198.53 720.171 198.912 719.598 199.409L719.445 196.925ZM728.024 204.033C727.814 204.033 727.508 204.033 727.107 203.995C726.706 203.976 726.381 203.957 726.19 203.957C725.636 203.957 725.082 203.995 724.509 204.052C723.935 204.109 723.362 204.243 722.789 204.453C722.216 204.664 721.738 204.969 721.337 205.37C720.955 205.791 720.744 206.307 720.744 206.976C720.744 207.759 721.05 208.37 721.642 208.829C722.254 209.288 722.923 209.517 723.649 209.517C725.044 209.517 726.114 209.135 726.878 208.37C727.642 207.606 728.024 206.612 728.024 205.409V204.033Z" fill="#58595B"/>
<path d="M735.19 195.817H737.979V198.301H738.037C738.476 197.422 739.145 196.715 740.1 196.218C741.037 195.702 742.068 195.454 743.177 195.454C745.164 195.454 746.635 196.027 747.61 197.192C748.565 198.358 749.062 200.02 749.062 202.18V211.504H746.176V203.383C746.176 201.492 745.928 200.116 745.431 199.237C744.934 198.358 744.075 197.88 742.852 197.785C741.266 197.785 740.081 198.358 739.279 199.524C738.476 200.689 738.075 202.256 738.075 204.243V211.504H735.19V195.817Z" fill="#58595B"/>
<path d="M754.106 196.925C755.769 195.95 757.488 195.454 759.265 195.454C761.463 195.454 763.049 195.989 764.061 197.078C765.074 198.148 765.571 199.772 765.571 201.95V208.447C765.571 209.307 765.59 209.975 765.609 210.434C765.628 210.893 765.667 211.256 765.705 211.523H762.991V209.498H762.934C762.475 210.128 761.845 210.702 761.042 211.179C760.24 211.657 759.246 211.905 758.081 211.905C756.323 211.905 754.928 211.504 753.877 210.682C752.845 209.88 752.329 208.657 752.329 207.014C752.329 206.097 752.559 205.294 752.998 204.625C753.457 203.957 754.049 203.402 754.775 203.001C755.52 202.6 756.304 202.313 757.125 202.122C757.947 201.931 758.788 201.836 759.609 201.836C760.297 201.836 760.851 201.836 761.233 201.836C761.616 201.836 762.112 201.855 762.686 201.893C762.686 200.498 762.399 199.466 761.807 198.797C761.214 198.129 760.221 197.804 758.807 197.804C757.985 197.804 757.164 197.957 756.342 198.243C755.52 198.53 754.832 198.912 754.259 199.409L754.106 196.925ZM762.686 204.033C762.476 204.033 762.17 204.033 761.769 203.995C761.348 203.976 761.042 203.957 760.851 203.957C760.297 203.957 759.743 203.995 759.17 204.052C758.597 204.109 758.023 204.243 757.45 204.453C756.877 204.664 756.399 204.969 755.998 205.37C755.616 205.791 755.406 206.307 755.406 206.976C755.406 207.759 755.711 208.37 756.304 208.829C756.915 209.288 757.584 209.517 758.329 209.517C759.724 209.517 760.794 209.135 761.558 208.37C762.323 207.606 762.705 206.612 762.705 205.409V204.033H762.686Z" fill="#58595B"/>
<path d="M783.723 210.835C783.723 213.281 783.054 215.134 781.736 216.415C780.418 217.695 778.373 218.345 775.641 218.345C774.781 218.345 773.94 218.268 773.099 218.115C772.278 217.962 771.246 217.676 770.004 217.275L770.31 214.599C771.456 215.134 772.431 215.498 773.233 215.708C774.036 215.918 774.953 216.013 775.965 216.013C777.475 216.013 778.679 215.536 779.539 214.561C780.398 213.606 780.838 212.287 780.838 210.625V209.077H780.781C780.188 209.88 779.424 210.491 778.488 210.893C777.551 211.294 776.558 211.504 775.526 211.504C774.437 211.504 773.462 211.294 772.622 210.893C771.762 210.491 771.055 209.918 770.501 209.192C769.927 208.466 769.507 207.644 769.24 206.708C768.972 205.772 768.819 204.797 768.819 203.765C768.819 202.714 768.953 201.702 769.259 200.727C769.545 199.753 769.985 198.855 770.577 198.052C771.169 197.25 771.915 196.619 772.794 196.141C773.673 195.664 774.685 195.434 775.832 195.434C777.169 195.434 778.239 195.664 779.08 196.122C779.902 196.581 780.551 197.25 781.01 198.129H781.067V195.797H783.742V210.835H783.723ZM779.539 207.644C780.398 206.612 780.838 205.351 780.838 203.861C780.838 202.122 780.437 200.67 779.653 199.523C778.87 198.377 777.723 197.804 776.252 197.804C775.564 197.804 774.934 197.976 774.38 198.32C773.825 198.664 773.367 199.122 773.004 199.695C772.641 200.269 772.354 200.899 772.182 201.587C771.991 202.275 771.915 202.963 771.915 203.67C771.915 205.198 772.316 206.517 773.118 207.587C773.921 208.657 774.972 209.211 776.29 209.211C777.571 209.173 778.679 208.657 779.539 207.644Z" fill="#58595B"/>
<path d="M800.041 210.854C799.907 210.893 799.774 210.95 799.602 211.007C798.914 211.275 798.226 211.485 797.557 211.638C796.888 211.791 796.067 211.867 795.073 211.867C792.36 211.867 790.334 211.122 788.978 209.612C787.621 208.103 786.952 206.02 786.952 203.383C786.952 202.237 787.124 201.167 787.468 200.192C787.812 199.218 788.309 198.377 788.959 197.67C789.608 196.963 790.392 196.409 791.29 196.027C792.207 195.645 793.201 195.434 794.29 195.434C795.57 195.434 796.64 195.664 797.538 196.103C798.436 196.543 799.143 197.154 799.697 197.957C800.232 198.74 800.633 199.676 800.863 200.746C801.092 201.816 801.226 203.001 801.226 204.32H790.029C790.029 205.084 790.162 205.772 790.449 206.421C790.736 207.071 791.099 207.625 791.596 208.103C792.073 208.581 792.627 208.924 793.258 209.173C793.888 209.421 794.538 209.536 795.207 209.536C795.666 209.536 796.124 209.479 796.621 209.383C797.118 209.288 797.576 209.154 798.035 208.982C798.493 208.81 798.895 208.638 799.239 208.466C799.583 208.275 799.85 208.122 800.041 207.969V210.854ZM798.169 202.16C798.169 200.918 797.825 199.867 797.118 199.046C796.411 198.224 795.474 197.804 794.252 197.804C793.583 197.804 792.971 197.918 792.474 198.167C791.959 198.415 791.538 198.74 791.194 199.16C790.85 199.581 790.602 200.058 790.411 200.574C790.22 201.09 790.105 201.625 790.048 202.16H798.169Z" fill="#58595B"/>
<path d="M804.474 195.817H807.187V198.09H807.245C807.799 197.192 808.487 196.524 809.289 196.084C810.092 195.645 811.085 195.434 812.232 195.434C813.187 195.434 814.085 195.683 814.888 196.199C815.69 196.715 816.302 197.46 816.684 198.473C817.181 197.441 817.907 196.676 818.862 196.18C819.818 195.683 820.716 195.434 821.556 195.434C823.448 195.434 824.824 195.969 825.684 197.059C826.562 198.129 826.983 199.6 826.983 201.434V211.485H824.098V202.141C824.098 201.606 824.059 201.09 823.983 200.574C823.907 200.058 823.754 199.6 823.543 199.18C823.333 198.759 823.047 198.415 822.684 198.167C822.321 197.918 821.862 197.785 821.308 197.785C820.62 197.785 819.989 197.938 819.454 198.262C818.919 198.587 818.48 199.008 818.155 199.562C817.811 200.097 817.563 200.727 817.41 201.415C817.257 202.103 817.181 202.848 817.181 203.593V211.504H814.295V202.16C814.295 201.625 814.257 201.109 814.181 200.594C814.104 200.078 813.951 199.619 813.76 199.199C813.55 198.778 813.264 198.434 812.9 198.186C812.537 197.938 812.079 197.804 811.525 197.804C810.818 197.804 810.206 197.957 809.671 198.281C809.136 198.606 808.697 199.027 808.372 199.581C808.028 200.116 807.78 200.746 807.627 201.434C807.474 202.122 807.398 202.867 807.398 203.613V211.523H804.512V195.817H804.474Z" fill="#58595B"/>
<path d="M843.263 210.854C843.148 210.893 842.995 210.95 842.823 211.007C842.135 211.275 841.447 211.485 840.779 211.638C840.11 211.791 839.288 211.867 838.295 211.867C835.581 211.867 833.556 211.122 832.199 209.612C830.843 208.103 830.174 206.02 830.174 203.383C830.174 202.237 830.346 201.167 830.69 200.192C831.034 199.218 831.531 198.377 832.18 197.67C832.83 196.963 833.613 196.409 834.511 196.027C835.429 195.645 836.422 195.434 837.511 195.434C838.792 195.434 839.862 195.664 840.76 196.103C841.658 196.543 842.365 197.154 842.919 197.957C843.454 198.74 843.855 199.676 844.084 200.746C844.314 201.816 844.428 203.001 844.428 204.32H833.231C833.231 205.084 833.365 205.772 833.652 206.421C833.938 207.071 834.301 207.625 834.798 208.103C835.276 208.581 835.83 208.924 836.46 209.173C837.091 209.421 837.741 209.536 838.409 209.536C838.868 209.536 839.327 209.479 839.823 209.383C840.32 209.288 840.779 209.154 841.237 208.982C841.696 208.81 842.097 208.638 842.441 208.466C842.785 208.275 843.053 208.122 843.244 207.969V210.854H843.263ZM841.371 202.16C841.371 200.918 841.027 199.867 840.32 199.046C839.613 198.224 838.677 197.804 837.454 197.804C836.785 197.804 836.174 197.918 835.677 198.167C835.161 198.415 834.741 198.74 834.397 199.16C834.053 199.581 833.804 200.058 833.613 200.574C833.422 201.09 833.308 201.625 833.25 202.16H841.371Z" fill="#58595B"/>
<path d="M847.715 195.817H850.504V198.301H850.562C851.001 197.422 851.67 196.715 852.625 196.218C853.562 195.702 854.594 195.454 855.702 195.454C857.689 195.454 859.16 196.027 860.135 197.192C861.09 198.358 861.587 200.02 861.587 202.18V211.504H858.702V203.383C858.702 201.492 858.453 200.116 857.956 199.237C857.46 198.358 856.6 197.88 855.377 197.785C853.791 197.785 852.606 198.358 851.804 199.524C851.001 200.689 850.6 202.256 850.6 204.243V211.504H847.715V195.817Z" fill="#58595B"/>
<path d="M874.217 198.167H870.071V206.746C870.071 207.625 870.3 208.313 870.759 208.81C871.217 209.307 871.791 209.555 872.498 209.555C873.243 209.555 873.892 209.364 874.466 209.001V211.466C874.026 211.581 873.625 211.695 873.224 211.772C872.822 211.848 872.421 211.886 872.001 211.886C870.472 211.886 869.268 211.504 868.428 210.759C867.587 210.014 867.167 208.867 867.167 207.339V198.167H863.632V195.836H867.167V192.205L870.052 191.288V195.836H874.198V198.167H874.217Z" fill="#58595B"/>
<path d="M900.261 193.581C898.904 192.779 897.433 192.377 895.828 192.377C894.624 192.377 893.497 192.588 892.484 192.989C891.452 193.39 890.592 193.982 889.847 194.747C889.121 195.511 888.567 196.409 888.166 197.441C887.783 198.473 887.573 199.581 887.573 200.785C887.573 202.008 887.783 203.154 888.185 204.186C888.586 205.218 889.178 206.116 889.923 206.861C890.669 207.606 891.548 208.179 892.522 208.581C893.516 208.982 894.548 209.173 895.656 209.173C896.458 209.173 897.299 209.077 898.216 208.886C899.114 208.695 899.821 208.447 900.337 208.141L900.528 211.122C899.802 211.428 899.019 211.638 898.178 211.733C897.337 211.829 896.477 211.886 895.637 211.886C893.955 211.886 892.427 211.619 891.032 211.103C889.637 210.587 888.433 209.823 887.44 208.848C886.427 207.874 885.663 206.689 885.127 205.294C884.592 203.918 884.325 202.371 884.325 200.689C884.325 199.065 884.612 197.575 885.147 196.218C885.701 194.861 886.484 193.696 887.516 192.721C888.548 191.747 889.752 191.002 891.146 190.467C892.541 189.951 894.051 189.683 895.675 189.683C897.49 189.683 899.114 189.989 900.509 190.6L900.261 193.581Z" fill="#58595B"/>
<path d="M902.859 200.383C903.242 199.371 903.777 198.511 904.484 197.766C905.191 197.02 906.05 196.466 907.044 196.065C908.038 195.664 909.127 195.473 910.292 195.473C911.458 195.473 912.528 195.664 913.521 196.065C914.515 196.466 915.356 197.04 916.063 197.766C916.77 198.511 917.305 199.371 917.687 200.383C918.069 201.396 918.26 202.485 918.26 203.67C918.26 204.778 918.069 205.829 917.668 206.842C917.286 207.854 916.732 208.733 916.025 209.479C915.318 210.243 914.477 210.835 913.483 211.256C912.509 211.676 911.439 211.886 910.292 211.886C909.146 211.886 908.076 211.676 907.101 211.256C906.127 210.835 905.267 210.243 904.541 209.479C903.815 208.714 903.261 207.835 902.879 206.842C902.496 205.848 902.305 204.797 902.305 203.689C902.305 202.485 902.477 201.377 902.859 200.383ZM905.668 205.791C905.859 206.498 906.165 207.109 906.585 207.683C906.987 208.256 907.503 208.695 908.133 209.039C908.764 209.383 909.49 209.536 910.311 209.536C911.133 209.536 911.84 209.364 912.471 209.039C913.082 208.695 913.598 208.256 913.999 207.683C914.4 207.109 914.706 206.498 914.897 205.791C915.088 205.103 915.184 204.396 915.184 203.67C915.184 202.906 915.069 202.18 914.84 201.492C914.611 200.804 914.286 200.173 913.865 199.6C913.445 199.046 912.929 198.587 912.318 198.282C911.706 197.957 911.018 197.804 910.292 197.804C909.528 197.804 908.859 197.957 908.248 198.282C907.636 198.606 907.12 199.046 906.7 199.6C906.261 200.173 905.936 200.804 905.706 201.492C905.477 202.18 905.363 202.925 905.363 203.67C905.382 204.377 905.477 205.084 905.668 205.791Z" fill="#58595B"/>
<path d="M920.381 208.065H923.821V211.504H920.381V208.065Z" fill="#58595B"/>
<path d="M927.088 208.065H930.527L927.91 215.593H925.139L927.088 208.065Z" fill="#58595B"/>
<path d="M936.948 190.046H940.024V208.81H949.005V211.523H936.948V190.046Z" fill="#58595B"/>
<path d="M959.8 198.167H955.654V206.746C955.654 207.625 955.883 208.313 956.342 208.81C956.8 209.307 957.374 209.555 958.081 209.555C958.826 209.555 959.476 209.364 960.049 209.001V211.466C959.609 211.581 959.208 211.695 958.807 211.772C958.406 211.848 958.004 211.886 957.584 211.886C956.036 211.886 954.852 211.504 954.011 210.759C953.17 210.014 952.75 208.867 952.75 207.339V198.167H949.215V195.836H952.75V192.205L955.635 191.288V195.836H959.781V198.167H959.8Z" fill="#58595B"/>
<path d="M973.921 209.288H973.864C973.405 209.975 972.717 210.587 971.8 211.103C970.883 211.619 969.775 211.867 968.513 211.867C967.367 211.867 966.373 211.638 965.514 211.179C964.654 210.721 963.966 210.09 963.412 209.288C962.858 208.485 962.456 207.587 962.189 206.574C961.921 205.562 961.788 204.492 961.788 203.383C961.788 202.313 961.921 201.301 962.227 200.345C962.514 199.39 962.934 198.53 963.507 197.804C964.081 197.078 964.788 196.505 965.628 196.084C966.488 195.664 967.463 195.454 968.571 195.454C969.87 195.454 970.921 195.683 971.762 196.122C972.603 196.581 973.271 197.192 973.768 197.976H973.825V188.441H976.711V211.504H973.94V209.288H973.921ZM965.112 205.657C965.284 206.364 965.552 206.995 965.915 207.587C966.278 208.179 966.736 208.638 967.291 209.001C967.845 209.364 968.475 209.536 969.201 209.536C969.985 209.536 970.673 209.364 971.265 209.02C971.857 208.676 972.335 208.218 972.717 207.644C973.099 207.071 973.367 206.441 973.539 205.772C973.73 205.103 973.825 204.415 973.825 203.708C973.825 202.944 973.73 202.218 973.539 201.53C973.348 200.823 973.042 200.192 972.66 199.638C972.278 199.065 971.781 198.625 971.208 198.301C970.615 197.976 969.947 197.804 969.201 197.804C968.456 197.804 967.826 197.957 967.271 198.262C966.717 198.568 966.259 199.008 965.915 199.562C965.571 200.116 965.303 200.727 965.151 201.415C964.979 202.103 964.902 202.829 964.902 203.613C964.845 204.281 964.94 204.969 965.112 205.657Z" fill="#58595B"/>
<path d="M981.086 208.065H984.526V211.504H981.086V208.065Z" fill="#58595B"/>
<defs>
<linearGradient id="paint0_linear" x1="334.839" y1="218.711" x2="312.528" y2="180.068" gradientUnits="userSpaceOnUse">
<stop stop-color="#6E4D2B"/>
<stop offset="0.0109" stop-color="#71502D"/>
<stop offset="0.0771" stop-color="#855F39"/>
<stop offset="0.1502" stop-color="#956C43"/>
<stop offset="0.2329" stop-color="#A0754A"/>
<stop offset="0.3332" stop-color="#A77A4E"/>
<stop offset="0.5" stop-color="#A97C50"/>
</linearGradient>
<linearGradient id="paint1_linear" x1="326.638" y1="187.208" x2="346.045" y2="153.594" gradientUnits="userSpaceOnUse">
<stop stop-color="#81613F"/>
<stop offset="0.0158" stop-color="#886743"/>
<stop offset="0.0894" stop-color="#A68055"/>
<stop offset="0.1647" stop-color="#BF9563"/>
<stop offset="0.2415" stop-color="#D2A56D"/>
<stop offset="0.3208" stop-color="#DEAF74"/>
<stop offset="0.4064" stop-color="#E4B477"/>
</linearGradient>
<radialGradient id="paint2_radial" cx="0" cy="0" r="1" gradientUnits="userSpaceOnUse" gradientTransform="translate(356.055 101.66) scale(101.802)">
<stop stop-color="#00A1E4"/>
<stop offset="0.1102" stop-color="#009BDD"/>
<stop offset="0.2872" stop-color="#008ECC"/>
<stop offset="0.509" stop-color="#007AB6"/>
<stop offset="0.7642" stop-color="#00619C"/>
<stop offset="1" stop-color="#104685"/>
</radialGradient>
<linearGradient id="paint3_linear" x1="386.49" y1="187.637" x2="367.083" y2="221.252" gradientUnits="userSpaceOnUse">
<stop stop-color="#81613F"/>
<stop offset="0.0158" stop-color="#886743"/>
<stop offset="0.0894" stop-color="#A68055"/>
<stop offset="0.1647" stop-color="#BF9563"/>
<stop offset="0.2415" stop-color="#D2A56D"/>
<stop offset="0.3208" stop-color="#DEAF74"/>
<stop offset="0.4064" stop-color="#E4B477"/>
</linearGradient>
<linearGradient id="paint4_linear" x1="379.107" y1="156.134" x2="401.417" y2="194.777" gradientUnits="userSpaceOnUse">
<stop stop-color="#6E4D2B"/>
<stop offset="0.0109" stop-color="#71502D"/>
<stop offset="0.0771" stop-color="#855F39"/>
<stop offset="0.1502" stop-color="#956C43"/>
<stop offset="0.2329" stop-color="#A0754A"/>
<stop offset="0.3332" stop-color="#A77A4E"/>
<stop offset="0.5" stop-color="#A97C50"/>
</linearGradient>
</defs>
</svg>
