<svg width="630" height="200" viewBox="0 0 630 200" fill="none" xmlns="http://www.w3.org/2000/svg">
<rect x="0.5" y="0.5" width="629" height="199" fill="white" stroke="#DDDDDD"/>
<line y1="11.9224" x2="630" y2="11.9224" stroke="#DDDDDD"/>
<line y1="23.7236" x2="630" y2="23.7236" stroke="#DDDDDD"/>
<line y1="35.5249" x2="630" y2="35.5249" stroke="#DDDDDD"/>
<line y1="47.326" x2="630" y2="47.326" stroke="#DDDDDD"/>
<line y1="59.1273" x2="630" y2="59.1273" stroke="#DDDDDD"/>
<line y1="70.9286" x2="630" y2="70.9286" stroke="#DDDDDD"/>
<line y1="82.7299" x2="630" y2="82.7299" stroke="#DDDDDD"/>
<line y1="94.531" x2="630" y2="94.531" stroke="#DDDDDD"/>
<line y1="106.332" x2="630" y2="106.332" stroke="#DDDDDD"/>
<line y1="118.134" x2="630" y2="118.134" stroke="#DDDDDD"/>
<line y1="129.935" x2="630" y2="129.935" stroke="#DDDDDD"/>
<line y1="141.736" x2="630" y2="141.736" stroke="#DDDDDD"/>
<line y1="153.537" x2="630" y2="153.537" stroke="#DDDDDD"/>
<line y1="165.339" x2="630" y2="165.339" stroke="#DDDDDD"/>
<line y1="177.14" x2="630" y2="177.14" stroke="#DDDDDD"/>
<line y1="188.941" x2="630" y2="188.941" stroke="#DDDDDD"/>
<line x1="150.617" y1="2.7443e-08" x2="150.617" y2="200" stroke="#DDDDDD"/>
<line x1="300.242" y1="2.7443e-08" x2="300.242" y2="200" stroke="#DDDDDD"/>
<line x1="449.867" y1="2.7443e-08" x2="449.867" y2="200" stroke="#DDDDDD"/>
<line x1="599.492" y1="2.7443e-08" x2="599.492" y2="200" stroke="#DDDDDD"/>
<line x1="141.266" y1="2.7443e-08" x2="141.266" y2="200" stroke="#DDDDDD"/>
<line x1="290.891" y1="2.7443e-08" x2="290.891" y2="200" stroke="#DDDDDD"/>
<line x1="440.516" y1="2.7443e-08" x2="440.516" y2="200" stroke="#DDDDDD"/>
<line x1="590.141" y1="2.7443e-08" x2="590.141" y2="200" stroke="#DDDDDD"/>
<line x1="618.195" y1="2.7443e-08" x2="618.195" y2="200" stroke="#DDDDDD"/>
<line x1="131.914" y1="2.7443e-08" x2="131.914" y2="200" stroke="#DDDDDD"/>
<line x1="281.539" y1="2.7443e-08" x2="281.539" y2="200" stroke="#DDDDDD"/>
<line x1="431.164" y1="2.7443e-08" x2="431.164" y2="200" stroke="#DDDDDD"/>
<line x1="580.789" y1="2.7443e-08" x2="580.789" y2="200" stroke="#DDDDDD"/>
<line x1="608.844" y1="2.7443e-08" x2="608.844" y2="200" stroke="#DDDDDD"/>
<line x1="122.562" y1="2.7443e-08" x2="122.562" y2="200" stroke="#DDDDDD"/>
<line x1="272.188" y1="2.7443e-08" x2="272.188" y2="200" stroke="#DDDDDD"/>
<line x1="421.812" y1="2.7443e-08" x2="421.812" y2="200" stroke="#DDDDDD"/>
<line x1="571.438" y1="2.7443e-08" x2="571.438" y2="200" stroke="#DDDDDD"/>
<line x1="113.211" y1="2.7443e-08" x2="113.211" y2="200" stroke="#DDDDDD"/>
<line x1="262.836" y1="2.7443e-08" x2="262.836" y2="200" stroke="#DDDDDD"/>
<line x1="412.461" y1="2.7443e-08" x2="412.461" y2="200" stroke="#DDDDDD"/>
<line x1="562.086" y1="2.7443e-08" x2="562.086" y2="200" stroke="#DDDDDD"/>
<line x1="103.859" y1="2.7443e-08" x2="103.859" y2="200" stroke="#DDDDDD"/>
<line x1="253.484" y1="2.7443e-08" x2="253.484" y2="200" stroke="#DDDDDD"/>
<line x1="403.109" y1="2.7443e-08" x2="403.109" y2="200" stroke="#DDDDDD"/>
<line x1="552.734" y1="2.7443e-08" x2="552.734" y2="200" stroke="#DDDDDD"/>
<line x1="94.5078" y1="2.7443e-08" x2="94.5078" y2="200" stroke="#DDDDDD"/>
<line x1="244.133" y1="2.7443e-08" x2="244.133" y2="200" stroke="#DDDDDD"/>
<line x1="393.758" y1="2.7443e-08" x2="393.758" y2="200" stroke="#DDDDDD"/>
<line x1="543.383" y1="2.7443e-08" x2="543.383" y2="200" stroke="#DDDDDD"/>
<line x1="85.1562" y1="2.7443e-08" x2="85.1562" y2="200" stroke="#DDDDDD"/>
<line x1="234.781" y1="2.7443e-08" x2="234.781" y2="200" stroke="#DDDDDD"/>
<line x1="384.406" y1="2.7443e-08" x2="384.406" y2="200" stroke="#DDDDDD"/>
<line x1="534.031" y1="2.7443e-08" x2="534.031" y2="200" stroke="#DDDDDD"/>
<line x1="75.8047" y1="2.7443e-08" x2="75.8047" y2="200" stroke="#DDDDDD"/>
<line x1="225.43" y1="2.7443e-08" x2="225.43" y2="200" stroke="#DDDDDD"/>
<line x1="375.055" y1="2.7443e-08" x2="375.055" y2="200" stroke="#DDDDDD"/>
<line x1="524.68" y1="2.7443e-08" x2="524.68" y2="200" stroke="#DDDDDD"/>
<line x1="66.4531" y1="2.7443e-08" x2="66.4531" y2="200" stroke="#DDDDDD"/>
<line x1="216.078" y1="2.7443e-08" x2="216.078" y2="200" stroke="#DDDDDD"/>
<line x1="365.703" y1="2.7443e-08" x2="365.703" y2="200" stroke="#DDDDDD"/>
<line x1="515.328" y1="2.7443e-08" x2="515.328" y2="200" stroke="#DDDDDD"/>
<line x1="57.1016" y1="2.7443e-08" x2="57.1016" y2="200" stroke="#DDDDDD"/>
<line x1="206.727" y1="2.7443e-08" x2="206.727" y2="200" stroke="#DDDDDD"/>
<line x1="356.352" y1="2.7443e-08" x2="356.352" y2="200" stroke="#DDDDDD"/>
<line x1="505.977" y1="2.7443e-08" x2="505.977" y2="200" stroke="#DDDDDD"/>
<line x1="47.75" y1="2.7443e-08" x2="47.75" y2="200" stroke="#DDDDDD"/>
<line x1="197.375" y1="2.7443e-08" x2="197.375" y2="200" stroke="#DDDDDD"/>
<line x1="347" y1="2.7443e-08" x2="347" y2="200" stroke="#DDDDDD"/>
<line x1="496.625" y1="2.7443e-08" x2="496.625" y2="200" stroke="#DDDDDD"/>
<line x1="38.3984" y1="2.7443e-08" x2="38.3984" y2="200" stroke="#DDDDDD"/>
<line x1="188.023" y1="2.7443e-08" x2="188.023" y2="200" stroke="#DDDDDD"/>
<line x1="337.648" y1="2.7443e-08" x2="337.648" y2="200" stroke="#DDDDDD"/>
<line x1="487.273" y1="2.7443e-08" x2="487.273" y2="200" stroke="#DDDDDD"/>
<line x1="29.0469" y1="2.7443e-08" x2="29.0469" y2="200" stroke="#DDDDDD"/>
<line x1="178.672" y1="2.7443e-08" x2="178.672" y2="200" stroke="#DDDDDD"/>
<line x1="328.297" y1="2.7443e-08" x2="328.297" y2="200" stroke="#DDDDDD"/>
<line x1="477.922" y1="2.7443e-08" x2="477.922" y2="200" stroke="#DDDDDD"/>
<line x1="19.6953" y1="2.7443e-08" x2="19.6953" y2="200" stroke="#DDDDDD"/>
<line x1="169.32" y1="2.7443e-08" x2="169.32" y2="200" stroke="#DDDDDD"/>
<line x1="318.945" y1="2.7443e-08" x2="318.945" y2="200" stroke="#DDDDDD"/>
<line x1="468.57" y1="2.7443e-08" x2="468.57" y2="200" stroke="#DDDDDD"/>
<line x1="10.3438" y1="2.7443e-08" x2="10.3437" y2="200" stroke="#DDDDDD"/>
<line x1="159.969" y1="2.7443e-08" x2="159.969" y2="200" stroke="#DDDDDD"/>
<line x1="309.594" y1="2.7443e-08" x2="309.594" y2="200" stroke="#DDDDDD"/>
<line x1="459.219" y1="2.7443e-08" x2="459.219" y2="200" stroke="#DDDDDD"/>
<g clip-path="url(#clip0)">
<path d="M139.767 107.698L123 98.0591V115.407C123 116.609 123.643 117.716 124.687 118.317L139.778 126.996L156.546 117.358L139.767 107.698Z" fill="url(#paint0_linear)"/>
<path d="M156.535 78.7711L139.767 88.4098L123 98.059L139.767 107.698L156.535 98.059L173.302 88.4098L156.535 78.7711Z" fill="url(#paint1_linear)"/>
<path d="M173.302 69.1325L158.212 60.4429C157.178 59.8524 155.902 59.8524 154.869 60.4429L139.767 69.1325L124.687 77.801C123.643 78.4021 123 79.5094 123 80.7116V98.0591L139.767 88.4204L156.535 78.7817L173.302 88.4204L190.07 98.0591V80.7116C190.07 79.5094 189.427 78.4021 188.383 77.801L173.302 69.1325Z" fill="url(#paint2_radial)"/>
<path d="M156.535 98.0591L139.768 107.698L156.535 117.336L173.303 107.698L156.535 98.0591Z" fill="#53340A"/>
<path d="M189.627 117.083L173.313 107.698L156.546 117.336L139.778 126.975L154.879 135.654C155.913 136.245 157.189 136.245 158.222 135.654L173.324 126.975L188.414 118.296C188.91 118.011 189.332 117.579 189.627 117.083Z" fill="url(#paint3_linear)"/>
<path d="M190.081 115.396V98.0591L173.313 88.4204L156.546 98.0591L173.313 107.698L189.627 117.083C189.912 116.577 190.081 115.997 190.081 115.396Z" fill="url(#paint4_linear)"/>
<path d="M266.536 88.1461H288.492V84.8559H269.795V82.3882H288.492V79.098H269.795V76.6303H288.492V73.3401H266.536C265.935 73.3401 265.45 73.8252 265.45 74.4263V87.081C265.45 87.661 265.935 88.1461 266.536 88.1461Z" fill="#58595B"/>
<path d="M225.06 81.3654H217.468L214.082 73.646C213.703 72.7813 212.479 72.7813 212.1 73.646L203.115 93.9884H207.46L213.059 81.4497L218.659 93.9884H223.015L219.081 85.0141H225.071V101.761H229.458V73.3296H225.071V81.3654H225.06Z" fill="#58595B"/>
<path d="M312.241 76.9362V73.3296H294.018V76.9362H300.409L293.29 93.9884H297.646L303.245 80.5639L308.74 93.9884H313.084L305.998 76.9362H312.241Z" fill="#58595B"/>
<path d="M318.779 73.3296H314.392V101.761H318.779V86.385H322.966V82.3672H318.779V73.3296Z" fill="#58595B"/>
<path d="M331.202 92.6913H326.752V100.674C326.752 101.275 327.237 101.76 327.838 101.76H350.405V98.1223H331.202V92.6913Z" fill="#58595B"/>
<path d="M390.711 87.2076L398.177 78.8555L405.664 87.2076H411.032L401.71 76.8835H410.304V73.3296H386.06V76.8835H394.655L385.332 87.2076H390.711Z" fill="#58595B"/>
<path d="M440.264 73.3296H435.877V87.8931H440.264V73.3296Z" fill="#58595B"/>
<path d="M423.655 79.0558L429.065 87.197H433.673L424.541 72.8234C424.119 72.159 423.138 72.159 422.716 72.8234L413.584 87.197H418.256L423.655 79.0558Z" fill="#58595B"/>
<path d="M465.859 93.3345H456.252V89.7701C456.547 89.6858 456.842 89.6014 457.127 89.4854C458.076 89.1058 458.909 88.5996 459.626 87.9457C460.354 87.3025 460.923 86.5432 461.334 85.6679C461.756 84.8032 461.957 83.8857 461.957 82.926C461.957 81.9664 461.746 81.0489 461.334 80.1947C461.092 79.7307 460.807 79.2984 460.48 78.8765H463.38V75.3332H456.252V72.2012H451.865V75.3332H444.472V78.8765H447.636C447.309 79.2984 447.024 79.7307 446.782 80.1947C446.36 81.0489 446.159 81.9664 446.159 82.926C446.159 83.8857 446.37 84.8032 446.782 85.6679C447.203 86.5326 447.773 87.2919 448.49 87.9457C449.218 88.589 450.061 89.1058 451.031 89.4854C451.295 89.6014 451.569 89.6963 451.875 89.7701V93.3451H444.251V96.6353H465.869V101.771H470.256V73.3296H465.869V93.3345H465.859ZM451.411 85.4886C450.673 84.7821 450.304 83.9173 450.304 82.9155C450.304 81.9137 450.673 81.0489 451.411 80.3424C452.149 79.6358 453.035 79.2773 454.069 79.2773C455.102 79.2773 455.988 79.6358 456.726 80.3424C457.464 81.0595 457.833 81.9137 457.833 82.9155C457.833 83.9173 457.464 84.7821 456.726 85.4886C455.988 86.1952 455.102 86.5537 454.069 86.5537C453.025 86.5643 452.149 86.2057 451.411 85.4886Z" fill="#58595B"/>
<path d="M253.681 83.9806C254.514 83.3163 255.168 82.5359 255.653 81.6501C256.138 80.7642 256.381 79.8151 256.381 78.8133C256.381 77.8115 256.138 76.8729 255.653 75.9765C255.168 75.0907 254.514 74.3103 253.681 73.6354C252.848 72.971 251.878 72.4332 250.792 72.0219C249.695 71.6106 248.535 71.4103 247.301 71.4103C246.078 71.4103 244.907 71.6106 243.821 72.0219C242.724 72.4332 241.754 72.971 240.931 73.6354C240.098 74.2998 239.444 75.0801 238.959 75.9765C238.474 76.8624 238.232 77.8115 238.232 78.8133C238.232 79.8151 238.474 80.7642 238.959 81.6501C239.444 82.5359 240.098 83.3163 240.931 83.9806C241.195 84.1915 241.469 84.3814 241.754 84.5606H233.729V87.8509H245.16V89.7069H243.863H235.469V92.7546H254.841V94.3891H235.469V100.674C235.469 101.275 235.954 101.761 236.555 101.761H259.175V98.7128H239.824V97.0783H259.196V90.7931C259.196 90.192 258.711 89.7069 258.11 89.7069H249.505V87.8509H260.936V84.5606H252.858C253.143 84.3814 253.417 84.1915 253.681 83.9806ZM242.903 77.2314C243.157 76.7358 243.505 76.3034 243.947 75.9238C244.38 75.5547 244.897 75.2489 245.466 75.0274C246.046 74.7954 246.658 74.69 247.301 74.69C247.944 74.69 248.556 74.806 249.136 75.0274C249.716 75.2594 250.222 75.5547 250.654 75.9238C251.097 76.2929 251.435 76.7358 251.688 77.2314C251.941 77.7271 252.068 78.2544 252.068 78.8133C252.068 79.3722 251.941 79.8995 251.688 80.3951C251.435 80.8908 251.087 81.3231 250.654 81.7028C250.212 82.0719 249.705 82.3777 249.136 82.6097C248.556 82.8417 247.944 82.9472 247.301 82.9472C246.658 82.9472 246.046 82.8312 245.466 82.6097C244.886 82.3777 244.38 82.0824 243.947 81.7028C243.505 81.3337 243.167 80.8908 242.903 80.3951C242.65 79.8995 242.524 79.3722 242.524 78.8133C242.524 78.2544 242.65 77.7271 242.903 77.2314Z" fill="#58595B"/>
<path d="M384.573 93.1131H395.973V101.761H400.391V93.1131H411.791V89.8124H384.573V93.1131Z" fill="#58595B"/>
<path d="M439.178 89.8335H417.728V93.1764H435.877V101.761H440.264V90.9091C440.254 90.3186 439.769 89.8335 439.178 89.8335Z" fill="#58595B"/>
<path d="M324.611 90.4451H336.39V95.6968H340.767V90.4451H351.829V87.1443H324.611V90.4451Z" fill="#58595B"/>
<path d="M263.351 93.7142H274.751V101.76H279.159V93.7142H290.559V90.424H263.351V93.7142Z" fill="#58595B"/>
<path d="M498.676 82.3672V73.3296H494.289V101.761H498.676V86.385H502.853V82.3672H498.676Z" fill="#58595B"/>
<path d="M482.067 73.646L473.082 93.9884H477.427L483.027 81.4497L488.626 93.9884H492.982L484.06 73.646C483.67 72.7813 482.447 72.7813 482.067 73.646Z" fill="#58595B"/>
<path d="M375.166 82.6413C375.725 82.1351 376.189 81.5656 376.558 80.9435C377.044 80.1103 377.286 79.2351 377.286 78.2965C377.286 77.3685 377.044 76.4827 376.558 75.6601C376.073 74.827 375.42 74.1099 374.586 73.4877C373.753 72.8655 372.783 72.3699 371.697 71.9902C370.6 71.6106 369.44 71.4208 368.206 71.4208C366.983 71.4208 365.813 71.6106 364.716 71.9902C363.619 72.3699 362.649 72.8655 361.826 73.4877C360.993 74.1099 360.339 74.8376 359.854 75.6601C359.369 76.4932 359.127 77.3685 359.127 78.2965C359.127 79.2351 359.369 80.1103 359.854 80.9435C360.223 81.5656 360.677 82.1351 361.246 82.6413V87.1443H354.603V90.4345H362.839C362.48 90.6349 362.143 90.8458 361.826 91.0883C360.993 91.7105 360.339 92.4382 359.854 93.2607C359.369 94.0938 359.127 94.9691 359.127 95.8971C359.127 96.8357 359.369 97.7109 359.854 98.5441C360.339 99.3772 360.993 100.094 361.826 100.716C362.659 101.339 363.619 101.845 364.716 102.224C365.813 102.604 366.973 102.794 368.206 102.794C369.43 102.794 370.6 102.604 371.697 102.224C372.794 101.845 373.753 101.339 374.586 100.716C375.42 100.094 376.073 99.3666 376.558 98.5441C377.044 97.7109 377.286 96.8357 377.286 95.8971C377.286 94.9691 377.044 94.0833 376.558 93.2607C376.073 92.4276 375.42 91.7105 374.586 91.0883C374.27 90.8563 373.933 90.6349 373.574 90.4345H381.81V87.1443H375.166V82.6413ZM372.593 97.3313C372.34 97.7742 371.992 98.1644 371.56 98.5019C371.117 98.8393 370.611 99.103 370.041 99.3139C369.472 99.5248 368.85 99.6197 368.206 99.6197C367.563 99.6197 366.951 99.5142 366.371 99.3139C365.791 99.1135 365.285 98.8393 364.853 98.5019C364.41 98.1644 364.072 97.7848 363.809 97.3313C363.556 96.8884 363.429 96.4138 363.429 95.9182C363.429 95.4226 363.556 94.948 363.809 94.5051C364.062 94.0622 364.41 93.672 364.853 93.3345C365.296 92.9971 365.802 92.7334 366.371 92.5331C366.951 92.3327 367.563 92.2272 368.206 92.2272C368.85 92.2272 369.461 92.3327 370.041 92.5331C370.621 92.7334 371.127 93.0076 371.56 93.3345C372.003 93.672 372.34 94.0622 372.593 94.5051C372.846 94.948 372.973 95.4226 372.973 95.9182C372.973 96.4138 372.846 96.8884 372.593 97.3313ZM363.809 76.8834C364.062 76.4405 364.41 76.0503 364.853 75.7128C365.296 75.3754 365.802 75.1117 366.371 74.9114C366.951 74.711 367.563 74.6055 368.206 74.6055C368.85 74.6055 369.461 74.711 370.041 74.9114C370.621 75.1117 371.127 75.3859 371.56 75.7128C372.003 76.0503 372.34 76.4405 372.593 76.8834C372.846 77.3263 372.973 77.8009 372.973 78.2965C372.973 78.8027 372.846 79.2667 372.593 79.7096C372.34 80.1525 371.992 80.5427 371.56 80.8802C371.117 81.2176 370.611 81.4813 370.041 81.6816C369.461 81.882 368.85 81.9875 368.206 81.9875C367.563 81.9875 366.951 81.882 366.371 81.6816C365.791 81.4813 365.285 81.2071 364.853 80.8802C364.41 80.5427 364.072 80.1525 363.809 79.7096C363.556 79.2667 363.429 78.7921 363.429 78.2965C363.419 77.8009 363.545 77.3369 363.809 76.8834ZM365.085 84.7399C366.066 85.0351 367.11 85.1933 368.196 85.1933C369.282 85.1933 370.315 85.0351 371.307 84.7399V87.1548H365.085V84.7399Z" fill="#58595B"/>
<path d="M331.835 83.9806C332.668 84.645 333.627 85.1828 334.724 85.5941C335.821 86.0054 336.981 86.2057 338.215 86.2057C339.438 86.2057 340.609 86.0054 341.705 85.5941C342.802 85.1828 343.762 84.645 344.595 83.9806C345.428 83.3163 346.082 82.5359 346.567 81.6501C347.052 80.7642 347.294 79.8151 347.294 78.8133C347.294 77.8115 347.052 76.8729 346.567 75.9765C346.082 75.0907 345.428 74.3103 344.595 73.6354C343.762 72.971 342.791 72.4332 341.705 72.0219C340.609 71.6106 339.448 71.4103 338.215 71.4103C336.991 71.4103 335.821 71.6106 334.724 72.0219C333.627 72.4332 332.657 72.971 331.835 73.6354C331.001 74.2998 330.348 75.0801 329.863 75.9765C329.377 76.8624 329.135 77.8115 329.135 78.8133C329.135 79.8151 329.377 80.7642 329.863 81.6501C330.348 82.5359 331.001 83.3163 331.835 83.9806ZM333.817 77.2314C334.07 76.7358 334.418 76.3034 334.861 75.9238C335.294 75.5547 335.81 75.2489 336.38 75.0274C336.96 74.7954 337.571 74.69 338.215 74.69C338.858 74.69 339.47 74.806 340.05 75.0274C340.63 75.2594 341.136 75.5547 341.568 75.9238C342.011 76.2929 342.349 76.7358 342.612 77.2314C342.865 77.7271 342.992 78.2544 342.992 78.8133C342.992 79.3722 342.865 79.8995 342.612 80.3951C342.359 80.8908 342.011 81.3231 341.568 81.7028C341.125 82.0719 340.619 82.3777 340.05 82.6097C339.47 82.8417 338.858 82.9472 338.215 82.9472C337.571 82.9472 336.96 82.8312 336.38 82.6097C335.8 82.3777 335.294 82.0824 334.861 81.7028C334.418 81.3337 334.081 80.8908 333.817 80.3951C333.564 79.8995 333.437 79.3722 333.437 78.8133C333.437 78.2544 333.564 77.7271 333.817 77.2314Z" fill="#58595B"/>
<path d="M211.393 110.861C210.919 110.682 210.528 110.556 210.244 110.482C209.948 110.408 209.59 110.366 209.179 110.366C208.926 110.366 208.683 110.387 208.44 110.44C208.198 110.492 207.976 110.577 207.766 110.693C207.565 110.809 207.396 110.977 207.28 111.188C207.164 111.399 207.101 111.652 207.101 111.948C207.101 112.391 207.27 112.739 207.597 113.013C207.924 113.276 208.44 113.582 209.147 113.92C209.632 114.152 210.033 114.352 210.339 114.531C210.655 114.711 210.95 114.943 211.235 115.217C211.52 115.491 211.752 115.828 211.931 116.219C212.11 116.609 212.195 117.073 212.195 117.6C212.195 118.212 212.089 118.739 211.868 119.192C211.646 119.646 211.34 120.015 210.94 120.3C210.539 120.584 210.086 120.795 209.569 120.932C209.052 121.07 208.483 121.133 207.86 121.133C207.491 121.133 207.112 121.091 206.722 121.006C206.342 120.922 205.909 120.795 205.435 120.637L205.604 119.055C205.962 119.203 206.374 119.33 206.816 119.456C207.259 119.572 207.681 119.635 208.061 119.635C208.324 119.635 208.588 119.604 208.862 119.53C209.136 119.456 209.39 119.34 209.622 119.182C209.854 119.024 210.043 118.823 210.18 118.57C210.318 118.317 210.391 118.032 210.391 117.706C210.391 117.41 210.328 117.157 210.212 116.936C210.096 116.714 209.927 116.514 209.716 116.314C209.432 116.092 208.915 115.797 208.166 115.449C207.702 115.227 207.323 115.027 207.027 114.858C206.732 114.689 206.447 114.489 206.184 114.236C205.909 113.983 205.699 113.688 205.54 113.34C205.382 112.992 205.298 112.57 205.298 112.106C205.298 111.083 205.656 110.292 206.363 109.733C207.08 109.164 207.987 108.889 209.094 108.889C209.506 108.889 209.927 108.921 210.37 108.995C210.813 109.058 211.235 109.174 211.625 109.322L211.393 110.861Z" fill="#58595B"/>
<path d="M220.642 120.563C220.568 120.584 220.494 120.616 220.399 120.648C220.02 120.795 219.64 120.911 219.271 120.996C218.902 121.08 218.448 121.122 217.9 121.122C216.402 121.122 215.285 120.711 214.536 119.878C213.787 119.045 213.418 117.895 213.418 116.44C213.418 115.807 213.513 115.217 213.703 114.679C213.893 114.141 214.167 113.677 214.525 113.287C214.884 112.897 215.316 112.591 215.812 112.38C216.318 112.169 216.866 112.053 217.467 112.053C218.174 112.053 218.765 112.18 219.26 112.422C219.756 112.665 220.146 113.002 220.452 113.445C220.747 113.877 220.969 114.394 221.095 114.985C221.222 115.575 221.296 116.229 221.296 116.957H215.116C215.116 117.379 215.19 117.758 215.348 118.117C215.506 118.475 215.706 118.781 215.981 119.045C216.244 119.308 216.55 119.498 216.898 119.635C217.246 119.772 217.605 119.836 217.974 119.836C218.227 119.836 218.48 119.804 218.754 119.751C219.028 119.699 219.281 119.625 219.534 119.53C219.788 119.435 219.998 119.34 220.199 119.245C220.389 119.14 220.536 119.055 220.642 118.971V120.563ZM219.608 115.765C219.608 115.08 219.418 114.5 219.028 114.046C218.649 113.593 218.121 113.361 217.446 113.361C217.077 113.361 216.74 113.424 216.466 113.561C216.181 113.698 215.949 113.877 215.759 114.109C215.569 114.341 215.432 114.605 215.327 114.89C215.221 115.175 215.158 115.47 215.126 115.765H219.608Z" fill="#58595B"/>
<path d="M222.835 114.784C223.046 114.225 223.341 113.751 223.731 113.34C224.122 112.928 224.596 112.622 225.145 112.401C225.693 112.18 226.294 112.074 226.937 112.074C227.581 112.074 228.171 112.18 228.72 112.401C229.268 112.622 229.732 112.939 230.122 113.34C230.512 113.751 230.808 114.225 231.018 114.784C231.229 115.343 231.335 115.944 231.335 116.598C231.335 117.21 231.229 117.79 231.008 118.349C230.797 118.908 230.491 119.393 230.101 119.804C229.711 120.226 229.247 120.553 228.698 120.785C228.15 121.017 227.57 121.133 226.937 121.133C226.305 121.133 225.714 121.017 225.176 120.785C224.638 120.553 224.164 120.226 223.763 119.804C223.362 119.382 223.057 118.897 222.846 118.349C222.635 117.8 222.529 117.22 222.529 116.609C222.519 115.944 222.624 115.333 222.835 114.784ZM224.385 117.769C224.491 118.159 224.66 118.496 224.892 118.813C225.113 119.129 225.398 119.372 225.746 119.561C226.094 119.751 226.494 119.846 226.948 119.846C227.401 119.846 227.792 119.751 228.14 119.561C228.477 119.372 228.762 119.129 228.983 118.813C229.205 118.496 229.373 118.159 229.479 117.769C229.584 117.389 229.637 116.999 229.637 116.598C229.637 116.176 229.574 115.776 229.447 115.396C229.321 115.016 229.141 114.668 228.909 114.352C228.677 114.036 228.393 113.793 228.055 113.624C227.718 113.445 227.338 113.361 226.937 113.361C226.516 113.361 226.146 113.445 225.809 113.624C225.472 113.804 225.187 114.046 224.955 114.352C224.712 114.668 224.533 115.016 224.417 115.396C224.29 115.786 224.227 116.187 224.227 116.598C224.217 116.988 224.28 117.379 224.385 117.769Z" fill="#58595B"/>
<path d="M240.784 120.922H239.244V119.551H239.212C238.97 120.036 238.601 120.426 238.074 120.7C237.557 120.985 236.987 121.122 236.376 121.122C235.279 121.122 234.467 120.795 233.929 120.152C233.402 119.509 233.128 118.591 233.128 117.4V112.253H234.72V116.735C234.72 117.779 234.857 118.539 235.131 119.024C235.406 119.509 235.88 119.772 236.555 119.825C237.43 119.825 238.084 119.509 238.527 118.866C238.97 118.222 239.191 117.357 239.191 116.261V112.253H240.784V120.922Z" fill="#58595B"/>
<path d="M243.367 108.193H244.96V120.922H243.367V108.193Z" fill="#58595B"/>
<path d="M252.068 109.079H253.765V120.922H252.068V109.079Z" fill="#58595B"/>
<path d="M256.296 112.264H257.836V113.635H257.868C258.11 113.15 258.479 112.76 259.007 112.485C259.523 112.201 260.093 112.064 260.704 112.064C261.801 112.064 262.613 112.38 263.151 113.023C263.678 113.667 263.953 114.584 263.953 115.776V120.922H262.36V116.44C262.36 115.396 262.223 114.637 261.949 114.152C261.675 113.667 261.2 113.403 260.525 113.35C259.65 113.35 258.996 113.667 258.553 114.31C258.11 114.953 257.889 115.818 257.889 116.915V120.922H256.296V112.264Z" fill="#58595B"/>
<path d="M270.164 120.922H268.265L265.155 112.264H266.905L269.246 119.319H269.278L271.672 112.264H273.264L270.164 120.922Z" fill="#58595B"/>
<path d="M281.11 120.563C281.047 120.584 280.963 120.616 280.868 120.648C280.488 120.795 280.108 120.911 279.739 120.996C279.37 121.08 278.917 121.122 278.368 121.122C276.871 121.122 275.753 120.711 275.004 119.878C274.256 119.045 273.886 117.895 273.886 116.44C273.886 115.807 273.981 115.217 274.171 114.679C274.361 114.141 274.635 113.677 274.994 113.287C275.352 112.897 275.785 112.591 276.28 112.38C276.787 112.169 277.335 112.053 277.936 112.053C278.643 112.053 279.233 112.18 279.729 112.422C280.224 112.665 280.615 113.002 280.92 113.445C281.216 113.877 281.437 114.394 281.564 114.985C281.69 115.575 281.764 116.229 281.764 116.957H275.584C275.584 117.379 275.658 117.758 275.816 118.117C275.964 118.475 276.175 118.781 276.449 119.045C276.713 119.308 277.019 119.498 277.367 119.635C277.715 119.772 278.073 119.836 278.442 119.836C278.695 119.836 278.948 119.804 279.223 119.751C279.497 119.699 279.75 119.625 280.003 119.53C280.256 119.435 280.467 119.34 280.667 119.245C280.857 119.14 281.005 119.055 281.11 118.971V120.563ZM280.077 115.765C280.077 115.08 279.887 114.5 279.497 114.046C279.107 113.593 278.59 113.361 277.915 113.361C277.546 113.361 277.208 113.424 276.934 113.561C276.649 113.698 276.417 113.877 276.228 114.109C276.038 114.341 275.901 114.605 275.795 114.89C275.69 115.175 275.626 115.47 275.595 115.765H280.077Z" fill="#58595B"/>
<path d="M282.924 119.224C283.219 119.414 283.557 119.572 283.947 119.678C284.327 119.783 284.653 119.836 284.917 119.836C285.349 119.836 285.729 119.73 286.056 119.53C286.383 119.33 286.552 119.013 286.552 118.602C286.552 118.286 286.425 118.022 286.172 117.822C285.919 117.621 285.518 117.389 284.98 117.126C284.622 116.957 284.327 116.809 284.116 116.683C283.905 116.556 283.694 116.408 283.493 116.229C283.293 116.05 283.124 115.828 282.998 115.586C282.871 115.333 282.808 115.059 282.808 114.742C282.808 113.888 283.093 113.224 283.662 112.77C284.232 112.317 284.97 112.085 285.856 112.085C286.193 112.085 286.52 112.116 286.826 112.169C287.132 112.222 287.469 112.306 287.849 112.422L287.712 113.814C287.543 113.709 287.269 113.614 286.9 113.519C286.531 113.424 286.235 113.371 286.035 113.371C285.603 113.371 285.244 113.466 284.949 113.645C284.653 113.825 284.506 114.088 284.506 114.426C284.506 114.774 284.632 115.048 284.885 115.248C285.139 115.449 285.529 115.67 286.067 115.923C286.415 116.081 286.71 116.219 286.931 116.345C287.153 116.472 287.374 116.619 287.575 116.809C287.775 116.999 287.944 117.22 288.07 117.495C288.197 117.769 288.26 118.085 288.26 118.444C288.26 119.319 287.965 119.983 287.374 120.447C286.784 120.911 286.077 121.143 285.233 121.143C284.769 121.143 284.348 121.112 283.947 121.038C283.557 120.975 283.188 120.848 282.85 120.669L282.924 119.224Z" fill="#58595B"/>
<path d="M294.429 113.561H292.141V118.296C292.141 118.781 292.267 119.161 292.521 119.435C292.774 119.709 293.09 119.846 293.48 119.846C293.891 119.846 294.25 119.741 294.566 119.54V120.901C294.324 120.964 294.102 121.027 293.881 121.07C293.659 121.112 293.438 121.133 293.206 121.133C292.352 121.133 291.698 120.922 291.234 120.511C290.77 120.099 290.538 119.467 290.538 118.623V113.561H288.587V112.275H290.538V110.271L292.13 109.765V112.275H294.419V113.561H294.429Z" fill="#58595B"/>
<path d="M296.074 112.264H297.572V113.519H297.603C297.909 113.023 298.289 112.654 298.732 112.412C299.175 112.169 299.723 112.053 300.356 112.053C300.883 112.053 301.379 112.19 301.822 112.475C302.265 112.76 302.602 113.171 302.813 113.73C303.087 113.16 303.488 112.739 304.015 112.464C304.542 112.19 305.038 112.053 305.502 112.053C306.546 112.053 307.305 112.348 307.78 112.949C308.265 113.54 308.497 114.352 308.497 115.364V120.911H306.905V115.755C306.905 115.459 306.884 115.175 306.841 114.89C306.799 114.605 306.715 114.352 306.599 114.12C306.483 113.888 306.325 113.698 306.124 113.561C305.924 113.424 305.671 113.35 305.365 113.35C304.985 113.35 304.637 113.435 304.342 113.614C304.047 113.793 303.804 114.025 303.625 114.331C303.435 114.626 303.298 114.974 303.214 115.354C303.129 115.734 303.087 116.145 303.087 116.556V120.922H301.495V115.765C301.495 115.47 301.474 115.185 301.432 114.9C301.389 114.616 301.305 114.363 301.2 114.131C301.084 113.899 300.925 113.709 300.725 113.572C300.525 113.435 300.271 113.361 299.966 113.361C299.575 113.361 299.238 113.445 298.943 113.624C298.647 113.804 298.405 114.036 298.226 114.341C298.036 114.637 297.899 114.985 297.814 115.364C297.73 115.744 297.688 116.155 297.688 116.567V120.932H296.095V112.264H296.074Z" fill="#58595B"/>
<path d="M317.482 120.563C317.419 120.584 317.334 120.616 317.239 120.648C316.86 120.795 316.48 120.911 316.111 120.996C315.742 121.08 315.288 121.122 314.74 121.122C313.243 121.122 312.125 120.711 311.376 119.878C310.627 119.045 310.258 117.895 310.258 116.44C310.258 115.807 310.353 115.217 310.543 114.679C310.733 114.141 311.007 113.677 311.365 113.287C311.724 112.897 312.156 112.591 312.652 112.38C313.158 112.169 313.707 112.053 314.308 112.053C315.014 112.053 315.605 112.18 316.1 112.422C316.596 112.665 316.986 113.002 317.292 113.445C317.587 113.877 317.809 114.394 317.935 114.985C318.062 115.575 318.125 116.229 318.125 116.957H311.945C311.945 117.379 312.019 117.758 312.177 118.117C312.325 118.475 312.536 118.781 312.81 119.045C313.074 119.308 313.38 119.498 313.728 119.635C314.076 119.772 314.434 119.836 314.803 119.836C315.056 119.836 315.309 119.804 315.584 119.751C315.858 119.699 316.111 119.625 316.364 119.53C316.617 119.435 316.828 119.34 317.028 119.245C317.218 119.14 317.366 119.055 317.471 118.971V120.563H317.482ZM316.448 115.765C316.448 115.08 316.259 114.5 315.868 114.046C315.478 113.593 314.961 113.361 314.287 113.361C313.917 113.361 313.591 113.424 313.306 113.561C313.021 113.698 312.789 113.877 312.599 114.109C312.409 114.341 312.272 114.605 312.167 114.89C312.061 115.175 311.998 115.47 311.967 115.765H316.448Z" fill="#58595B"/>
<path d="M319.939 112.264H321.479V113.635H321.51C321.753 113.15 322.122 112.76 322.649 112.485C323.166 112.201 323.735 112.064 324.347 112.064C325.444 112.064 326.256 112.38 326.794 113.023C327.321 113.667 327.595 114.584 327.595 115.776V120.922H326.003V116.44C326.003 115.396 325.866 114.637 325.592 114.152C325.317 113.667 324.843 113.403 324.168 113.35C323.293 113.35 322.639 113.667 322.196 114.31C321.753 114.953 321.531 115.818 321.531 116.915V120.922H319.939V112.264Z" fill="#58595B"/>
<path d="M334.576 113.561H332.288V118.296C332.288 118.781 332.414 119.161 332.668 119.435C332.921 119.709 333.237 119.846 333.627 119.846C334.038 119.846 334.397 119.741 334.713 119.54V120.901C334.471 120.964 334.249 121.027 334.028 121.07C333.806 121.112 333.585 121.133 333.353 121.133C332.499 121.133 331.845 120.922 331.381 120.511C330.917 120.099 330.685 119.467 330.685 118.623V113.561H328.734V112.275H330.685V110.271L332.277 109.765V112.275H334.566V113.561H334.576Z" fill="#58595B"/>
<path d="M340.788 109.079H343.593L347.305 118.929L350.954 109.079H353.759V120.922H352.061V110.672H352.029L348.106 120.922H346.44L342.517 110.672H342.486V120.922H340.788V109.079Z" fill="#58595B"/>
<path d="M356.701 112.876C357.618 112.338 358.568 112.064 359.548 112.064C360.761 112.064 361.636 112.359 362.195 112.96C362.754 113.551 363.028 114.447 363.028 115.649V119.235C363.028 119.709 363.039 120.078 363.049 120.331C363.06 120.584 363.081 120.785 363.102 120.932H361.605V119.815H361.573C361.32 120.163 360.972 120.479 360.529 120.743C360.086 121.006 359.538 121.143 358.894 121.143C357.924 121.143 357.154 120.922 356.574 120.468C356.005 120.026 355.72 119.351 355.72 118.444C355.72 117.937 355.847 117.495 356.089 117.115C356.342 116.746 356.669 116.44 357.07 116.219C357.481 115.997 357.914 115.839 358.367 115.733C358.821 115.628 359.285 115.575 359.738 115.575C360.128 115.575 360.424 115.575 360.634 115.575C360.845 115.575 361.12 115.586 361.436 115.607C361.436 114.837 361.278 114.268 360.951 113.899C360.624 113.529 360.076 113.35 359.295 113.35C358.842 113.35 358.388 113.435 357.935 113.593C357.481 113.751 357.102 113.962 356.785 114.236L356.701 112.876ZM361.436 116.799C361.32 116.799 361.151 116.799 360.93 116.777C360.708 116.767 360.529 116.756 360.424 116.756C360.118 116.756 359.812 116.777 359.496 116.809C359.179 116.841 358.863 116.915 358.546 117.031C358.23 117.147 357.966 117.315 357.745 117.537C357.534 117.769 357.418 118.053 357.418 118.423C357.418 118.855 357.587 119.192 357.914 119.446C358.251 119.699 358.62 119.825 359.021 119.825C359.791 119.825 360.381 119.614 360.803 119.192C361.225 118.771 361.436 118.222 361.436 117.558V116.799Z" fill="#58595B"/>
<path d="M365.391 112.264H366.93V113.635H366.962C367.204 113.15 367.574 112.76 368.101 112.485C368.618 112.201 369.187 112.064 369.799 112.064C370.895 112.064 371.707 112.38 372.245 113.023C372.773 113.667 373.047 114.584 373.047 115.776V120.922H371.454V116.44C371.454 115.396 371.317 114.637 371.043 114.152C370.769 113.667 370.294 113.403 369.619 113.35C368.744 113.35 368.09 113.667 367.647 114.31C367.204 114.953 366.983 115.818 366.983 116.915V120.922H365.391V112.264Z" fill="#58595B"/>
<path d="M375.831 112.876C376.748 112.338 377.697 112.064 378.678 112.064C379.891 112.064 380.766 112.359 381.325 112.96C381.884 113.551 382.158 114.447 382.158 115.649V119.235C382.158 119.709 382.169 120.078 382.179 120.331C382.19 120.584 382.211 120.785 382.232 120.932H380.734V119.815H380.703C380.45 120.163 380.102 120.479 379.659 120.743C379.216 121.006 378.667 121.143 378.024 121.143C377.054 121.143 376.284 120.922 375.704 120.468C375.135 120.026 374.85 119.351 374.85 118.444C374.85 117.937 374.977 117.495 375.219 117.115C375.472 116.746 375.799 116.44 376.2 116.219C376.611 115.997 377.043 115.839 377.497 115.733C377.95 115.628 378.414 115.575 378.868 115.575C379.247 115.575 379.553 115.575 379.764 115.575C379.975 115.575 380.249 115.586 380.566 115.607C380.566 114.837 380.407 114.268 380.081 113.899C379.754 113.529 379.205 113.35 378.425 113.35C377.971 113.35 377.518 113.435 377.065 113.593C376.611 113.751 376.231 113.962 375.915 114.236L375.831 112.876ZM380.566 116.799C380.45 116.799 380.281 116.799 380.059 116.777C379.827 116.767 379.659 116.756 379.553 116.756C379.247 116.756 378.942 116.777 378.625 116.809C378.309 116.841 377.993 116.915 377.676 117.031C377.36 117.147 377.096 117.315 376.875 117.537C376.664 117.769 376.548 118.053 376.548 118.423C376.548 118.855 376.717 119.192 377.043 119.446C377.381 119.699 377.75 119.825 378.161 119.825C378.931 119.825 379.522 119.614 379.943 119.192C380.365 118.771 380.576 118.222 380.576 117.558V116.799H380.566Z" fill="#58595B"/>
<path d="M392.176 120.553C392.176 121.903 391.807 122.926 391.08 123.632C390.352 124.339 389.224 124.697 387.716 124.697C387.241 124.697 386.777 124.655 386.313 124.571C385.86 124.486 385.29 124.328 384.605 124.107L384.773 122.63C385.406 122.926 385.944 123.126 386.387 123.242C386.83 123.358 387.336 123.411 387.895 123.411C388.728 123.411 389.392 123.147 389.867 122.609C390.341 122.082 390.584 121.354 390.584 120.437V119.583H390.552C390.225 120.026 389.804 120.363 389.287 120.584C388.77 120.806 388.222 120.922 387.652 120.922C387.051 120.922 386.513 120.806 386.049 120.584C385.575 120.363 385.185 120.047 384.879 119.646C384.562 119.245 384.33 118.792 384.183 118.275C384.035 117.758 383.951 117.22 383.951 116.651C383.951 116.071 384.025 115.512 384.193 114.974C384.352 114.436 384.594 113.941 384.921 113.498C385.248 113.055 385.659 112.707 386.144 112.443C386.629 112.18 387.188 112.053 387.821 112.053C388.559 112.053 389.15 112.18 389.614 112.433C390.067 112.686 390.426 113.055 390.679 113.54H390.711V112.253H392.187V120.553H392.176ZM389.867 118.792C390.341 118.222 390.584 117.526 390.584 116.704C390.584 115.744 390.363 114.943 389.93 114.31C389.498 113.677 388.865 113.361 388.053 113.361C387.673 113.361 387.325 113.456 387.02 113.645C386.714 113.835 386.461 114.088 386.26 114.405C386.06 114.721 385.902 115.069 385.807 115.449C385.701 115.828 385.659 116.208 385.659 116.598C385.659 117.442 385.881 118.17 386.324 118.76C386.766 119.351 387.346 119.656 388.074 119.656C388.781 119.635 389.392 119.351 389.867 118.792Z" fill="#58595B"/>
<path d="M401.182 120.563C401.109 120.584 401.035 120.616 400.94 120.648C400.56 120.795 400.18 120.911 399.811 120.996C399.442 121.08 398.989 121.122 398.44 121.122C396.943 121.122 395.825 120.711 395.076 119.878C394.328 119.045 393.959 117.895 393.959 116.44C393.959 115.807 394.054 115.217 394.243 114.679C394.433 114.141 394.707 113.677 395.066 113.287C395.424 112.897 395.857 112.591 396.352 112.38C396.859 112.169 397.407 112.053 398.008 112.053C398.715 112.053 399.305 112.18 399.801 112.422C400.297 112.665 400.687 113.002 400.992 113.445C401.288 113.877 401.509 114.394 401.636 114.985C401.762 115.575 401.836 116.229 401.836 116.957H395.656C395.656 117.379 395.73 117.758 395.888 118.117C396.047 118.475 396.247 118.781 396.521 119.045C396.785 119.308 397.091 119.498 397.439 119.635C397.787 119.772 398.145 119.836 398.514 119.836C398.767 119.836 399.02 119.804 399.295 119.751C399.569 119.699 399.822 119.625 400.075 119.53C400.328 119.435 400.55 119.34 400.739 119.245C400.929 119.14 401.077 119.055 401.182 118.971V120.563ZM400.149 115.765C400.149 115.08 399.959 114.5 399.569 114.046C399.179 113.593 398.662 113.361 397.987 113.361C397.618 113.361 397.28 113.424 397.006 113.561C396.722 113.698 396.49 113.877 396.3 114.109C396.11 114.341 395.973 114.605 395.867 114.89C395.762 115.175 395.699 115.47 395.667 115.765H400.149Z" fill="#58595B"/>
<path d="M403.629 112.264H405.126V113.519H405.158C405.464 113.023 405.843 112.654 406.286 112.412C406.729 112.169 407.278 112.053 407.91 112.053C408.438 112.053 408.933 112.19 409.376 112.475C409.819 112.76 410.157 113.171 410.368 113.73C410.642 113.16 411.042 112.739 411.57 112.464C412.097 112.19 412.593 112.053 413.057 112.053C414.101 112.053 414.86 112.348 415.335 112.949C415.82 113.54 416.052 114.352 416.052 115.364V120.911H414.459V115.755C414.459 115.459 414.438 115.175 414.396 114.89C414.354 114.605 414.269 114.352 414.153 114.12C414.037 113.888 413.879 113.698 413.679 113.561C413.479 113.424 413.225 113.35 412.92 113.35C412.54 113.35 412.192 113.435 411.897 113.614C411.601 113.793 411.359 114.025 411.18 114.331C410.99 114.626 410.853 114.974 410.768 115.354C410.684 115.734 410.642 116.145 410.642 116.556V120.922H409.049V115.765C409.049 115.47 409.028 115.185 408.986 114.9C408.944 114.616 408.86 114.363 408.754 114.131C408.638 113.899 408.48 113.709 408.28 113.572C408.079 113.435 407.826 113.361 407.52 113.361C407.13 113.361 406.793 113.445 406.497 113.624C406.202 113.804 405.959 114.036 405.78 114.341C405.59 114.637 405.453 114.985 405.369 115.364C405.285 115.744 405.242 116.155 405.242 116.567V120.932H403.65V112.264H403.629Z" fill="#58595B"/>
<path d="M425.036 120.563C424.973 120.584 424.889 120.616 424.794 120.648C424.414 120.795 424.035 120.911 423.666 120.996C423.296 121.08 422.843 121.122 422.295 121.122C420.797 121.122 419.679 120.711 418.931 119.878C418.182 119.045 417.813 117.895 417.813 116.44C417.813 115.807 417.908 115.217 418.097 114.679C418.287 114.141 418.561 113.677 418.92 113.287C419.279 112.897 419.711 112.591 420.207 112.38C420.713 112.169 421.261 112.053 421.862 112.053C422.569 112.053 423.159 112.18 423.655 112.422C424.151 112.665 424.541 113.002 424.847 113.445C425.142 113.877 425.363 114.394 425.49 114.985C425.616 115.575 425.68 116.229 425.68 116.957H419.5C419.5 117.379 419.574 117.758 419.732 118.117C419.89 118.475 420.091 118.781 420.365 119.045C420.628 119.308 420.934 119.498 421.282 119.635C421.63 119.772 421.989 119.836 422.358 119.836C422.611 119.836 422.864 119.804 423.138 119.751C423.412 119.699 423.666 119.625 423.919 119.53C424.172 119.435 424.393 119.34 424.583 119.245C424.773 119.14 424.92 119.055 425.026 118.971V120.563H425.036ZM423.992 115.765C423.992 115.08 423.803 114.5 423.412 114.046C423.022 113.593 422.506 113.361 421.831 113.361C421.462 113.361 421.124 113.424 420.85 113.561C420.565 113.698 420.333 113.877 420.143 114.109C419.953 114.341 419.816 114.605 419.711 114.89C419.605 115.175 419.542 115.47 419.511 115.765H423.992Z" fill="#58595B"/>
<path d="M427.494 112.264H429.033V113.635H429.065C429.307 113.15 429.676 112.76 430.204 112.485C430.72 112.201 431.29 112.064 431.902 112.064C432.998 112.064 433.81 112.38 434.348 113.023C434.875 113.667 435.15 114.584 435.15 115.776V120.922H433.557V116.44C433.557 115.396 433.42 114.637 433.146 114.152C432.872 113.667 432.397 113.403 431.722 113.35C430.847 113.35 430.193 113.667 429.75 114.31C429.307 114.953 429.086 115.818 429.086 116.915V120.922H427.494V112.264Z" fill="#58595B"/>
<path d="M442.12 113.561H439.832V118.296C439.832 118.781 439.958 119.161 440.212 119.435C440.465 119.709 440.781 119.846 441.171 119.846C441.582 119.846 441.941 119.741 442.257 119.54V120.901C442.015 120.964 441.793 121.027 441.572 121.07C441.35 121.112 441.129 121.133 440.897 121.133C440.053 121.133 439.389 120.922 438.925 120.511C438.461 120.099 438.229 119.467 438.229 118.623V113.561H436.278V112.275H438.229V110.271L439.821 109.765V112.275H442.11V113.561H442.12Z" fill="#58595B"/>
<path d="M456.494 111.03C455.745 110.587 454.933 110.366 454.047 110.366C453.383 110.366 452.761 110.482 452.202 110.703C451.633 110.925 451.158 111.252 450.747 111.673C450.346 112.095 450.04 112.591 449.819 113.16C449.608 113.73 449.492 114.341 449.492 115.006C449.492 115.681 449.608 116.313 449.829 116.883C450.051 117.452 450.378 117.948 450.789 118.359C451.2 118.771 451.685 119.087 452.223 119.308C452.771 119.53 453.341 119.635 453.953 119.635C454.395 119.635 454.859 119.583 455.366 119.477C455.861 119.372 456.251 119.235 456.536 119.066L456.642 120.711C456.241 120.88 455.809 120.996 455.345 121.048C454.881 121.101 454.406 121.133 453.942 121.133C453.014 121.133 452.17 120.985 451.4 120.7C450.631 120.416 449.966 119.994 449.418 119.456C448.859 118.918 448.437 118.264 448.142 117.495C447.847 116.735 447.699 115.881 447.699 114.953C447.699 114.057 447.857 113.234 448.152 112.485C448.458 111.737 448.891 111.093 449.46 110.556C450.03 110.018 450.694 109.606 451.464 109.311C452.234 109.016 453.067 108.879 453.963 108.879C454.965 108.879 455.861 109.048 456.631 109.385L456.494 111.03Z" fill="#58595B"/>
<path d="M457.928 114.784C458.139 114.225 458.434 113.751 458.825 113.34C459.215 112.928 459.689 112.622 460.238 112.401C460.786 112.18 461.387 112.074 462.03 112.074C462.674 112.074 463.264 112.18 463.813 112.401C464.361 112.622 464.825 112.939 465.215 113.34C465.605 113.751 465.901 114.225 466.111 114.784C466.322 115.343 466.428 115.944 466.428 116.598C466.428 117.21 466.322 117.79 466.101 118.349C465.89 118.908 465.584 119.393 465.194 119.804C464.804 120.226 464.34 120.553 463.791 120.785C463.254 121.017 462.663 121.133 462.03 121.133C461.398 121.133 460.807 121.017 460.269 120.785C459.731 120.553 459.257 120.226 458.856 119.804C458.455 119.382 458.15 118.897 457.939 118.349C457.728 117.8 457.622 117.22 457.622 116.609C457.622 115.944 457.717 115.333 457.928 114.784ZM459.478 117.769C459.584 118.159 459.753 118.496 459.985 118.813C460.206 119.129 460.491 119.372 460.839 119.561C461.187 119.751 461.587 119.846 462.041 119.846C462.494 119.846 462.885 119.751 463.233 119.561C463.57 119.372 463.855 119.129 464.076 118.813C464.298 118.496 464.466 118.159 464.572 117.769C464.677 117.389 464.73 116.999 464.73 116.598C464.73 116.176 464.667 115.776 464.54 115.396C464.414 115.016 464.234 114.668 464.002 114.352C463.77 114.036 463.486 113.793 463.148 113.624C462.811 113.445 462.431 113.361 462.03 113.361C461.609 113.361 461.239 113.445 460.902 113.624C460.565 113.804 460.28 114.046 460.048 114.352C459.805 114.668 459.626 115.016 459.499 115.396C459.373 115.786 459.31 116.187 459.31 116.598C459.32 116.988 459.373 117.379 459.478 117.769Z" fill="#58595B"/>
<path d="M467.598 119.024H469.497V120.922H467.598V119.024Z" fill="#58595B"/>
<path d="M471.3 119.024H473.198L471.753 123.179H470.224L471.3 119.024Z" fill="#58595B"/>
<path d="M476.741 109.079H478.439V119.435H483.396V120.932H476.741V109.079Z" fill="#58595B"/>
<path d="M489.354 113.561H487.066V118.296C487.066 118.781 487.192 119.161 487.445 119.435C487.698 119.709 488.015 119.846 488.405 119.846C488.816 119.846 489.175 119.741 489.491 119.54V120.901C489.249 120.964 489.027 121.027 488.806 121.07C488.584 121.112 488.363 121.133 488.131 121.133C487.276 121.133 486.623 120.922 486.159 120.511C485.695 120.099 485.463 119.467 485.463 118.623V113.561H483.512V112.275H485.463V110.271L487.055 109.765V112.275H489.343V113.561H489.354Z" fill="#58595B"/>
<path d="M497.147 119.699H497.116C496.863 120.078 496.483 120.416 495.977 120.7C495.471 120.985 494.859 121.122 494.163 121.122C493.53 121.122 492.982 120.996 492.507 120.743C492.033 120.49 491.653 120.142 491.347 119.699C491.041 119.256 490.82 118.76 490.672 118.201C490.525 117.642 490.451 117.052 490.451 116.44C490.451 115.849 490.525 115.291 490.693 114.763C490.852 114.236 491.084 113.761 491.4 113.361C491.716 112.96 492.106 112.644 492.57 112.412C493.045 112.18 493.583 112.064 494.194 112.064C494.912 112.064 495.492 112.19 495.956 112.433C496.42 112.686 496.789 113.023 497.063 113.456H497.095V108.193H498.687V120.922H497.158V119.699H497.147ZM492.286 117.695C492.381 118.085 492.528 118.433 492.729 118.76C492.929 119.087 493.182 119.34 493.488 119.54C493.794 119.741 494.142 119.836 494.543 119.836C494.975 119.836 495.355 119.741 495.681 119.551C496.008 119.361 496.272 119.108 496.483 118.792C496.683 118.475 496.841 118.127 496.936 117.758C497.042 117.389 497.095 117.009 497.095 116.619C497.095 116.197 497.042 115.797 496.936 115.417C496.831 115.037 496.662 114.679 496.451 114.373C496.24 114.057 495.966 113.814 495.65 113.635C495.323 113.456 494.954 113.361 494.543 113.361C494.131 113.361 493.783 113.445 493.477 113.614C493.172 113.783 492.918 114.025 492.729 114.331C492.539 114.637 492.391 114.974 492.307 115.354C492.212 115.733 492.17 116.134 492.17 116.567C492.138 116.936 492.191 117.315 492.286 117.695Z" fill="#58595B"/>
<path d="M501.102 119.024H503V120.922H501.102V119.024Z" fill="#58595B"/>
</g>
<defs>
<linearGradient id="paint0_linear" x1="144.435" y1="124.899" x2="132.122" y2="103.572" gradientUnits="userSpaceOnUse">
<stop stop-color="#6E4D2B"/>
<stop offset="0.0109" stop-color="#71502D"/>
<stop offset="0.0771" stop-color="#855F39"/>
<stop offset="0.1502" stop-color="#956C43"/>
<stop offset="0.2329" stop-color="#A0754A"/>
<stop offset="0.3332" stop-color="#A77A4E"/>
<stop offset="0.5" stop-color="#A97C50"/>
</linearGradient>
<linearGradient id="paint1_linear" x1="139.909" y1="107.513" x2="150.62" y2="88.9611" gradientUnits="userSpaceOnUse">
<stop stop-color="#81613F"/>
<stop offset="0.0158" stop-color="#886743"/>
<stop offset="0.0894" stop-color="#A68055"/>
<stop offset="0.1647" stop-color="#BF9563"/>
<stop offset="0.2415" stop-color="#D2A56D"/>
<stop offset="0.3208" stop-color="#DEAF74"/>
<stop offset="0.4064" stop-color="#E4B477"/>
</linearGradient>
<radialGradient id="paint2_radial" cx="0" cy="0" r="1" gradientUnits="userSpaceOnUse" gradientTransform="translate(156.144 60.2987) scale(56.1848)">
<stop stop-color="#00A1E4"/>
<stop offset="0.1102" stop-color="#009BDD"/>
<stop offset="0.2872" stop-color="#008ECC"/>
<stop offset="0.509" stop-color="#007AB6"/>
<stop offset="0.7642" stop-color="#00619C"/>
<stop offset="1" stop-color="#104685"/>
</radialGradient>
<linearGradient id="paint3_linear" x1="172.942" y1="107.75" x2="162.231" y2="126.302" gradientUnits="userSpaceOnUse">
<stop stop-color="#81613F"/>
<stop offset="0.0158" stop-color="#886743"/>
<stop offset="0.0894" stop-color="#A68055"/>
<stop offset="0.1647" stop-color="#BF9563"/>
<stop offset="0.2415" stop-color="#D2A56D"/>
<stop offset="0.3208" stop-color="#DEAF74"/>
<stop offset="0.4064" stop-color="#E4B477"/>
</linearGradient>
<linearGradient id="paint4_linear" x1="168.867" y1="90.3634" x2="181.18" y2="111.69" gradientUnits="userSpaceOnUse">
<stop stop-color="#6E4D2B"/>
<stop offset="0.0109" stop-color="#71502D"/>
<stop offset="0.0771" stop-color="#855F39"/>
<stop offset="0.1502" stop-color="#956C43"/>
<stop offset="0.2329" stop-color="#A0754A"/>
<stop offset="0.3332" stop-color="#A77A4E"/>
<stop offset="0.5" stop-color="#A97C50"/>
</linearGradient>
<clipPath id="clip0">
<rect width="380" height="76.1076" fill="white" transform="translate(123 60)"/>
</clipPath>
</defs>
</svg>
