<svg width="630" height="200" viewBox="0 0 630 200" fill="none" xmlns="http://www.w3.org/2000/svg">
<rect x="0.5" y="0.5" width="629" height="199" fill="white" stroke="#DDDDDD"/>
<line y1="11.9224" x2="630" y2="11.9224" stroke="#DDDDDD"/>
<line y1="23.7236" x2="630" y2="23.7236" stroke="#DDDDDD"/>
<line y1="35.5249" x2="630" y2="35.5249" stroke="#DDDDDD"/>
<line y1="47.326" x2="630" y2="47.326" stroke="#DDDDDD"/>
<line y1="59.1273" x2="630" y2="59.1273" stroke="#DDDDDD"/>
<line y1="70.9286" x2="630" y2="70.9286" stroke="#DDDDDD"/>
<line y1="82.7299" x2="630" y2="82.7299" stroke="#DDDDDD"/>
<line y1="94.531" x2="630" y2="94.531" stroke="#DDDDDD"/>
<line y1="106.332" x2="630" y2="106.332" stroke="#DDDDDD"/>
<line y1="118.134" x2="630" y2="118.134" stroke="#DDDDDD"/>
<line y1="129.935" x2="630" y2="129.935" stroke="#DDDDDD"/>
<line y1="141.736" x2="630" y2="141.736" stroke="#DDDDDD"/>
<line y1="153.537" x2="630" y2="153.537" stroke="#DDDDDD"/>
<line y1="165.339" x2="630" y2="165.339" stroke="#DDDDDD"/>
<line y1="177.14" x2="630" y2="177.14" stroke="#DDDDDD"/>
<line y1="188.941" x2="630" y2="188.941" stroke="#DDDDDD"/>
<line x1="150.617" y1="2.7443e-08" x2="150.617" y2="200" stroke="#DDDDDD"/>
<line x1="300.242" y1="2.7443e-08" x2="300.242" y2="200" stroke="#DDDDDD"/>
<line x1="449.867" y1="2.7443e-08" x2="449.867" y2="200" stroke="#DDDDDD"/>
<line x1="599.492" y1="2.7443e-08" x2="599.492" y2="200" stroke="#DDDDDD"/>
<line x1="141.266" y1="2.7443e-08" x2="141.266" y2="200" stroke="#DDDDDD"/>
<line x1="290.891" y1="2.7443e-08" x2="290.891" y2="200" stroke="#DDDDDD"/>
<line x1="440.516" y1="2.7443e-08" x2="440.516" y2="200" stroke="#DDDDDD"/>
<line x1="590.141" y1="2.7443e-08" x2="590.141" y2="200" stroke="#DDDDDD"/>
<line x1="618.195" y1="2.7443e-08" x2="618.195" y2="200" stroke="#DDDDDD"/>
<line x1="131.914" y1="2.7443e-08" x2="131.914" y2="200" stroke="#DDDDDD"/>
<line x1="281.539" y1="2.7443e-08" x2="281.539" y2="200" stroke="#DDDDDD"/>
<line x1="431.164" y1="2.7443e-08" x2="431.164" y2="200" stroke="#DDDDDD"/>
<line x1="580.789" y1="2.7443e-08" x2="580.789" y2="200" stroke="#DDDDDD"/>
<line x1="608.844" y1="2.7443e-08" x2="608.844" y2="200" stroke="#DDDDDD"/>
<line x1="122.562" y1="2.7443e-08" x2="122.562" y2="200" stroke="#DDDDDD"/>
<line x1="272.188" y1="2.7443e-08" x2="272.188" y2="200" stroke="#DDDDDD"/>
<line x1="421.812" y1="2.7443e-08" x2="421.812" y2="200" stroke="#DDDDDD"/>
<line x1="571.438" y1="2.7443e-08" x2="571.438" y2="200" stroke="#DDDDDD"/>
<line x1="113.211" y1="2.7443e-08" x2="113.211" y2="200" stroke="#DDDDDD"/>
<line x1="262.836" y1="2.7443e-08" x2="262.836" y2="200" stroke="#DDDDDD"/>
<line x1="412.461" y1="2.7443e-08" x2="412.461" y2="200" stroke="#DDDDDD"/>
<line x1="562.086" y1="2.7443e-08" x2="562.086" y2="200" stroke="#DDDDDD"/>
<line x1="103.859" y1="2.7443e-08" x2="103.859" y2="200" stroke="#DDDDDD"/>
<line x1="253.484" y1="2.7443e-08" x2="253.484" y2="200" stroke="#DDDDDD"/>
<line x1="403.109" y1="2.7443e-08" x2="403.109" y2="200" stroke="#DDDDDD"/>
<line x1="552.734" y1="2.7443e-08" x2="552.734" y2="200" stroke="#DDDDDD"/>
<line x1="94.5077" y1="2.7443e-08" x2="94.5077" y2="200" stroke="#DDDDDD"/>
<line x1="244.133" y1="2.7443e-08" x2="244.133" y2="200" stroke="#DDDDDD"/>
<line x1="393.758" y1="2.7443e-08" x2="393.758" y2="200" stroke="#DDDDDD"/>
<line x1="543.383" y1="2.7443e-08" x2="543.383" y2="200" stroke="#DDDDDD"/>
<line x1="85.1562" y1="2.7443e-08" x2="85.1562" y2="200" stroke="#DDDDDD"/>
<line x1="234.781" y1="2.7443e-08" x2="234.781" y2="200" stroke="#DDDDDD"/>
<line x1="384.406" y1="2.7443e-08" x2="384.406" y2="200" stroke="#DDDDDD"/>
<line x1="534.031" y1="2.7443e-08" x2="534.031" y2="200" stroke="#DDDDDD"/>
<line x1="75.8047" y1="2.7443e-08" x2="75.8047" y2="200" stroke="#DDDDDD"/>
<line x1="225.43" y1="2.7443e-08" x2="225.43" y2="200" stroke="#DDDDDD"/>
<line x1="375.055" y1="2.7443e-08" x2="375.055" y2="200" stroke="#DDDDDD"/>
<line x1="524.68" y1="2.7443e-08" x2="524.68" y2="200" stroke="#DDDDDD"/>
<line x1="66.4531" y1="2.7443e-08" x2="66.4531" y2="200" stroke="#DDDDDD"/>
<line x1="216.078" y1="2.7443e-08" x2="216.078" y2="200" stroke="#DDDDDD"/>
<line x1="365.703" y1="2.7443e-08" x2="365.703" y2="200" stroke="#DDDDDD"/>
<line x1="515.328" y1="2.7443e-08" x2="515.328" y2="200" stroke="#DDDDDD"/>
<line x1="57.1017" y1="2.7443e-08" x2="57.1017" y2="200" stroke="#DDDDDD"/>
<line x1="206.727" y1="2.7443e-08" x2="206.727" y2="200" stroke="#DDDDDD"/>
<line x1="356.352" y1="2.7443e-08" x2="356.352" y2="200" stroke="#DDDDDD"/>
<line x1="505.977" y1="2.7443e-08" x2="505.977" y2="200" stroke="#DDDDDD"/>
<line x1="47.7499" y1="2.7443e-08" x2="47.7499" y2="200" stroke="#DDDDDD"/>
<line x1="197.375" y1="2.7443e-08" x2="197.375" y2="200" stroke="#DDDDDD"/>
<line x1="347" y1="2.7443e-08" x2="347" y2="200" stroke="#DDDDDD"/>
<line x1="496.625" y1="2.7443e-08" x2="496.625" y2="200" stroke="#DDDDDD"/>
<line x1="38.3984" y1="2.7443e-08" x2="38.3984" y2="200" stroke="#DDDDDD"/>
<line x1="188.023" y1="2.7443e-08" x2="188.023" y2="200" stroke="#DDDDDD"/>
<line x1="337.648" y1="2.7443e-08" x2="337.648" y2="200" stroke="#DDDDDD"/>
<line x1="487.273" y1="2.7443e-08" x2="487.273" y2="200" stroke="#DDDDDD"/>
<line x1="29.0469" y1="2.7443e-08" x2="29.0469" y2="200" stroke="#DDDDDD"/>
<line x1="178.672" y1="2.7443e-08" x2="178.672" y2="200" stroke="#DDDDDD"/>
<line x1="328.297" y1="2.7443e-08" x2="328.297" y2="200" stroke="#DDDDDD"/>
<line x1="477.922" y1="2.7443e-08" x2="477.922" y2="200" stroke="#DDDDDD"/>
<line x1="19.6953" y1="2.7443e-08" x2="19.6953" y2="200" stroke="#DDDDDD"/>
<line x1="169.32" y1="2.7443e-08" x2="169.32" y2="200" stroke="#DDDDDD"/>
<line x1="318.945" y1="2.7443e-08" x2="318.945" y2="200" stroke="#DDDDDD"/>
<line x1="468.57" y1="2.7443e-08" x2="468.57" y2="200" stroke="#DDDDDD"/>
<line x1="10.3439" y1="2.7443e-08" x2="10.3439" y2="200" stroke="#DDDDDD"/>
<line x1="159.969" y1="2.7443e-08" x2="159.969" y2="200" stroke="#DDDDDD"/>
<line x1="309.594" y1="2.7443e-08" x2="309.594" y2="200" stroke="#DDDDDD"/>
<line x1="459.219" y1="2.7443e-08" x2="459.219" y2="200" stroke="#DDDDDD"/>
<g clip-path="url(#clip0)">
<path d="M298.155 90.1191L280.531 79.9827V98.2011C280.531 99.463 281.209 100.631 282.294 101.257L298.145 110.371L315.769 100.235L298.155 90.1191Z" fill="url(#paint0_linear)"/>
<path d="M315.769 59.7202L298.155 69.8567L280.531 79.9827L298.155 90.1191L315.769 79.9827L333.393 69.8567L315.769 59.7202Z" fill="url(#paint1_linear)"/>
<path d="M333.393 49.5942L317.521 40.4693C316.437 39.8436 315.091 39.8436 314.007 40.4693L298.156 49.5942L282.304 58.7086C281.209 59.3343 280.542 60.5023 280.542 61.7641V79.9826L298.166 69.8566L315.79 59.7306L333.414 69.8566L351.028 79.9826V61.7641C351.028 60.5023 350.35 59.3343 349.265 58.7086L333.393 49.5942Z" fill="url(#paint2_radial)"/>
<path d="M315.769 79.9827L298.156 90.1191L315.769 100.245L333.393 90.1191L315.769 79.9827Z" fill="#53340A"/>
<path d="M350.538 99.9739L333.393 90.119L315.78 100.245L298.156 110.371L314.017 119.496C315.102 120.122 316.447 120.122 317.532 119.496L333.393 110.371L349.244 101.257C349.787 100.944 350.225 100.495 350.538 99.9739Z" fill="url(#paint3_linear)"/>
<path d="M351.007 98.2115V79.9826L333.383 69.8566L315.769 79.9826L333.383 90.119L350.527 99.9739C350.84 99.442 351.007 98.8372 351.007 98.2115Z" fill="url(#paint4_linear)"/>
<path d="M263.147 138.027H276.35V136.046H265.108V134.565H276.35V132.584H265.108V131.103H276.35V129.121H263.147C262.793 129.121 262.501 129.413 262.501 129.768V137.381C262.49 137.735 262.782 138.027 263.147 138.027Z" fill="#58595B"/>
<path d="M238.202 133.95H233.635L231.601 129.309C231.372 128.788 230.642 128.788 230.412 129.309L225 141.542H227.618L230.986 134.002L234.354 141.542H236.972L234.594 136.14H238.202V146.214H240.841V129.111H238.202V133.95Z" fill="#58595B"/>
<path d="M290.626 131.291V129.111H279.676V131.291H283.514L279.238 141.542H281.856L285.224 133.46L288.52 141.542H291.137L286.882 131.291H290.626Z" fill="#58595B"/>
<path d="M294.568 129.111H291.93V146.214H294.568V136.964H297.081V134.555H294.568V129.111Z" fill="#58595B"/>
<path d="M302.035 140.76H299.355V145.557C299.355 145.911 299.647 146.203 300.001 146.203H313.569V144.013H302.035V140.76Z" fill="#58595B"/>
<path d="M337.825 137.454L342.32 132.438L346.815 137.454H350.047L344.437 131.249H349.609V129.111H335.03V131.249H340.203L334.592 137.454H337.825Z" fill="#58595B"/>
<path d="M367.619 129.111H364.981V137.871H367.619V129.111Z" fill="#58595B"/>
<path d="M357.639 132.563L360.893 137.464H363.667L358.171 128.819C357.91 128.412 357.326 128.412 357.076 128.819L351.58 137.464H354.396L357.639 132.563Z" fill="#58595B"/>
<path d="M383.022 141.145H377.245V138.997C377.422 138.945 377.599 138.893 377.766 138.82C378.329 138.59 378.84 138.288 379.268 137.892C379.706 137.506 380.05 137.047 380.3 136.526C380.55 136.004 380.676 135.451 380.676 134.878C380.676 134.304 380.55 133.752 380.3 133.241C380.154 132.969 379.987 132.698 379.789 132.448H381.531V130.31H377.245V128.433H374.606V130.321H370.153V132.458H372.051C371.853 132.709 371.686 132.969 371.54 133.251C371.29 133.762 371.165 134.315 371.165 134.888C371.165 135.462 371.29 136.015 371.54 136.536C371.791 137.057 372.135 137.516 372.573 137.902C373.011 138.288 373.522 138.601 374.095 138.83C374.252 138.903 374.419 138.955 374.596 138.997V141.145H370.007V143.127H383.001V146.214H385.64V129.111H383.001V141.145H383.022ZM374.325 136.432C373.887 136.004 373.657 135.493 373.657 134.888C373.657 134.283 373.876 133.772 374.325 133.345C374.763 132.917 375.295 132.709 375.92 132.709C376.546 132.709 377.067 132.928 377.516 133.345C377.954 133.772 378.183 134.294 378.183 134.888C378.183 135.493 377.964 136.004 377.516 136.432C377.078 136.859 376.546 137.078 375.92 137.078C375.305 137.068 374.773 136.859 374.325 136.432Z" fill="#58595B"/>
<path d="M255.409 135.524C255.91 135.128 256.306 134.659 256.598 134.117C256.89 133.585 257.036 133.011 257.036 132.406C257.036 131.801 256.89 131.238 256.598 130.706C256.306 130.175 255.91 129.705 255.409 129.299C254.909 128.902 254.325 128.579 253.668 128.329C253.011 128.078 252.312 127.964 251.572 127.964C250.831 127.964 250.132 128.089 249.475 128.329C248.818 128.569 248.234 128.892 247.734 129.299C247.233 129.695 246.837 130.164 246.545 130.706C246.253 131.249 246.107 131.812 246.107 132.406C246.107 133.011 246.253 133.574 246.545 134.117C246.837 134.648 247.233 135.118 247.734 135.524C247.89 135.65 248.057 135.764 248.224 135.879H243.406V137.86H250.278V138.976H249.507H244.459V140.812H256.108V141.792H244.459V145.567C244.459 145.922 244.751 146.214 245.106 146.214H258.705V144.378H247.077V143.398H258.725V139.623C258.725 139.268 258.434 138.976 258.079 138.976H252.906V137.86H259.779V135.879H254.919C255.086 135.764 255.253 135.65 255.409 135.524ZM248.933 131.457C249.09 131.155 249.298 130.894 249.559 130.675C249.82 130.456 250.132 130.268 250.477 130.133C250.821 129.997 251.196 129.924 251.582 129.924C251.968 129.924 252.343 129.997 252.687 130.133C253.032 130.268 253.344 130.446 253.605 130.675C253.866 130.894 254.074 131.165 254.231 131.457C254.387 131.76 254.46 132.073 254.46 132.406C254.46 132.74 254.387 133.063 254.231 133.355C254.074 133.658 253.866 133.918 253.605 134.137C253.344 134.367 253.032 134.544 252.687 134.68C252.343 134.815 251.968 134.888 251.582 134.888C251.196 134.888 250.821 134.815 250.477 134.68C250.132 134.544 249.82 134.356 249.559 134.137C249.298 133.908 249.09 133.647 248.933 133.355C248.777 133.053 248.704 132.74 248.704 132.406C248.704 132.073 248.777 131.76 248.933 131.457Z" fill="#58595B"/>
<path d="M334.134 141.01H340.985V146.214H343.644V141.01H350.506V139.028H334.134V141.01Z" fill="#58595B"/>
<path d="M366.973 139.039H354.073V141.052H364.991V146.214H367.63V139.685C367.619 139.331 367.327 139.039 366.973 139.039Z" fill="#58595B"/>
<path d="M298.072 139.404H305.153V142.564H307.791V139.404H314.434V137.422H298.072V139.404Z" fill="#58595B"/>
<path d="M261.228 141.375H268.08V146.214H270.739V141.375H277.591V139.393H261.228V141.375Z" fill="#58595B"/>
<path d="M402.753 134.555V129.111H400.114V146.214H402.753V136.964H405.266V134.555H402.753Z" fill="#58595B"/>
<path d="M392.762 129.299L387.36 141.531H389.978L393.346 133.991L396.715 141.531H399.332L393.962 129.299C393.732 128.788 392.992 128.788 392.762 129.299Z" fill="#58595B"/>
<path d="M328.471 134.711C328.805 134.409 329.086 134.064 329.305 133.689C329.597 133.188 329.743 132.657 329.743 132.104C329.743 131.541 329.597 131.019 329.305 130.519C329.013 130.018 328.617 129.58 328.116 129.205C327.616 128.829 327.032 128.527 326.375 128.298C325.718 128.068 325.019 127.953 324.279 127.953C323.538 127.953 322.84 128.068 322.183 128.298C321.526 128.527 320.942 128.829 320.441 129.205C319.94 129.58 319.544 130.018 319.252 130.519C318.96 131.019 318.814 131.551 318.814 132.104C318.814 132.667 318.96 133.199 319.252 133.689C319.471 134.064 319.753 134.409 320.087 134.711V137.422H316.092V139.404H321.046C320.837 139.529 320.629 139.654 320.441 139.79C319.94 140.165 319.544 140.603 319.252 141.104C318.96 141.604 318.814 142.136 318.814 142.689C318.814 143.252 318.96 143.784 319.252 144.274C319.544 144.774 319.94 145.212 320.441 145.577C320.942 145.953 321.526 146.255 322.183 146.485C322.84 146.714 323.538 146.829 324.279 146.829C325.019 146.829 325.718 146.714 326.375 146.485C327.032 146.255 327.616 145.953 328.116 145.577C328.617 145.202 329.013 144.764 329.305 144.274C329.597 143.773 329.743 143.241 329.743 142.689C329.743 142.126 329.597 141.604 329.305 141.104C329.013 140.603 328.617 140.165 328.116 139.79C327.929 139.644 327.72 139.519 327.512 139.404H332.465V137.422H328.471V134.711ZM326.928 143.544C326.771 143.815 326.563 144.044 326.302 144.243C326.041 144.441 325.728 144.608 325.384 144.733C325.04 144.858 324.665 144.92 324.279 144.92C323.893 144.92 323.517 144.858 323.173 144.733C322.829 144.608 322.516 144.451 322.256 144.243C321.995 144.044 321.786 143.805 321.63 143.544C321.473 143.273 321.4 142.991 321.4 142.689C321.4 142.386 321.473 142.105 321.63 141.834C321.786 141.562 321.995 141.333 322.256 141.135C322.516 140.937 322.829 140.77 323.173 140.655C323.517 140.53 323.882 140.467 324.279 140.467C324.665 140.467 325.04 140.53 325.384 140.655C325.728 140.78 326.041 140.937 326.302 141.135C326.563 141.333 326.771 141.573 326.928 141.834C327.084 142.105 327.157 142.386 327.157 142.689C327.157 142.991 327.084 143.283 326.928 143.544ZM321.64 131.259C321.797 130.988 322.005 130.759 322.266 130.56C322.527 130.362 322.84 130.195 323.184 130.081C323.528 129.956 323.893 129.893 324.289 129.893C324.675 129.893 325.05 129.956 325.395 130.081C325.739 130.206 326.052 130.362 326.312 130.56C326.573 130.759 326.782 130.998 326.938 131.259C327.094 131.52 327.167 131.812 327.167 132.114C327.167 132.417 327.094 132.698 326.938 132.969C326.782 133.241 326.573 133.47 326.312 133.668C326.052 133.866 325.739 134.033 325.395 134.158C325.05 134.283 324.675 134.346 324.289 134.346C323.903 134.346 323.528 134.283 323.184 134.158C322.84 134.033 322.527 133.877 322.266 133.668C322.005 133.47 321.797 133.23 321.64 132.969C321.484 132.698 321.411 132.417 321.411 132.114C321.411 131.801 321.494 131.52 321.64 131.259ZM322.412 135.973C323.006 136.15 323.632 136.244 324.279 136.244C324.936 136.244 325.561 136.15 326.145 135.973V137.422H322.402V135.973H322.412Z" fill="#58595B"/>
<path d="M302.421 135.524C302.921 135.921 303.505 136.254 304.162 136.494C304.819 136.744 305.518 136.859 306.258 136.859C306.999 136.859 307.697 136.734 308.354 136.494C309.011 136.254 309.595 135.921 310.096 135.524C310.597 135.128 310.993 134.659 311.285 134.117C311.577 133.585 311.723 133.011 311.723 132.406C311.723 131.801 311.577 131.238 311.285 130.706C310.993 130.175 310.597 129.705 310.096 129.299C309.595 128.902 309.011 128.579 308.354 128.329C307.697 128.078 306.999 127.964 306.258 127.964C305.518 127.964 304.819 128.089 304.162 128.329C303.505 128.569 302.921 128.892 302.421 129.299C301.92 129.695 301.524 130.164 301.232 130.706C300.94 131.238 300.794 131.812 300.794 132.406C300.794 133.011 300.94 133.574 301.232 134.117C301.524 134.648 301.92 135.118 302.421 135.524ZM303.609 131.457C303.766 131.155 303.974 130.894 304.235 130.675C304.496 130.456 304.809 130.268 305.153 130.133C305.497 129.997 305.872 129.924 306.258 129.924C306.644 129.924 307.009 129.997 307.364 130.133C307.708 130.268 308.021 130.446 308.281 130.675C308.542 130.894 308.751 131.165 308.907 131.457C309.064 131.76 309.137 132.073 309.137 132.406C309.137 132.74 309.064 133.063 308.907 133.355C308.751 133.658 308.542 133.918 308.281 134.137C308.021 134.367 307.708 134.544 307.364 134.68C307.02 134.815 306.644 134.888 306.258 134.888C305.872 134.888 305.497 134.815 305.153 134.68C304.809 134.544 304.496 134.356 304.235 134.137C303.974 133.908 303.766 133.647 303.609 133.355C303.453 133.053 303.38 132.74 303.38 132.406C303.38 132.073 303.463 131.76 303.609 131.457Z" fill="#58595B"/>
<path d="M229.985 151.688C229.703 151.584 229.463 151.501 229.286 151.459C229.109 151.417 228.89 151.396 228.64 151.396C228.494 151.396 228.337 151.417 228.191 151.438C228.045 151.469 227.91 151.522 227.784 151.595C227.659 151.668 227.565 151.761 227.492 151.887C227.419 152.012 227.388 152.168 227.388 152.345C227.388 152.606 227.482 152.825 227.68 152.982C227.878 153.138 228.191 153.326 228.608 153.524C228.9 153.659 229.14 153.785 229.328 153.889C229.516 153.993 229.693 154.139 229.87 154.306C230.047 154.473 230.183 154.671 230.287 154.911C230.392 155.151 230.444 155.422 230.444 155.745C230.444 156.11 230.381 156.433 230.246 156.705C230.11 156.976 229.922 157.195 229.693 157.372C229.453 157.539 229.182 157.664 228.869 157.747C228.556 157.831 228.212 157.873 227.847 157.873C227.628 157.873 227.399 157.841 227.159 157.8C226.929 157.747 226.669 157.674 226.387 157.581L226.491 156.632C226.71 156.715 226.95 156.798 227.221 156.871C227.492 156.944 227.743 156.976 227.972 156.976C228.129 156.976 228.285 156.955 228.452 156.913C228.619 156.871 228.765 156.798 228.911 156.705C229.046 156.611 229.161 156.486 229.244 156.34C229.328 156.194 229.37 156.016 229.37 155.818C229.37 155.641 229.338 155.484 229.265 155.349C229.192 155.213 229.088 155.088 228.963 154.973C228.796 154.838 228.483 154.661 228.035 154.452C227.753 154.316 227.524 154.202 227.346 154.097C227.169 154.004 227.002 153.878 226.835 153.722C226.669 153.576 226.543 153.388 226.45 153.18C226.356 152.971 226.304 152.721 226.304 152.439C226.304 151.824 226.523 151.355 226.95 151.011C227.378 150.666 227.93 150.5 228.598 150.5C228.848 150.5 229.098 150.52 229.359 150.562C229.62 150.604 229.881 150.666 230.11 150.76L229.985 151.688Z" fill="#58595B"/>
<path d="M235.543 157.528C235.502 157.539 235.46 157.56 235.397 157.581C235.168 157.664 234.938 157.737 234.719 157.789C234.5 157.841 234.229 157.862 233.896 157.862C232.999 157.862 232.321 157.612 231.872 157.111C231.424 156.611 231.195 155.922 231.195 155.046C231.195 154.661 231.257 154.316 231.372 153.993C231.487 153.67 231.653 153.388 231.862 153.159C232.081 152.919 232.331 152.742 232.634 152.617C232.936 152.491 233.27 152.418 233.624 152.418C234.042 152.418 234.407 152.491 234.699 152.637C234.991 152.783 235.23 152.992 235.418 153.253C235.595 153.513 235.731 153.826 235.804 154.181C235.877 154.535 235.919 154.932 235.919 155.37H232.227C232.227 155.62 232.269 155.86 232.363 156.068C232.456 156.287 232.582 156.465 232.738 156.621C232.894 156.778 233.082 156.892 233.291 156.976C233.499 157.059 233.718 157.101 233.937 157.101C234.083 157.101 234.24 157.08 234.407 157.049C234.573 157.017 234.73 156.976 234.876 156.913C235.022 156.861 235.157 156.798 235.272 156.736C235.387 156.673 235.481 156.621 235.533 156.569V157.528H235.543ZM234.918 154.64C234.918 154.223 234.803 153.878 234.573 153.607C234.344 153.336 234.021 153.19 233.624 153.19C233.395 153.19 233.207 153.232 233.03 153.315C232.863 153.399 232.717 153.503 232.602 153.649C232.488 153.785 232.404 153.941 232.342 154.118C232.279 154.296 232.237 154.462 232.217 154.64H234.918Z" fill="#58595B"/>
<path d="M236.868 154.045C236.993 153.712 237.17 153.42 237.41 153.18C237.65 152.929 237.931 152.742 238.255 152.617C238.588 152.481 238.943 152.418 239.329 152.418C239.715 152.418 240.069 152.481 240.403 152.617C240.726 152.752 241.008 152.94 241.248 153.18C241.477 153.42 241.665 153.712 241.79 154.045C241.915 154.379 241.978 154.744 241.978 155.14C241.978 155.505 241.915 155.86 241.779 156.194C241.654 156.527 241.467 156.819 241.237 157.07C241.008 157.32 240.726 157.518 240.392 157.654C240.069 157.789 239.715 157.862 239.329 157.862C238.943 157.862 238.588 157.789 238.265 157.654C237.942 157.518 237.65 157.32 237.41 157.059C237.17 156.809 236.982 156.506 236.857 156.183C236.732 155.849 236.669 155.505 236.669 155.14C236.68 154.744 236.742 154.379 236.868 154.045ZM237.796 155.839C237.858 156.068 237.963 156.277 238.098 156.465C238.234 156.652 238.401 156.798 238.609 156.913C238.818 157.028 239.058 157.08 239.329 157.08C239.6 157.08 239.84 157.028 240.048 156.913C240.257 156.798 240.424 156.652 240.559 156.465C240.695 156.277 240.799 156.068 240.862 155.839C240.924 155.61 240.956 155.37 240.956 155.14C240.956 154.89 240.914 154.65 240.841 154.41C240.768 154.181 240.664 153.972 240.518 153.785C240.382 153.597 240.205 153.451 240.007 153.347C239.798 153.242 239.579 153.19 239.329 153.19C239.078 153.19 238.849 153.242 238.651 153.347C238.453 153.451 238.275 153.597 238.14 153.785C237.994 153.972 237.89 154.181 237.817 154.41C237.744 154.64 237.702 154.88 237.702 155.14C237.691 155.37 237.733 155.61 237.796 155.839Z" fill="#58595B"/>
<path d="M247.661 157.737H246.733V156.913H246.712C246.566 157.205 246.337 157.435 246.024 157.612C245.711 157.779 245.367 157.873 245.002 157.873C244.345 157.873 243.855 157.674 243.531 157.289C243.208 156.903 243.052 156.35 243.052 155.63V152.533H244.011V155.224C244.011 155.849 244.094 156.308 244.261 156.6C244.428 156.892 244.71 157.049 245.116 157.08C245.638 157.08 246.034 156.892 246.305 156.506C246.566 156.121 246.702 155.599 246.702 154.942V152.533H247.661V157.737Z" fill="#58595B"/>
<path d="M249.215 150.083H250.174V157.737H249.215V150.083Z" fill="#58595B"/>
<path d="M254.45 150.614H255.472V157.737H254.45V150.614Z" fill="#58595B"/>
<path d="M256.984 152.533H257.912V153.357H257.933C258.079 153.065 258.308 152.836 258.621 152.658C258.934 152.491 259.278 152.398 259.643 152.398C260.3 152.398 260.79 152.585 261.114 152.971C261.437 153.357 261.593 153.91 261.593 154.629V157.727H260.634V155.036C260.634 154.41 260.551 153.951 260.394 153.659C260.227 153.367 259.946 153.211 259.539 153.18C259.018 153.18 258.621 153.367 258.35 153.753C258.089 154.139 257.954 154.661 257.954 155.318V157.727H256.994V152.533H256.984Z" fill="#58595B"/>
<path d="M265.327 157.737H264.18L262.313 152.533H263.366L264.774 156.778H264.795L266.234 152.533H267.193L265.327 157.737Z" fill="#58595B"/>
<path d="M271.907 157.528C271.865 157.539 271.824 157.56 271.761 157.581C271.532 157.664 271.302 157.737 271.083 157.789C270.864 157.841 270.593 157.862 270.259 157.862C269.363 157.862 268.685 157.612 268.236 157.111C267.788 156.611 267.558 155.922 267.558 155.046C267.558 154.661 267.611 154.316 267.736 153.993C267.85 153.67 268.017 153.388 268.226 153.159C268.445 152.919 268.695 152.742 268.998 152.617C269.3 152.491 269.634 152.418 269.988 152.418C270.405 152.418 270.77 152.491 271.062 152.637C271.354 152.783 271.594 152.992 271.782 153.253C271.959 153.513 272.095 153.826 272.168 154.181C272.241 154.535 272.283 154.932 272.283 155.37H268.591C268.591 155.62 268.633 155.86 268.726 156.068C268.82 156.287 268.945 156.465 269.102 156.621C269.258 156.778 269.446 156.892 269.655 156.976C269.863 157.059 270.082 157.101 270.301 157.101C270.447 157.101 270.604 157.08 270.77 157.049C270.937 157.017 271.094 156.976 271.24 156.913C271.386 156.861 271.521 156.798 271.636 156.736C271.751 156.673 271.845 156.621 271.897 156.569V157.528H271.907ZM271.292 154.64C271.292 154.223 271.177 153.878 270.948 153.607C270.718 153.336 270.395 153.19 269.999 153.19C269.769 153.19 269.582 153.232 269.404 153.315C269.237 153.399 269.091 153.503 268.977 153.649C268.862 153.785 268.779 153.941 268.716 154.118C268.653 154.296 268.612 154.462 268.591 154.64H271.292Z" fill="#58595B"/>
<path d="M273.002 156.715C273.179 156.83 273.388 156.924 273.617 156.986C273.847 157.049 274.045 157.08 274.201 157.08C274.462 157.08 274.691 157.017 274.89 156.892C275.088 156.767 275.182 156.579 275.182 156.329C275.182 156.141 275.109 155.985 274.952 155.86C274.796 155.735 274.556 155.599 274.233 155.443C274.014 155.338 273.836 155.255 273.711 155.182C273.586 155.109 273.461 155.015 273.336 154.911C273.211 154.807 273.117 154.671 273.044 154.525C272.971 154.379 272.929 154.202 272.929 154.014C272.929 153.493 273.106 153.096 273.44 152.825C273.784 152.554 274.222 152.408 274.764 152.408C274.973 152.408 275.161 152.429 275.348 152.46C275.536 152.492 275.734 152.544 275.964 152.617L275.88 153.451C275.776 153.388 275.62 153.326 275.39 153.274C275.161 153.211 274.994 153.19 274.869 153.19C274.608 153.19 274.389 153.242 274.212 153.357C274.034 153.461 273.951 153.618 273.951 153.826C273.951 154.035 274.024 154.202 274.18 154.316C274.337 154.431 274.566 154.567 274.89 154.723C275.098 154.817 275.275 154.9 275.411 154.984C275.547 155.057 275.672 155.151 275.797 155.265C275.922 155.38 276.016 155.516 276.089 155.683C276.162 155.849 276.204 156.037 276.204 156.256C276.204 156.778 276.026 157.184 275.672 157.466C275.317 157.747 274.89 157.883 274.389 157.883C274.107 157.883 273.857 157.862 273.617 157.82C273.378 157.779 273.159 157.706 272.96 157.591L273.002 156.715Z" fill="#58595B"/>
<path d="M279.927 153.305H278.55V156.152C278.55 156.444 278.623 156.673 278.779 156.84C278.936 157.007 279.124 157.08 279.353 157.08C279.593 157.08 279.812 157.017 280.01 156.892V157.706C279.864 157.747 279.728 157.779 279.593 157.81C279.457 157.841 279.322 157.852 279.186 157.852C278.675 157.852 278.279 157.727 277.997 157.476C277.716 157.226 277.58 156.851 277.58 156.34V153.294H276.412V152.523H277.591V151.313L278.55 151.011V152.523H279.927V153.305Z" fill="#58595B"/>
<path d="M280.917 152.533H281.814V153.284H281.835C282.023 152.982 282.242 152.763 282.513 152.617C282.784 152.471 283.107 152.398 283.483 152.398C283.806 152.398 284.098 152.481 284.369 152.658C284.64 152.825 284.838 153.075 284.963 153.409C285.13 153.065 285.37 152.815 285.683 152.648C285.996 152.481 286.298 152.398 286.58 152.398C287.206 152.398 287.664 152.575 287.956 152.929C288.248 153.284 288.394 153.774 288.394 154.379V157.716H287.435V154.608C287.435 154.431 287.425 154.254 287.393 154.087C287.362 153.92 287.32 153.764 287.247 153.618C287.174 153.482 287.08 153.367 286.966 153.284C286.841 153.201 286.695 153.159 286.507 153.159C286.277 153.159 286.069 153.211 285.892 153.315C285.714 153.42 285.568 153.566 285.454 153.743C285.339 153.92 285.255 154.129 285.203 154.358C285.151 154.588 285.13 154.827 285.13 155.088V157.716H284.171V154.608C284.171 154.431 284.16 154.254 284.129 154.087C284.098 153.92 284.056 153.764 283.983 153.618C283.91 153.482 283.816 153.367 283.702 153.284C283.576 153.201 283.43 153.159 283.243 153.159C283.013 153.159 282.805 153.211 282.627 153.315C282.45 153.42 282.304 153.566 282.19 153.743C282.075 153.92 281.991 154.129 281.95 154.358C281.898 154.588 281.877 154.827 281.877 155.088V157.716H280.917V152.533Z" fill="#58595B"/>
<path d="M293.786 157.528C293.744 157.539 293.703 157.56 293.64 157.581C293.411 157.664 293.181 157.737 292.962 157.789C292.743 157.841 292.472 157.862 292.138 157.862C291.241 157.862 290.564 157.612 290.115 157.111C289.667 156.611 289.437 155.922 289.437 155.046C289.437 154.661 289.5 154.316 289.615 153.993C289.729 153.67 289.896 153.388 290.105 153.159C290.324 152.919 290.574 152.742 290.876 152.617C291.179 152.491 291.513 152.418 291.867 152.418C292.284 152.418 292.649 152.491 292.941 152.637C293.233 152.783 293.473 152.992 293.661 153.253C293.838 153.513 293.974 153.826 294.047 154.181C294.12 154.535 294.161 154.932 294.161 155.37H290.449C290.449 155.62 290.491 155.86 290.585 156.068C290.678 156.287 290.804 156.465 290.96 156.621C291.116 156.778 291.304 156.892 291.513 156.976C291.721 157.059 291.94 157.101 292.159 157.101C292.305 157.101 292.462 157.08 292.628 157.049C292.795 157.017 292.952 156.976 293.098 156.913C293.244 156.861 293.379 156.798 293.494 156.736C293.609 156.673 293.703 156.621 293.755 156.569V157.528H293.786ZM293.16 154.64C293.16 154.223 293.046 153.878 292.816 153.607C292.587 153.336 292.263 153.19 291.867 153.19C291.638 153.19 291.45 153.232 291.273 153.315C291.106 153.399 290.96 153.503 290.845 153.649C290.731 153.785 290.647 153.941 290.585 154.118C290.522 154.296 290.48 154.462 290.459 154.64H293.16Z" fill="#58595B"/>
<path d="M295.267 152.533H296.195V153.357H296.216C296.362 153.065 296.591 152.836 296.904 152.658C297.217 152.491 297.561 152.398 297.926 152.398C298.583 152.398 299.073 152.585 299.396 152.971C299.72 153.357 299.876 153.91 299.876 154.629V157.727H298.917V155.036C298.917 154.41 298.833 153.951 298.677 153.659C298.51 153.367 298.229 153.211 297.822 153.18C297.3 153.18 296.904 153.367 296.633 153.753C296.372 154.139 296.237 154.661 296.237 155.318V157.727H295.277V152.533H295.267Z" fill="#58595B"/>
<path d="M304.058 153.305H302.681V156.152C302.681 156.444 302.754 156.673 302.911 156.84C303.067 157.007 303.255 157.08 303.484 157.08C303.735 157.08 303.943 157.017 304.141 156.892V157.706C303.995 157.747 303.86 157.779 303.724 157.81C303.589 157.841 303.453 157.852 303.318 157.852C302.807 157.852 302.41 157.727 302.129 157.476C301.847 157.226 301.712 156.851 301.712 156.34V153.294H300.533V152.523H301.712V151.313L302.671 151.011V152.523H304.048V153.305H304.058Z" fill="#58595B"/>
<path d="M307.802 150.614H309.491L311.723 156.538L313.913 150.614H315.602V157.737H314.58V151.574H314.559L312.203 157.737H311.201L308.845 151.574H308.824V157.737H307.802V150.614Z" fill="#58595B"/>
<path d="M317.375 152.898C317.928 152.575 318.501 152.408 319.085 152.408C319.815 152.408 320.347 152.585 320.681 152.94C321.015 153.294 321.182 153.837 321.182 154.556V156.715C321.182 156.997 321.182 157.216 321.192 157.372C321.202 157.528 321.213 157.643 321.223 157.737H320.326V157.059H320.306C320.16 157.268 319.951 157.455 319.68 157.612C319.409 157.768 319.085 157.852 318.7 157.852C318.116 157.852 317.646 157.716 317.302 157.445C316.958 157.174 316.791 156.767 316.791 156.225C316.791 155.922 316.864 155.651 317.021 155.432C317.167 155.203 317.365 155.026 317.615 154.9C317.855 154.765 318.116 154.671 318.397 154.608C318.668 154.546 318.95 154.515 319.221 154.515C319.45 154.515 319.628 154.515 319.763 154.515C319.888 154.515 320.055 154.525 320.243 154.535C320.243 154.077 320.149 153.732 319.951 153.513C319.753 153.294 319.43 153.18 318.96 153.18C318.689 153.18 318.418 153.232 318.147 153.326C317.876 153.42 317.646 153.545 317.448 153.712L317.375 152.898ZM320.222 155.255C320.149 155.255 320.055 155.255 319.92 155.245C319.784 155.234 319.68 155.234 319.617 155.234C319.43 155.234 319.242 155.245 319.054 155.265C318.866 155.286 318.668 155.328 318.481 155.401C318.293 155.474 318.126 155.568 318.001 155.703C317.876 155.839 317.803 156.016 317.803 156.235C317.803 156.496 317.907 156.705 318.105 156.851C318.303 157.007 318.533 157.08 318.773 157.08C319.231 157.08 319.596 156.955 319.847 156.694C320.097 156.444 320.222 156.11 320.222 155.714V155.255Z" fill="#58595B"/>
<path d="M322.6 152.533H323.528V153.357H323.549C323.695 153.065 323.924 152.836 324.237 152.658C324.55 152.491 324.894 152.398 325.259 152.398C325.916 152.398 326.406 152.585 326.729 152.971C327.053 153.357 327.209 153.91 327.209 154.629V157.727H326.25V155.036C326.25 154.41 326.166 153.951 325.999 153.659C325.833 153.367 325.551 153.211 325.144 153.18C324.623 153.18 324.227 153.367 323.955 153.753C323.695 154.139 323.559 154.661 323.559 155.318V157.727H322.6V152.533Z" fill="#58595B"/>
<path d="M328.878 152.898C329.43 152.575 330.004 152.408 330.588 152.408C331.318 152.408 331.85 152.585 332.183 152.94C332.517 153.294 332.684 153.837 332.684 154.556V156.715C332.684 156.997 332.684 157.216 332.694 157.372C332.705 157.528 332.715 157.643 332.726 157.737H331.829V157.059H331.808C331.662 157.268 331.454 157.455 331.182 157.612C330.911 157.768 330.588 157.852 330.202 157.852C329.618 157.852 329.149 157.716 328.805 157.445C328.461 157.174 328.294 156.767 328.294 156.225C328.294 155.922 328.367 155.651 328.523 155.432C328.669 155.203 328.867 155.026 329.118 154.9C329.368 154.765 329.618 154.671 329.9 154.608C330.171 154.546 330.452 154.515 330.724 154.515C330.953 154.515 331.13 154.515 331.266 154.515C331.391 154.515 331.558 154.525 331.746 154.535C331.746 154.077 331.652 153.732 331.454 153.513C331.255 153.294 330.932 153.18 330.463 153.18C330.192 153.18 329.921 153.232 329.649 153.326C329.378 153.42 329.149 153.545 328.951 153.712L328.878 152.898ZM331.725 155.255C331.652 155.255 331.558 155.255 331.422 155.245C331.287 155.234 331.182 155.234 331.12 155.234C330.932 155.234 330.744 155.245 330.557 155.265C330.369 155.286 330.171 155.328 329.983 155.401C329.795 155.474 329.629 155.568 329.503 155.703C329.378 155.839 329.305 156.016 329.305 156.235C329.305 156.496 329.41 156.705 329.608 156.851C329.806 157.007 330.035 157.08 330.275 157.08C330.734 157.08 331.099 156.955 331.349 156.694C331.6 156.444 331.725 156.11 331.725 155.714V155.255Z" fill="#58595B"/>
<path d="M338.701 157.518C338.701 158.331 338.482 158.947 338.044 159.374C337.606 159.802 336.928 160.01 336.021 160.01C335.74 160.01 335.458 159.989 335.176 159.937C334.905 159.885 334.561 159.791 334.154 159.656L334.259 158.769C334.645 158.947 334.968 159.072 335.229 159.134C335.489 159.207 335.792 159.239 336.136 159.239C336.636 159.239 337.033 159.082 337.325 158.759C337.606 158.436 337.752 158.008 337.752 157.455V156.944H337.731C337.533 157.205 337.283 157.414 336.97 157.549C336.657 157.685 336.334 157.758 335.99 157.758C335.625 157.758 335.312 157.685 335.03 157.549C334.749 157.414 334.509 157.226 334.321 156.986C334.134 156.746 333.998 156.475 333.904 156.162C333.81 155.849 333.769 155.526 333.769 155.192C333.769 154.848 333.821 154.504 333.915 154.181C334.008 153.858 334.154 153.555 334.353 153.294C334.551 153.034 334.791 152.815 335.083 152.658C335.375 152.502 335.708 152.418 336.094 152.418C336.532 152.418 336.897 152.491 337.168 152.648C337.439 152.804 337.658 153.023 337.804 153.315H337.825V152.544H338.712V157.518H338.701ZM337.314 156.454C337.596 156.11 337.742 155.693 337.742 155.203C337.742 154.629 337.606 154.15 337.346 153.764C337.085 153.378 336.709 153.19 336.219 153.19C335.99 153.19 335.781 153.242 335.594 153.357C335.406 153.472 335.26 153.618 335.135 153.816C335.01 154.004 334.916 154.212 334.864 154.442C334.801 154.671 334.77 154.9 334.77 155.13C334.77 155.641 334.905 156.079 335.166 156.433C335.427 156.788 335.781 156.965 336.219 156.965C336.668 156.965 337.033 156.788 337.314 156.454Z" fill="#58595B"/>
<path d="M344.124 157.528C344.082 157.539 344.041 157.56 343.978 157.581C343.749 157.664 343.519 157.737 343.3 157.789C343.081 157.841 342.81 157.862 342.476 157.862C341.58 157.862 340.902 157.612 340.453 157.111C340.005 156.611 339.775 155.922 339.775 155.046C339.775 154.661 339.838 154.316 339.953 153.993C340.067 153.67 340.234 153.388 340.443 153.159C340.662 152.919 340.912 152.742 341.215 152.617C341.517 152.491 341.851 152.418 342.205 152.418C342.622 152.418 342.987 152.491 343.279 152.637C343.571 152.783 343.811 152.992 343.999 153.253C344.176 153.513 344.312 153.826 344.385 154.181C344.458 154.535 344.499 154.932 344.499 155.37H340.787C340.787 155.62 340.829 155.86 340.923 156.068C341.016 156.287 341.142 156.465 341.298 156.621C341.454 156.778 341.642 156.892 341.851 156.976C342.059 157.059 342.278 157.101 342.497 157.101C342.643 157.101 342.8 157.08 342.966 157.049C343.133 157.017 343.29 156.976 343.436 156.913C343.582 156.861 343.717 156.798 343.832 156.736C343.947 156.673 344.041 156.621 344.093 156.569V157.528H344.124ZM343.498 154.64C343.498 154.223 343.384 153.878 343.154 153.607C342.925 153.336 342.602 153.19 342.205 153.19C341.986 153.19 341.788 153.232 341.611 153.315C341.444 153.399 341.298 153.503 341.183 153.649C341.069 153.785 340.985 153.941 340.923 154.118C340.86 154.296 340.818 154.462 340.797 154.64H343.498Z" fill="#58595B"/>
<path d="M345.594 152.533H346.491V153.284H346.512C346.7 152.982 346.919 152.763 347.19 152.617C347.461 152.471 347.784 152.398 348.16 152.398C348.483 152.398 348.775 152.481 349.046 152.658C349.317 152.825 349.516 153.075 349.641 153.409C349.808 153.065 350.047 152.815 350.36 152.648C350.673 152.481 350.976 152.398 351.257 152.398C351.883 152.398 352.342 152.575 352.634 152.929C352.926 153.284 353.072 153.774 353.072 154.379V157.716H352.112V154.608C352.112 154.431 352.102 154.254 352.071 154.087C352.039 153.92 351.998 153.764 351.925 153.618C351.852 153.482 351.758 153.367 351.643 153.284C351.518 153.201 351.372 153.159 351.184 153.159C350.955 153.159 350.746 153.211 350.569 153.315C350.392 153.42 350.246 153.566 350.131 153.743C350.016 153.92 349.933 154.129 349.881 154.358C349.828 154.588 349.808 154.827 349.808 155.088V157.716H348.848V154.608C348.848 154.431 348.838 154.254 348.806 154.087C348.775 153.92 348.733 153.764 348.66 153.618C348.587 153.482 348.494 153.367 348.379 153.284C348.254 153.201 348.108 153.159 347.92 153.159C347.691 153.159 347.482 153.211 347.305 153.315C347.127 153.42 346.981 153.566 346.867 153.743C346.752 153.92 346.669 154.129 346.627 154.358C346.575 154.588 346.554 154.827 346.554 155.088V157.716H345.594V152.533Z" fill="#58595B"/>
<path d="M358.463 157.528C358.421 157.539 358.38 157.56 358.317 157.581C358.088 157.664 357.858 157.737 357.639 157.789C357.42 157.841 357.149 157.862 356.815 157.862C355.919 157.862 355.241 157.612 354.792 157.111C354.344 156.611 354.115 155.922 354.115 155.046C354.115 154.661 354.167 154.316 354.292 153.993C354.407 153.67 354.573 153.388 354.782 153.159C355.001 152.919 355.251 152.742 355.554 152.617C355.856 152.491 356.19 152.418 356.544 152.418C356.961 152.418 357.326 152.491 357.618 152.637C357.91 152.783 358.15 152.992 358.338 153.253C358.515 153.513 358.651 153.826 358.724 154.181C358.797 154.535 358.839 154.932 358.839 155.37H355.126C355.126 155.62 355.168 155.86 355.262 156.068C355.355 156.287 355.481 156.465 355.637 156.621C355.793 156.778 355.981 156.892 356.19 156.976C356.398 157.059 356.617 157.101 356.836 157.101C356.982 157.101 357.139 157.08 357.306 157.049C357.472 157.017 357.629 156.976 357.775 156.913C357.921 156.861 358.056 156.798 358.171 156.736C358.286 156.673 358.38 156.621 358.432 156.569V157.528H358.463ZM357.848 154.64C357.848 154.223 357.733 153.878 357.504 153.607C357.274 153.336 356.951 153.19 356.555 153.19C356.325 153.19 356.138 153.232 355.96 153.315C355.793 153.399 355.647 153.503 355.533 153.649C355.418 153.785 355.335 153.941 355.272 154.118C355.209 154.296 355.168 154.462 355.147 154.64H357.848Z" fill="#58595B"/>
<path d="M359.944 152.533H360.872V153.357H360.893C361.039 153.065 361.268 152.836 361.581 152.658C361.894 152.491 362.238 152.398 362.603 152.398C363.26 152.398 363.75 152.585 364.074 152.971C364.397 153.357 364.553 153.91 364.553 154.629V157.727H363.594V155.036C363.594 154.41 363.511 153.951 363.344 153.659C363.177 153.367 362.895 153.211 362.489 153.18C361.967 153.18 361.571 153.367 361.3 153.753C361.039 154.139 360.903 154.661 360.903 155.318V157.727H359.944V152.533Z" fill="#58595B"/>
<path d="M368.746 153.305H367.369V156.152C367.369 156.444 367.442 156.673 367.598 156.84C367.755 157.007 367.943 157.08 368.172 157.08C368.412 157.08 368.631 157.017 368.829 156.892V157.706C368.683 157.747 368.547 157.779 368.412 157.81C368.276 157.841 368.141 157.852 368.005 157.852C367.494 157.852 367.098 157.727 366.816 157.476C366.535 157.226 366.399 156.851 366.399 156.34V153.294H365.221V152.523H366.399V151.313L367.359 151.011V152.523H368.735V153.305H368.746Z" fill="#58595B"/>
<path d="M377.391 151.782C376.942 151.522 376.452 151.386 375.92 151.386C375.514 151.386 375.149 151.459 374.805 151.595C374.46 151.73 374.168 151.928 373.929 152.179C373.689 152.429 373.501 152.731 373.376 153.076C373.251 153.42 373.178 153.785 373.178 154.181C373.178 154.588 373.251 154.963 373.386 155.307C373.522 155.651 373.72 155.943 373.96 156.194C374.21 156.444 374.492 156.632 374.825 156.767C375.149 156.903 375.503 156.965 375.868 156.965C376.129 156.965 376.411 156.934 376.713 156.871C377.015 156.809 377.245 156.725 377.422 156.621L377.485 157.612C377.245 157.716 376.984 157.779 376.703 157.82C376.421 157.852 376.139 157.873 375.858 157.873C375.295 157.873 374.794 157.789 374.325 157.612C373.866 157.435 373.459 157.184 373.136 156.861C372.802 156.538 372.552 156.141 372.375 155.683C372.197 155.224 372.114 154.713 372.114 154.16C372.114 153.618 372.208 153.128 372.385 152.679C372.573 152.231 372.834 151.835 373.167 151.511C373.511 151.188 373.908 150.938 374.377 150.771C374.836 150.594 375.336 150.51 375.879 150.51C376.484 150.51 377.015 150.614 377.485 150.813L377.391 151.782Z" fill="#58595B"/>
<path d="M378.256 154.045C378.381 153.712 378.559 153.42 378.799 153.18C379.038 152.929 379.32 152.742 379.643 152.617C379.977 152.481 380.332 152.418 380.717 152.418C381.103 152.418 381.458 152.481 381.791 152.617C382.115 152.752 382.396 152.94 382.636 153.18C382.866 153.42 383.053 153.712 383.178 154.045C383.304 154.379 383.366 154.744 383.366 155.14C383.366 155.505 383.304 155.86 383.168 156.194C383.043 156.527 382.855 156.819 382.626 157.07C382.386 157.32 382.115 157.518 381.781 157.654C381.458 157.789 381.103 157.862 380.717 157.862C380.332 157.862 379.987 157.789 379.654 157.654C379.33 157.518 379.038 157.32 378.799 157.059C378.559 156.809 378.371 156.506 378.246 156.183C378.121 155.849 378.058 155.505 378.058 155.14C378.058 154.744 378.131 154.379 378.256 154.045ZM379.184 155.839C379.247 156.068 379.351 156.277 379.487 156.465C379.622 156.652 379.789 156.798 379.998 156.913C380.206 157.028 380.446 157.08 380.717 157.08C380.989 157.08 381.228 157.028 381.437 156.913C381.645 156.798 381.812 156.652 381.948 156.465C382.083 156.277 382.188 156.068 382.25 155.839C382.313 155.61 382.344 155.37 382.344 155.14C382.344 154.89 382.302 154.65 382.229 154.41C382.156 154.181 382.052 153.972 381.906 153.785C381.771 153.597 381.593 153.451 381.395 153.347C381.187 153.242 380.968 153.19 380.717 153.19C380.467 153.19 380.238 153.242 380.04 153.347C379.841 153.451 379.664 153.597 379.529 153.785C379.383 153.972 379.278 154.181 379.205 154.41C379.132 154.64 379.091 154.88 379.091 155.14C379.08 155.37 379.111 155.61 379.184 155.839Z" fill="#58595B"/>
<path d="M384.065 156.59H385.212V157.737H384.065V156.59Z" fill="#58595B"/>
<path d="M386.286 156.59H387.433L386.568 159.093H385.65L386.286 156.59Z" fill="#58595B"/>
<path d="M389.571 150.614H390.593V156.84H393.576V157.737H389.571V150.614Z" fill="#58595B"/>
<path d="M397.153 153.305H395.776V156.152C395.776 156.444 395.849 156.673 396.005 156.84C396.162 157.007 396.35 157.08 396.579 157.08C396.819 157.08 397.038 157.017 397.236 156.892V157.706C397.09 157.747 396.954 157.779 396.819 157.81C396.683 157.841 396.548 157.852 396.412 157.852C395.901 157.852 395.505 157.727 395.223 157.476C394.942 157.226 394.806 156.851 394.806 156.34V153.294H393.628V152.523H394.806V151.313L395.766 151.011V152.523H397.142V153.305H397.153Z" fill="#58595B"/>
<path d="M401.835 157.007H401.814C401.668 157.236 401.439 157.435 401.126 157.612C400.823 157.779 400.458 157.873 400.031 157.873C399.645 157.873 399.322 157.8 399.04 157.643C398.759 157.487 398.529 157.278 398.341 157.017C398.154 156.757 398.018 156.454 397.935 156.11C397.841 155.776 397.799 155.422 397.799 155.057C397.799 154.702 397.851 154.369 397.945 154.045C398.039 153.722 398.185 153.44 398.373 153.201C398.56 152.961 398.8 152.773 399.082 152.627C399.363 152.492 399.687 152.419 400.062 152.419C400.49 152.419 400.844 152.491 401.126 152.648C401.407 152.794 401.626 153.002 401.793 153.263H401.814V150.103H402.774V157.758H401.856V157.007H401.835ZM398.915 155.797C398.978 156.027 399.061 156.246 399.176 156.433C399.29 156.632 399.447 156.788 399.635 156.903C399.822 157.017 400.031 157.08 400.271 157.08C400.531 157.08 400.761 157.017 400.959 156.903C401.157 156.788 401.314 156.632 401.439 156.444C401.564 156.256 401.658 156.048 401.71 155.818C401.772 155.589 401.804 155.37 401.804 155.13C401.804 154.88 401.772 154.64 401.71 154.41C401.647 154.181 401.543 153.972 401.418 153.785C401.293 153.597 401.126 153.451 400.928 153.336C400.73 153.232 400.511 153.169 400.26 153.169C400.01 153.169 399.801 153.221 399.614 153.326C399.426 153.43 399.28 153.566 399.165 153.753C399.051 153.941 398.967 154.139 398.915 154.369C398.863 154.598 398.832 154.838 398.832 155.099C398.821 155.338 398.852 155.568 398.915 155.797Z" fill="#58595B"/>
<path d="M404.213 156.59H405.36V157.737H404.213V156.59Z" fill="#58595B"/>
</g>
<defs>
<linearGradient id="paint0_linear" x1="303.053" y1="108.189" x2="290.116" y2="85.7807" gradientUnits="userSpaceOnUse">
<stop stop-color="#6E4D2B"/>
<stop offset="0.0109" stop-color="#71502D"/>
<stop offset="0.0771" stop-color="#855F39"/>
<stop offset="0.1502" stop-color="#956C43"/>
<stop offset="0.2329" stop-color="#A0754A"/>
<stop offset="0.3332" stop-color="#A77A4E"/>
<stop offset="0.5" stop-color="#A97C50"/>
</linearGradient>
<linearGradient id="paint1_linear" x1="298.298" y1="89.9212" x2="309.552" y2="70.4292" gradientUnits="userSpaceOnUse">
<stop stop-color="#81613F"/>
<stop offset="0.0158" stop-color="#886743"/>
<stop offset="0.0894" stop-color="#A68055"/>
<stop offset="0.1647" stop-color="#BF9563"/>
<stop offset="0.2415" stop-color="#D2A56D"/>
<stop offset="0.3208" stop-color="#DEAF74"/>
<stop offset="0.4064" stop-color="#E4B477"/>
</linearGradient>
<radialGradient id="paint2_radial" cx="0" cy="0" r="1" gradientUnits="userSpaceOnUse" gradientTransform="translate(315.356 40.3138) scale(59.0328)">
<stop stop-color="#00A1E4"/>
<stop offset="0.1102" stop-color="#009BDD"/>
<stop offset="0.2872" stop-color="#008ECC"/>
<stop offset="0.509" stop-color="#007AB6"/>
<stop offset="0.7642" stop-color="#00619C"/>
<stop offset="1" stop-color="#104685"/>
</radialGradient>
<linearGradient id="paint3_linear" x1="333.005" y1="90.17" x2="321.751" y2="109.662" gradientUnits="userSpaceOnUse">
<stop stop-color="#81613F"/>
<stop offset="0.0158" stop-color="#886743"/>
<stop offset="0.0894" stop-color="#A68055"/>
<stop offset="0.1647" stop-color="#BF9563"/>
<stop offset="0.2415" stop-color="#D2A56D"/>
<stop offset="0.3208" stop-color="#DEAF74"/>
<stop offset="0.4064" stop-color="#E4B477"/>
</linearGradient>
<linearGradient id="paint4_linear" x1="328.723" y1="71.9022" x2="341.661" y2="94.3103" gradientUnits="userSpaceOnUse">
<stop stop-color="#6E4D2B"/>
<stop offset="0.0109" stop-color="#71502D"/>
<stop offset="0.0771" stop-color="#855F39"/>
<stop offset="0.1502" stop-color="#956C43"/>
<stop offset="0.2329" stop-color="#A0754A"/>
<stop offset="0.3332" stop-color="#A77A4E"/>
<stop offset="0.5" stop-color="#A97C50"/>
</linearGradient>
<clipPath id="clip0">
<rect width="180.36" height="120" fill="white" transform="translate(225 40)"/>
</clipPath>
</defs>
</svg>
