<svg width="630" height="200" viewBox="0 0 630 200" fill="none" xmlns="http://www.w3.org/2000/svg">
<rect x="0.5" y="0.5" width="629" height="199" fill="white" stroke="#DDDDDD"/>
<line y1="11.9224" x2="630" y2="11.9224" stroke="#DDDDDD"/>
<line y1="23.7236" x2="630" y2="23.7236" stroke="#DDDDDD"/>
<line y1="35.5249" x2="630" y2="35.5249" stroke="#DDDDDD"/>
<line y1="47.326" x2="630" y2="47.326" stroke="#DDDDDD"/>
<line y1="59.1273" x2="630" y2="59.1273" stroke="#DDDDDD"/>
<line y1="70.9285" x2="630" y2="70.9285" stroke="#DDDDDD"/>
<line y1="82.73" x2="630" y2="82.73" stroke="#DDDDDD"/>
<line y1="94.531" x2="630" y2="94.531" stroke="#DDDDDD"/>
<line y1="106.332" x2="630" y2="106.332" stroke="#DDDDDD"/>
<line y1="118.134" x2="630" y2="118.134" stroke="#DDDDDD"/>
<line y1="129.935" x2="630" y2="129.935" stroke="#DDDDDD"/>
<line y1="141.736" x2="630" y2="141.736" stroke="#DDDDDD"/>
<line y1="153.537" x2="630" y2="153.537" stroke="#DDDDDD"/>
<line y1="165.338" x2="630" y2="165.338" stroke="#DDDDDD"/>
<line y1="177.14" x2="630" y2="177.14" stroke="#DDDDDD"/>
<line y1="188.941" x2="630" y2="188.941" stroke="#DDDDDD"/>
<line x1="150.617" y1="2.7443e-08" x2="150.617" y2="200" stroke="#DDDDDD"/>
<line x1="300.242" y1="2.7443e-08" x2="300.242" y2="200" stroke="#DDDDDD"/>
<line x1="449.867" y1="2.7443e-08" x2="449.867" y2="200" stroke="#DDDDDD"/>
<line x1="599.492" y1="2.7443e-08" x2="599.492" y2="200" stroke="#DDDDDD"/>
<line x1="141.266" y1="2.7443e-08" x2="141.266" y2="200" stroke="#DDDDDD"/>
<line x1="290.891" y1="2.7443e-08" x2="290.891" y2="200" stroke="#DDDDDD"/>
<line x1="440.516" y1="2.7443e-08" x2="440.516" y2="200" stroke="#DDDDDD"/>
<line x1="590.141" y1="2.7443e-08" x2="590.141" y2="200" stroke="#DDDDDD"/>
<line x1="618.195" y1="2.7443e-08" x2="618.195" y2="200" stroke="#DDDDDD"/>
<line x1="131.914" y1="2.7443e-08" x2="131.914" y2="200" stroke="#DDDDDD"/>
<line x1="281.539" y1="2.7443e-08" x2="281.539" y2="200" stroke="#DDDDDD"/>
<line x1="431.164" y1="2.7443e-08" x2="431.164" y2="200" stroke="#DDDDDD"/>
<line x1="580.789" y1="2.7443e-08" x2="580.789" y2="200" stroke="#DDDDDD"/>
<line x1="608.844" y1="2.7443e-08" x2="608.844" y2="200" stroke="#DDDDDD"/>
<line x1="122.562" y1="2.7443e-08" x2="122.562" y2="200" stroke="#DDDDDD"/>
<line x1="272.188" y1="2.7443e-08" x2="272.188" y2="200" stroke="#DDDDDD"/>
<line x1="421.812" y1="2.7443e-08" x2="421.812" y2="200" stroke="#DDDDDD"/>
<line x1="571.438" y1="2.7443e-08" x2="571.438" y2="200" stroke="#DDDDDD"/>
<line x1="113.211" y1="2.7443e-08" x2="113.211" y2="200" stroke="#DDDDDD"/>
<line x1="262.836" y1="2.7443e-08" x2="262.836" y2="200" stroke="#DDDDDD"/>
<line x1="412.461" y1="2.7443e-08" x2="412.461" y2="200" stroke="#DDDDDD"/>
<line x1="562.086" y1="2.7443e-08" x2="562.086" y2="200" stroke="#DDDDDD"/>
<line x1="103.859" y1="2.7443e-08" x2="103.859" y2="200" stroke="#DDDDDD"/>
<line x1="253.484" y1="2.7443e-08" x2="253.484" y2="200" stroke="#DDDDDD"/>
<line x1="403.109" y1="2.7443e-08" x2="403.109" y2="200" stroke="#DDDDDD"/>
<line x1="552.734" y1="2.7443e-08" x2="552.734" y2="200" stroke="#DDDDDD"/>
<line x1="94.5077" y1="2.7443e-08" x2="94.5077" y2="200" stroke="#DDDDDD"/>
<line x1="244.133" y1="2.7443e-08" x2="244.133" y2="200" stroke="#DDDDDD"/>
<line x1="393.758" y1="2.7443e-08" x2="393.758" y2="200" stroke="#DDDDDD"/>
<line x1="543.383" y1="2.7443e-08" x2="543.383" y2="200" stroke="#DDDDDD"/>
<line x1="85.1562" y1="2.7443e-08" x2="85.1562" y2="200" stroke="#DDDDDD"/>
<line x1="234.781" y1="2.7443e-08" x2="234.781" y2="200" stroke="#DDDDDD"/>
<line x1="384.406" y1="2.7443e-08" x2="384.406" y2="200" stroke="#DDDDDD"/>
<line x1="534.031" y1="2.7443e-08" x2="534.031" y2="200" stroke="#DDDDDD"/>
<line x1="75.8047" y1="2.7443e-08" x2="75.8047" y2="200" stroke="#DDDDDD"/>
<line x1="225.43" y1="2.7443e-08" x2="225.43" y2="200" stroke="#DDDDDD"/>
<line x1="375.055" y1="2.7443e-08" x2="375.055" y2="200" stroke="#DDDDDD"/>
<line x1="524.68" y1="2.7443e-08" x2="524.68" y2="200" stroke="#DDDDDD"/>
<line x1="66.4531" y1="2.7443e-08" x2="66.4531" y2="200" stroke="#DDDDDD"/>
<line x1="216.078" y1="2.7443e-08" x2="216.078" y2="200" stroke="#DDDDDD"/>
<line x1="365.703" y1="2.7443e-08" x2="365.703" y2="200" stroke="#DDDDDD"/>
<line x1="515.328" y1="2.7443e-08" x2="515.328" y2="200" stroke="#DDDDDD"/>
<line x1="57.1017" y1="2.7443e-08" x2="57.1017" y2="200" stroke="#DDDDDD"/>
<line x1="206.727" y1="2.7443e-08" x2="206.727" y2="200" stroke="#DDDDDD"/>
<line x1="356.352" y1="2.7443e-08" x2="356.352" y2="200" stroke="#DDDDDD"/>
<line x1="505.977" y1="2.7443e-08" x2="505.977" y2="200" stroke="#DDDDDD"/>
<line x1="47.7499" y1="2.7443e-08" x2="47.7499" y2="200" stroke="#DDDDDD"/>
<line x1="197.375" y1="2.7443e-08" x2="197.375" y2="200" stroke="#DDDDDD"/>
<line x1="347" y1="2.7443e-08" x2="347" y2="200" stroke="#DDDDDD"/>
<line x1="496.625" y1="2.7443e-08" x2="496.625" y2="200" stroke="#DDDDDD"/>
<line x1="38.3984" y1="2.7443e-08" x2="38.3984" y2="200" stroke="#DDDDDD"/>
<line x1="188.023" y1="2.7443e-08" x2="188.023" y2="200" stroke="#DDDDDD"/>
<line x1="337.648" y1="2.7443e-08" x2="337.648" y2="200" stroke="#DDDDDD"/>
<line x1="487.273" y1="2.7443e-08" x2="487.273" y2="200" stroke="#DDDDDD"/>
<line x1="29.0469" y1="2.7443e-08" x2="29.0469" y2="200" stroke="#DDDDDD"/>
<line x1="178.672" y1="2.7443e-08" x2="178.672" y2="200" stroke="#DDDDDD"/>
<line x1="328.297" y1="2.7443e-08" x2="328.297" y2="200" stroke="#DDDDDD"/>
<line x1="477.922" y1="2.7443e-08" x2="477.922" y2="200" stroke="#DDDDDD"/>
<line x1="19.6953" y1="2.7443e-08" x2="19.6953" y2="200" stroke="#DDDDDD"/>
<line x1="169.32" y1="2.7443e-08" x2="169.32" y2="200" stroke="#DDDDDD"/>
<line x1="318.945" y1="2.7443e-08" x2="318.945" y2="200" stroke="#DDDDDD"/>
<line x1="468.57" y1="2.7443e-08" x2="468.57" y2="200" stroke="#DDDDDD"/>
<line x1="10.3439" y1="2.7443e-08" x2="10.3439" y2="200" stroke="#DDDDDD"/>
<line x1="159.969" y1="2.7443e-08" x2="159.969" y2="200" stroke="#DDDDDD"/>
<line x1="309.594" y1="2.7443e-08" x2="309.594" y2="200" stroke="#DDDDDD"/>
<line x1="459.219" y1="2.7443e-08" x2="459.219" y2="200" stroke="#DDDDDD"/>
<g clip-path="url(#clip0)">
<path d="M298.048 97.0451L280.449 86.9236V105.126C280.449 106.386 281.126 107.552 282.209 108.177L298.037 117.278L315.635 107.156L298.048 97.0451Z" fill="url(#paint0_linear)"/>
<path d="M315.635 66.6912L298.048 76.8126L280.449 86.9237L298.048 97.0452L315.635 86.9237L333.233 76.8126L315.635 66.6912Z" fill="url(#paint1_linear)"/>
<path d="M333.233 56.58L317.385 47.4686C316.302 46.8438 314.958 46.8438 313.875 47.4686L298.048 56.58L282.22 65.681C281.126 66.3058 280.46 67.4721 280.46 68.732V86.9236L298.058 76.8126L315.656 66.7015L333.254 76.8126L350.842 86.9236V68.732C350.842 67.4721 350.165 66.3058 349.082 65.681L333.233 56.58Z" fill="url(#paint2_radial)"/>
<path d="M315.635 86.9236L298.048 97.0451L315.635 107.156L333.233 97.0451L315.635 86.9236Z" fill="#53340A"/>
<path d="M350.352 106.885L333.233 97.0452L315.646 107.156L298.048 117.267L313.886 126.379C314.969 127.004 316.312 127.004 317.395 126.379L333.233 117.267L349.061 108.166C349.603 107.854 350.04 107.406 350.352 106.885Z" fill="url(#paint3_linear)"/>
<path d="M350.821 105.126V86.9236L333.223 76.8125L315.635 86.9236L333.223 97.0451L350.342 106.885C350.654 106.354 350.821 105.75 350.821 105.126Z" fill="url(#paint4_linear)"/>
<path d="M263.091 144.883H276.274V142.904H265.049V141.426H276.274V139.447H265.049V137.968H276.274V135.99H263.091C262.737 135.99 262.445 136.282 262.445 136.636V144.237C262.435 144.591 262.726 144.883 263.091 144.883Z" fill="#58595B"/>
<path d="M238.183 140.811H233.622L231.591 136.178C231.362 135.657 230.633 135.657 230.404 136.178L225 148.392H227.614L230.977 140.863L234.341 148.392H236.954L234.58 142.998H238.183V153.057H240.817V135.98H238.183V140.811Z" fill="#58595B"/>
<path d="M290.529 138.156V135.98H279.596V138.156H283.428L279.158 148.392H281.772L285.135 140.322L288.426 148.392H291.04L286.791 138.156H290.529Z" fill="#58595B"/>
<path d="M294.466 135.98H291.831V153.057H294.466V143.821H296.975V141.415H294.466V135.98Z" fill="#58595B"/>
<path d="M301.921 147.611H299.245V152.412C299.245 152.766 299.537 153.057 299.891 153.057H313.438V150.87H301.921V147.611Z" fill="#58595B"/>
<path d="M337.659 144.31L342.147 139.301L346.635 144.31H349.863L344.261 138.114H349.425V135.98H334.868V138.114H340.033L334.431 144.31H337.659Z" fill="#58595B"/>
<path d="M367.409 135.98H364.774V144.727H367.409V135.98Z" fill="#58595B"/>
<path d="M357.444 139.426L360.692 144.321H363.462L357.975 135.688C357.714 135.282 357.131 135.282 356.881 135.688L351.394 144.321H354.205L357.444 139.426Z" fill="#58595B"/>
<path d="M382.789 147.996H377.02V145.851C377.197 145.799 377.374 145.747 377.541 145.674C378.103 145.445 378.613 145.143 379.04 144.747C379.478 144.362 379.821 143.904 380.071 143.383C380.321 142.863 380.446 142.311 380.446 141.738C380.446 141.165 380.321 140.613 380.071 140.103C379.925 139.832 379.759 139.562 379.561 139.312H381.3V137.177H377.02V135.303H374.386V137.187H369.939V139.322H371.835C371.637 139.572 371.47 139.832 371.324 140.114C371.074 140.624 370.949 141.176 370.949 141.748C370.949 142.321 371.074 142.873 371.324 143.394C371.574 143.914 371.918 144.372 372.355 144.758C372.793 145.143 373.303 145.455 373.875 145.685C374.032 145.757 374.198 145.809 374.375 145.851V147.996H369.794V149.975H382.768V153.057H385.403V135.98H382.768V147.996H382.789ZM374.105 143.29C373.667 142.863 373.438 142.352 373.438 141.748C373.438 141.144 373.657 140.634 374.105 140.207C374.542 139.78 375.073 139.572 375.698 139.572C376.323 139.572 376.843 139.791 377.291 140.207C377.728 140.634 377.957 141.155 377.957 141.748C377.957 142.342 377.739 142.863 377.291 143.29C376.854 143.716 376.323 143.935 375.698 143.935C375.083 143.925 374.552 143.716 374.105 143.29Z" fill="#58595B"/>
<path d="M255.364 142.383C255.864 141.988 256.26 141.519 256.552 140.978C256.843 140.447 256.989 139.874 256.989 139.27C256.989 138.666 256.843 138.104 256.552 137.573C256.26 137.042 255.864 136.573 255.364 136.167C254.865 135.771 254.281 135.448 253.625 135.198C252.969 134.949 252.272 134.834 251.532 134.834C250.793 134.834 250.095 134.959 249.439 135.198C248.783 135.438 248.2 135.761 247.7 136.167C247.201 136.563 246.805 137.031 246.513 137.573C246.222 138.104 246.076 138.676 246.076 139.27C246.076 139.874 246.222 140.436 246.513 140.978C246.805 141.509 247.201 141.977 247.7 142.383C247.857 142.508 248.023 142.623 248.19 142.738H243.379V144.716H250.241V145.83H249.471H244.431V147.663H256.062V148.642H244.431V152.411C244.431 152.765 244.722 153.057 245.076 153.057H258.655V151.224H247.044V150.245H258.676V146.476C258.676 146.122 258.384 145.83 258.03 145.83H252.865V144.716H259.728V142.738H254.875C255.042 142.623 255.208 142.508 255.364 142.383ZM248.898 138.322C249.054 138.02 249.262 137.76 249.523 137.541C249.783 137.323 250.095 137.135 250.439 137C250.783 136.865 251.158 136.792 251.543 136.792C251.928 136.792 252.303 136.865 252.647 137C252.99 137.135 253.303 137.312 253.563 137.541C253.823 137.76 254.032 138.031 254.188 138.322C254.344 138.624 254.417 138.937 254.417 139.27C254.417 139.603 254.344 139.926 254.188 140.218C254.032 140.52 253.823 140.78 253.563 140.999C253.303 141.228 252.99 141.405 252.647 141.54C252.303 141.675 251.928 141.748 251.543 141.748C251.158 141.748 250.783 141.675 250.439 141.54C250.095 141.405 249.783 141.217 249.523 140.999C249.262 140.769 249.054 140.509 248.898 140.218C248.742 139.916 248.669 139.603 248.669 139.27C248.669 138.937 248.742 138.624 248.898 138.322Z" fill="#58595B"/>
<path d="M333.973 147.861H340.814V153.057H343.469V147.861H350.321V145.882H333.973V147.861Z" fill="#58595B"/>
<path d="M366.763 145.893H353.882V147.902H364.785V153.057H367.419V146.538C367.409 146.184 367.117 145.893 366.763 145.893Z" fill="#58595B"/>
<path d="M297.964 146.257H305.035V149.412H307.669V146.257H314.302V144.279H297.964V146.257Z" fill="#58595B"/>
<path d="M261.175 148.225H268.016V153.057H270.672V148.225H277.513V146.247H261.175V148.225Z" fill="#58595B"/>
<path d="M402.49 141.415V135.98H399.856V153.057H402.49V143.821H405V141.415H402.49Z" fill="#58595B"/>
<path d="M392.515 136.167L387.121 148.381H389.734L393.098 140.853L396.461 148.381H399.075L393.712 136.167C393.483 135.657 392.744 135.657 392.515 136.167Z" fill="#58595B"/>
<path d="M328.318 141.571C328.652 141.269 328.933 140.926 329.151 140.551C329.443 140.051 329.589 139.52 329.589 138.968C329.589 138.406 329.443 137.885 329.151 137.385C328.86 136.886 328.464 136.448 327.964 136.073C327.464 135.698 326.881 135.396 326.225 135.167C325.569 134.938 324.872 134.824 324.132 134.824C323.393 134.824 322.695 134.938 322.039 135.167C321.383 135.396 320.8 135.698 320.3 136.073C319.8 136.448 319.405 136.886 319.113 137.385C318.822 137.885 318.676 138.416 318.676 138.968C318.676 139.53 318.822 140.061 319.113 140.551C319.332 140.926 319.613 141.269 319.946 141.571V144.279H315.958V146.257H320.904C320.696 146.382 320.488 146.507 320.3 146.643C319.8 147.017 319.405 147.455 319.113 147.955C318.822 148.454 318.676 148.985 318.676 149.537C318.676 150.1 318.822 150.631 319.113 151.12C319.405 151.62 319.8 152.057 320.3 152.422C320.8 152.797 321.383 153.099 322.039 153.328C322.695 153.557 323.393 153.671 324.132 153.671C324.872 153.671 325.569 153.557 326.225 153.328C326.881 153.099 327.464 152.797 327.964 152.422C328.464 152.047 328.86 151.61 329.151 151.12C329.443 150.62 329.589 150.089 329.589 149.537C329.589 148.975 329.443 148.454 329.151 147.955C328.86 147.455 328.464 147.017 327.964 146.643C327.777 146.497 327.569 146.372 327.36 146.257H332.307V144.279H328.318V141.571ZM326.777 150.391C326.621 150.662 326.413 150.891 326.152 151.089C325.892 151.287 325.58 151.453 325.236 151.578C324.892 151.703 324.518 151.766 324.132 151.766C323.747 151.766 323.372 151.703 323.028 151.578C322.685 151.453 322.372 151.297 322.112 151.089C321.852 150.891 321.644 150.652 321.487 150.391C321.331 150.12 321.258 149.839 321.258 149.537C321.258 149.235 321.331 148.954 321.487 148.683C321.644 148.413 321.852 148.184 322.112 147.986C322.372 147.788 322.685 147.621 323.028 147.507C323.372 147.382 323.737 147.319 324.132 147.319C324.518 147.319 324.892 147.382 325.236 147.507C325.58 147.632 325.892 147.788 326.152 147.986C326.413 148.184 326.621 148.423 326.777 148.683C326.933 148.954 327.006 149.235 327.006 149.537C327.006 149.839 326.933 150.131 326.777 150.391ZM321.498 138.125C321.654 137.854 321.862 137.625 322.123 137.427C322.383 137.229 322.695 137.063 323.039 136.948C323.383 136.823 323.747 136.761 324.143 136.761C324.528 136.761 324.903 136.823 325.246 136.948C325.59 137.073 325.902 137.229 326.163 137.427C326.423 137.625 326.631 137.864 326.788 138.125C326.944 138.395 327.017 138.677 327.017 138.979C327.017 139.281 326.944 139.562 326.788 139.832C326.631 140.103 326.423 140.332 326.163 140.53C325.902 140.728 325.59 140.895 325.246 141.019C324.903 141.144 324.528 141.207 324.143 141.207C323.757 141.207 323.383 141.144 323.039 141.019C322.695 140.895 322.383 140.738 322.123 140.53C321.862 140.332 321.654 140.093 321.498 139.832C321.342 139.562 321.269 139.281 321.269 138.979C321.269 138.666 321.352 138.385 321.498 138.125ZM322.268 142.831C322.862 143.008 323.487 143.102 324.132 143.102C324.788 143.102 325.413 143.008 325.996 142.831V144.279H322.258V142.831H322.268Z" fill="#58595B"/>
<path d="M302.307 142.383C302.806 142.779 303.39 143.112 304.046 143.352C304.702 143.602 305.399 143.716 306.139 143.716C306.878 143.716 307.576 143.591 308.232 143.352C308.888 143.112 309.471 142.779 309.971 142.383C310.47 141.988 310.866 141.519 311.158 140.978C311.449 140.447 311.595 139.874 311.595 139.27C311.595 138.666 311.449 138.104 311.158 137.573C310.866 137.042 310.47 136.573 309.971 136.167C309.471 135.771 308.888 135.448 308.232 135.198C307.576 134.949 306.878 134.834 306.139 134.834C305.399 134.834 304.702 134.959 304.046 135.198C303.39 135.438 302.806 135.761 302.307 136.167C301.807 136.563 301.411 137.031 301.119 137.573C300.828 138.104 300.682 138.676 300.682 139.27C300.682 139.874 300.828 140.436 301.119 140.978C301.411 141.509 301.807 141.977 302.307 142.383ZM303.494 138.322C303.65 138.02 303.858 137.76 304.118 137.541C304.379 137.323 304.691 137.135 305.035 137C305.378 136.865 305.753 136.792 306.139 136.792C306.524 136.792 306.888 136.865 307.242 137C307.586 137.135 307.898 137.312 308.159 137.541C308.419 137.76 308.627 138.031 308.783 138.322C308.94 138.624 309.013 138.937 309.013 139.27C309.013 139.603 308.94 139.926 308.783 140.218C308.627 140.52 308.419 140.78 308.159 140.999C307.898 141.228 307.586 141.405 307.242 141.54C306.899 141.675 306.524 141.748 306.139 141.748C305.753 141.748 305.378 141.675 305.035 141.54C304.691 141.405 304.379 141.217 304.118 140.999C303.858 140.769 303.65 140.509 303.494 140.218C303.337 139.916 303.265 139.603 303.265 139.27C303.265 138.937 303.348 138.624 303.494 138.322Z" fill="#58595B"/>
</g>
<defs>
<linearGradient id="paint0_linear" x1="302.938" y1="115.088" x2="290.02" y2="92.713" gradientUnits="userSpaceOnUse">
<stop stop-color="#6E4D2B"/>
<stop offset="0.0109" stop-color="#71502D"/>
<stop offset="0.0771" stop-color="#855F39"/>
<stop offset="0.1502" stop-color="#956C43"/>
<stop offset="0.2329" stop-color="#A0754A"/>
<stop offset="0.3332" stop-color="#A77A4E"/>
<stop offset="0.5" stop-color="#A97C50"/>
</linearGradient>
<linearGradient id="paint1_linear" x1="298.19" y1="96.8476" x2="309.427" y2="77.3843" gradientUnits="userSpaceOnUse">
<stop stop-color="#81613F"/>
<stop offset="0.0158" stop-color="#886743"/>
<stop offset="0.0894" stop-color="#A68055"/>
<stop offset="0.1647" stop-color="#BF9563"/>
<stop offset="0.2415" stop-color="#D2A56D"/>
<stop offset="0.3208" stop-color="#DEAF74"/>
<stop offset="0.4064" stop-color="#E4B477"/>
</linearGradient>
<radialGradient id="paint2_radial" cx="0" cy="0" r="1" gradientUnits="userSpaceOnUse" gradientTransform="translate(315.223 47.3133) scale(58.9457)">
<stop stop-color="#00A1E4"/>
<stop offset="0.1102" stop-color="#009BDD"/>
<stop offset="0.2872" stop-color="#008ECC"/>
<stop offset="0.509" stop-color="#007AB6"/>
<stop offset="0.7642" stop-color="#00619C"/>
<stop offset="1" stop-color="#104685"/>
</radialGradient>
<linearGradient id="paint3_linear" x1="332.845" y1="97.0963" x2="321.608" y2="116.56" gradientUnits="userSpaceOnUse">
<stop stop-color="#81613F"/>
<stop offset="0.0158" stop-color="#886743"/>
<stop offset="0.0894" stop-color="#A68055"/>
<stop offset="0.1647" stop-color="#BF9563"/>
<stop offset="0.2415" stop-color="#D2A56D"/>
<stop offset="0.3208" stop-color="#DEAF74"/>
<stop offset="0.4064" stop-color="#E4B477"/>
</linearGradient>
<linearGradient id="paint4_linear" x1="328.57" y1="78.8552" x2="341.488" y2="101.23" gradientUnits="userSpaceOnUse">
<stop stop-color="#6E4D2B"/>
<stop offset="0.0109" stop-color="#71502D"/>
<stop offset="0.0771" stop-color="#855F39"/>
<stop offset="0.1502" stop-color="#956C43"/>
<stop offset="0.2329" stop-color="#A0754A"/>
<stop offset="0.3332" stop-color="#A77A4E"/>
<stop offset="0.5" stop-color="#A97C50"/>
</linearGradient>
<clipPath id="clip0">
<rect width="180" height="106.682" fill="white" transform="translate(225 47)"/>
</clipPath>
</defs>
</svg>
