<svg width="74" height="83" viewBox="0 0 74 83" fill="none" xmlns="http://www.w3.org/2000/svg">
<path d="M7.57516 65.775C5.40016 65.775 3.40016 64.65 2.30016 62.825C0.925164 60.55 1.37516 57.625 3.32516 55.85L8.85016 50.825V30.55C8.82516 15.075 21.7502 1.5 36.5002 1.5C51.2502 1.5 64.1752 15.075 64.1752 30.575V50.85L69.7002 55.875C71.6502 57.65 72.1002 60.575 70.7252 62.85C69.6252 64.675 67.6002 65.8 65.4502 65.8H7.57516V65.775Z" stroke="#222222" stroke-width="3" stroke-miterlimit="10" stroke-linejoin="round"/>
<path d="M51.8002 66.1C51.8002 74.6 44.9502 81.5 36.5002 81.5C28.0502 81.5 21.2002 74.6 21.2002 66.1H51.8002Z" fill="#099190" stroke="#222222" stroke-width="3" stroke-miterlimit="10" stroke-linejoin="round"/>
</svg>
