<svg width="630" height="200" viewBox="0 0 630 200" fill="none" xmlns="http://www.w3.org/2000/svg">
<rect x="0.5" y="0.5" width="629" height="199" fill="white" stroke="#DDDDDD"/>
<line y1="11.9224" x2="630" y2="11.9224" stroke="#DDDDDD"/>
<line y1="23.7236" x2="630" y2="23.7236" stroke="#DDDDDD"/>
<line y1="35.5249" x2="630" y2="35.5249" stroke="#DDDDDD"/>
<line y1="47.326" x2="630" y2="47.326" stroke="#DDDDDD"/>
<line y1="59.1273" x2="630" y2="59.1273" stroke="#DDDDDD"/>
<line y1="70.9285" x2="630" y2="70.9285" stroke="#DDDDDD"/>
<line y1="82.73" x2="630" y2="82.73" stroke="#DDDDDD"/>
<line y1="94.531" x2="630" y2="94.531" stroke="#DDDDDD"/>
<line y1="106.332" x2="630" y2="106.332" stroke="#DDDDDD"/>
<line y1="118.134" x2="630" y2="118.134" stroke="#DDDDDD"/>
<line y1="129.935" x2="630" y2="129.935" stroke="#DDDDDD"/>
<line y1="141.736" x2="630" y2="141.736" stroke="#DDDDDD"/>
<line y1="153.537" x2="630" y2="153.537" stroke="#DDDDDD"/>
<line y1="165.338" x2="630" y2="165.338" stroke="#DDDDDD"/>
<line y1="177.14" x2="630" y2="177.14" stroke="#DDDDDD"/>
<line y1="188.941" x2="630" y2="188.941" stroke="#DDDDDD"/>
<line x1="150.617" y1="2.7443e-08" x2="150.617" y2="200" stroke="#DDDDDD"/>
<line x1="300.242" y1="2.7443e-08" x2="300.242" y2="200" stroke="#DDDDDD"/>
<line x1="449.867" y1="2.7443e-08" x2="449.867" y2="200" stroke="#DDDDDD"/>
<line x1="599.492" y1="2.7443e-08" x2="599.492" y2="200" stroke="#DDDDDD"/>
<line x1="141.266" y1="2.7443e-08" x2="141.266" y2="200" stroke="#DDDDDD"/>
<line x1="290.891" y1="2.7443e-08" x2="290.891" y2="200" stroke="#DDDDDD"/>
<line x1="440.516" y1="2.7443e-08" x2="440.516" y2="200" stroke="#DDDDDD"/>
<line x1="590.141" y1="2.7443e-08" x2="590.141" y2="200" stroke="#DDDDDD"/>
<line x1="618.195" y1="2.7443e-08" x2="618.195" y2="200" stroke="#DDDDDD"/>
<line x1="131.914" y1="2.7443e-08" x2="131.914" y2="200" stroke="#DDDDDD"/>
<line x1="281.539" y1="2.7443e-08" x2="281.539" y2="200" stroke="#DDDDDD"/>
<line x1="431.164" y1="2.7443e-08" x2="431.164" y2="200" stroke="#DDDDDD"/>
<line x1="580.789" y1="2.7443e-08" x2="580.789" y2="200" stroke="#DDDDDD"/>
<line x1="608.844" y1="2.7443e-08" x2="608.844" y2="200" stroke="#DDDDDD"/>
<line x1="122.562" y1="2.7443e-08" x2="122.562" y2="200" stroke="#DDDDDD"/>
<line x1="272.188" y1="2.7443e-08" x2="272.188" y2="200" stroke="#DDDDDD"/>
<line x1="421.812" y1="2.7443e-08" x2="421.812" y2="200" stroke="#DDDDDD"/>
<line x1="571.438" y1="2.7443e-08" x2="571.438" y2="200" stroke="#DDDDDD"/>
<line x1="113.211" y1="2.7443e-08" x2="113.211" y2="200" stroke="#DDDDDD"/>
<line x1="262.836" y1="2.7443e-08" x2="262.836" y2="200" stroke="#DDDDDD"/>
<line x1="412.461" y1="2.7443e-08" x2="412.461" y2="200" stroke="#DDDDDD"/>
<line x1="562.086" y1="2.7443e-08" x2="562.086" y2="200" stroke="#DDDDDD"/>
<line x1="103.859" y1="2.7443e-08" x2="103.859" y2="200" stroke="#DDDDDD"/>
<line x1="253.484" y1="2.7443e-08" x2="253.484" y2="200" stroke="#DDDDDD"/>
<line x1="403.109" y1="2.7443e-08" x2="403.109" y2="200" stroke="#DDDDDD"/>
<line x1="552.734" y1="2.7443e-08" x2="552.734" y2="200" stroke="#DDDDDD"/>
<line x1="94.5078" y1="2.7443e-08" x2="94.5078" y2="200" stroke="#DDDDDD"/>
<line x1="244.133" y1="2.7443e-08" x2="244.133" y2="200" stroke="#DDDDDD"/>
<line x1="393.758" y1="2.7443e-08" x2="393.758" y2="200" stroke="#DDDDDD"/>
<line x1="543.383" y1="2.7443e-08" x2="543.383" y2="200" stroke="#DDDDDD"/>
<line x1="85.1562" y1="2.7443e-08" x2="85.1562" y2="200" stroke="#DDDDDD"/>
<line x1="234.781" y1="2.7443e-08" x2="234.781" y2="200" stroke="#DDDDDD"/>
<line x1="384.406" y1="2.7443e-08" x2="384.406" y2="200" stroke="#DDDDDD"/>
<line x1="534.031" y1="2.7443e-08" x2="534.031" y2="200" stroke="#DDDDDD"/>
<line x1="75.8047" y1="2.7443e-08" x2="75.8047" y2="200" stroke="#DDDDDD"/>
<line x1="225.43" y1="2.7443e-08" x2="225.43" y2="200" stroke="#DDDDDD"/>
<line x1="375.055" y1="2.7443e-08" x2="375.055" y2="200" stroke="#DDDDDD"/>
<line x1="524.68" y1="2.7443e-08" x2="524.68" y2="200" stroke="#DDDDDD"/>
<line x1="66.4531" y1="2.7443e-08" x2="66.4531" y2="200" stroke="#DDDDDD"/>
<line x1="216.078" y1="2.7443e-08" x2="216.078" y2="200" stroke="#DDDDDD"/>
<line x1="365.703" y1="2.7443e-08" x2="365.703" y2="200" stroke="#DDDDDD"/>
<line x1="515.328" y1="2.7443e-08" x2="515.328" y2="200" stroke="#DDDDDD"/>
<line x1="57.1016" y1="2.7443e-08" x2="57.1016" y2="200" stroke="#DDDDDD"/>
<line x1="206.727" y1="2.7443e-08" x2="206.727" y2="200" stroke="#DDDDDD"/>
<line x1="356.352" y1="2.7443e-08" x2="356.352" y2="200" stroke="#DDDDDD"/>
<line x1="505.977" y1="2.7443e-08" x2="505.977" y2="200" stroke="#DDDDDD"/>
<line x1="47.75" y1="2.7443e-08" x2="47.75" y2="200" stroke="#DDDDDD"/>
<line x1="197.375" y1="2.7443e-08" x2="197.375" y2="200" stroke="#DDDDDD"/>
<line x1="347" y1="2.7443e-08" x2="347" y2="200" stroke="#DDDDDD"/>
<line x1="496.625" y1="2.7443e-08" x2="496.625" y2="200" stroke="#DDDDDD"/>
<line x1="38.3984" y1="2.7443e-08" x2="38.3984" y2="200" stroke="#DDDDDD"/>
<line x1="188.023" y1="2.7443e-08" x2="188.023" y2="200" stroke="#DDDDDD"/>
<line x1="337.648" y1="2.7443e-08" x2="337.648" y2="200" stroke="#DDDDDD"/>
<line x1="487.273" y1="2.7443e-08" x2="487.273" y2="200" stroke="#DDDDDD"/>
<line x1="29.0469" y1="2.7443e-08" x2="29.0469" y2="200" stroke="#DDDDDD"/>
<line x1="178.672" y1="2.7443e-08" x2="178.672" y2="200" stroke="#DDDDDD"/>
<line x1="328.297" y1="2.7443e-08" x2="328.297" y2="200" stroke="#DDDDDD"/>
<line x1="477.922" y1="2.7443e-08" x2="477.922" y2="200" stroke="#DDDDDD"/>
<line x1="19.6953" y1="2.7443e-08" x2="19.6953" y2="200" stroke="#DDDDDD"/>
<line x1="169.32" y1="2.7443e-08" x2="169.32" y2="200" stroke="#DDDDDD"/>
<line x1="318.945" y1="2.7443e-08" x2="318.945" y2="200" stroke="#DDDDDD"/>
<line x1="468.57" y1="2.7443e-08" x2="468.57" y2="200" stroke="#DDDDDD"/>
<line x1="10.3438" y1="2.7443e-08" x2="10.3437" y2="200" stroke="#DDDDDD"/>
<line x1="159.969" y1="2.7443e-08" x2="159.969" y2="200" stroke="#DDDDDD"/>
<line x1="309.594" y1="2.7443e-08" x2="309.594" y2="200" stroke="#DDDDDD"/>
<line x1="459.219" y1="2.7443e-08" x2="459.219" y2="200" stroke="#DDDDDD"/>
<g clip-path="url(#clip0)">
<path d="M137.507 107.57L125 100.378V113.307C125 114.203 125.475 115.026 126.255 115.479L137.507 121.944L150.014 114.752L137.507 107.57Z" fill="url(#paint0_linear)"/>
<path d="M150.014 85.9939L137.507 93.186L125 100.378L137.507 107.57L150.014 100.378L162.511 93.186L150.014 85.9939Z" fill="url(#paint1_linear)"/>
<path d="M162.511 78.8015L151.259 72.3371C150.489 71.8942 149.54 71.8942 148.77 72.3371L137.507 78.8015L126.255 85.2765C125.475 85.7194 125 86.5525 125 87.4384V100.367L137.507 93.1752L150.014 85.9831L162.521 93.1752L175.028 100.367V87.4384C175.028 86.542 174.554 85.7194 173.773 85.266L162.511 78.8015Z" fill="url(#paint2_radial)"/>
<path d="M150.014 100.378L137.507 107.57L150.014 114.762L162.511 107.57L150.014 100.378Z" fill="#53340A"/>
<path d="M174.68 114.562L162.511 107.57L150.004 114.762L137.497 121.955L148.759 128.429C149.529 128.872 150.478 128.872 151.248 128.429L162.511 121.955L173.763 115.49C174.153 115.258 174.469 114.942 174.68 114.562Z" fill="url(#paint3_linear)"/>
<path d="M175.018 113.307V100.378L162.511 93.186L150.004 100.378L162.511 107.57L174.68 114.562C174.902 114.193 175.018 113.76 175.018 113.307Z" fill="url(#paint4_linear)"/>
<path d="M252.507 101.306H275.971V97.7841H255.997V95.1477H275.971V91.6254H255.997V88.989H275.971V85.4668H252.507C251.863 85.4668 251.347 85.9835 251.347 86.6268V100.146C251.347 100.779 251.863 101.306 252.507 101.306Z" fill="#58595B"/>
<path d="M208.194 94.051H200.085L196.467 85.8044C196.067 84.8869 194.759 84.8764 194.348 85.8044L184.741 107.539H189.381L195.36 94.1354L201.339 107.539H205.99L201.782 97.9423H208.184V115.849H212.866V85.4775H208.184V94.051H208.194Z" fill="#58595B"/>
<path d="M301.333 89.3265V85.4668H281.866V89.3265H288.699L281.096 107.539H285.746L291.726 93.1862L297.589 107.539H302.25L294.679 89.3265H301.333Z" fill="#58595B"/>
<path d="M308.325 85.4668H303.642V115.849H308.325V99.4186H312.796V95.1266H308.325V85.4668Z" fill="#58595B"/>
<path d="M321.591 106.157H316.835V114.689C316.835 115.332 317.352 115.849 317.995 115.849H342.102V111.957H321.591V106.157Z" fill="#58595B"/>
<path d="M385.17 100.294L393.164 91.3723L401.147 100.294H406.894L396.929 89.2632H406.114V85.4668H380.203V89.2632H389.399L379.433 100.294H385.17Z" fill="#58595B"/>
<path d="M438.12 85.4668H433.438V101.022H438.12V85.4668Z" fill="#58595B"/>
<path d="M420.371 91.5937L426.15 100.294H431.075L421.31 84.9394C420.857 84.2223 419.813 84.2223 419.359 84.9394L409.594 100.294H414.592L420.371 91.5937Z" fill="#58595B"/>
<path d="M465.464 106.843H455.204V103.025C455.52 102.941 455.836 102.835 456.132 102.719C457.144 102.319 458.03 101.77 458.81 101.074C459.58 100.378 460.192 99.5664 460.645 98.6489C461.088 97.7209 461.31 96.7401 461.31 95.7172C461.31 94.6943 461.088 93.7135 460.645 92.7961C460.381 92.3004 460.086 91.8364 459.728 91.3935H462.828V87.6076H455.204V84.2542H450.521V87.6076H442.623V91.3935H445.997C445.649 91.8364 445.343 92.311 445.08 92.7961C444.637 93.7135 444.415 94.6837 444.415 95.7172C444.415 96.7401 444.637 97.7209 445.08 98.6489C445.523 99.5769 446.134 100.389 446.915 101.074C447.685 101.77 448.592 102.319 449.625 102.719C449.899 102.846 450.205 102.941 450.521 103.025V106.843H442.37V110.365H465.464V115.849H470.147V85.4774H465.464V106.843ZM450.026 98.4591C449.235 97.6998 448.845 96.7823 448.845 95.7067C448.845 94.631 449.235 93.7135 450.026 92.9543C450.817 92.195 451.755 91.8153 452.862 91.8153C453.97 91.8153 454.908 92.195 455.699 92.9543C456.49 93.7135 456.88 94.631 456.88 95.7067C456.88 96.7823 456.49 97.6998 455.699 98.4591C454.908 99.2183 453.97 99.598 452.862 99.598C451.766 99.598 450.817 99.2183 450.026 98.4591Z" fill="#58595B"/>
<path d="M238.766 96.8454C239.652 96.1283 240.358 95.3058 240.875 94.3461C241.392 93.397 241.645 92.3847 241.645 91.3196C241.645 90.2544 241.392 89.2421 240.875 88.293C240.358 87.3439 239.652 86.5108 238.766 85.7937C237.88 85.0766 236.846 84.5071 235.676 84.0747C234.505 83.6424 233.261 83.4209 231.953 83.4209C230.646 83.4209 229.401 83.6424 228.231 84.0747C227.06 84.5071 226.027 85.0871 225.141 85.7937C224.255 86.5108 223.548 87.3439 223.032 88.293C222.515 89.2421 222.262 90.2544 222.262 91.3196C222.262 92.3952 222.515 93.397 223.032 94.3461C223.548 95.2952 224.244 96.1283 225.141 96.8454C225.415 97.0669 225.71 97.2673 226.016 97.4676H217.453V100.99H229.665V102.972H228.283H219.32V106.231H240.021V107.982H219.32V114.699C219.32 115.342 219.836 115.859 220.48 115.859H244.65V112.601H223.96V110.85H244.661V104.132C244.661 103.489 244.144 102.972 243.501 102.972H234.305V100.99H246.517V97.4676H237.88C238.196 97.2778 238.492 97.0669 238.766 96.8454ZM227.261 89.6323C227.535 89.105 227.904 88.6304 228.368 88.2402C228.832 87.8395 229.38 87.5231 229.992 87.2806C230.603 87.038 231.257 86.9115 231.953 86.9115C232.639 86.9115 233.293 87.038 233.915 87.2806C234.526 87.5231 235.075 87.85 235.539 88.2402C236.003 88.641 236.382 89.105 236.646 89.6323C236.92 90.1595 237.057 90.729 237.057 91.3196C237.057 91.9206 236.92 92.4796 236.646 93.0174C236.372 93.5447 236.003 94.0087 235.539 94.4094C235.075 94.8101 234.526 95.1265 233.915 95.3691C233.303 95.6116 232.649 95.7382 231.953 95.7382C231.268 95.7382 230.614 95.6116 229.992 95.3691C229.38 95.1265 228.832 94.7996 228.368 94.4094C227.904 94.0087 227.524 93.5447 227.261 93.0174C226.986 92.4901 226.849 91.9206 226.849 91.3196C226.849 90.729 226.986 90.1595 227.261 89.6323Z" fill="#58595B"/>
<path d="M378.621 106.6H390.802V115.849H395.515V106.6H407.696V103.078H378.621V106.6Z" fill="#58595B"/>
<path d="M436.96 103.099H414.034V106.674H433.427V115.849H438.109V104.249C438.12 103.616 437.592 103.099 436.96 103.099Z" fill="#58595B"/>
<path d="M314.557 103.753H327.138V109.374H331.82V103.753H343.631V100.231H314.557V103.753Z" fill="#58595B"/>
<path d="M249.101 107.243H261.281V115.849H265.995V107.243H278.175V103.721H249.101V107.243Z" fill="#58595B"/>
<path d="M500.529 95.1266V85.4668H495.846V115.849H500.529V99.4186H505V95.1266H500.529Z" fill="#58595B"/>
<path d="M482.78 85.8044L473.173 107.539H477.813L483.793 94.1354L489.772 107.539H494.423L484.889 85.8044C484.499 84.8869 483.192 84.8764 482.78 85.8044Z" fill="#58595B"/>
<path d="M368.572 95.4218C369.173 94.884 369.668 94.2724 370.059 93.608C370.575 92.7222 370.828 91.7836 370.828 90.7818C370.828 89.7905 370.565 88.8414 370.059 87.9556C369.542 87.0697 368.835 86.2893 367.949 85.625C367.064 84.9606 366.03 84.4228 364.86 84.022C363.689 83.6213 362.445 83.4104 361.137 83.4104C359.829 83.4104 358.585 83.6108 357.414 84.022C356.244 84.4228 355.21 84.9606 354.324 85.625C353.439 86.2893 352.732 87.0697 352.215 87.9556C351.699 88.8414 351.446 89.7799 351.446 90.7818C351.446 91.7836 351.699 92.7222 352.215 93.608C352.606 94.2724 353.101 94.884 353.702 95.4218V100.231H346.605V103.753H355.411C355.031 103.964 354.672 104.196 354.335 104.449C353.449 105.113 352.743 105.894 352.226 106.779C351.709 107.665 351.456 108.604 351.456 109.606C351.456 110.607 351.709 111.546 352.226 112.432C352.743 113.318 353.439 114.088 354.335 114.752C355.221 115.416 356.254 115.954 357.425 116.355C358.595 116.756 359.84 116.966 361.147 116.966C362.455 116.966 363.7 116.766 364.87 116.355C366.041 115.954 367.074 115.416 367.96 114.752C368.846 114.088 369.552 113.318 370.069 112.432C370.586 111.546 370.839 110.607 370.839 109.606C370.839 108.614 370.575 107.665 370.069 106.779C369.552 105.894 368.846 105.113 367.96 104.449C367.622 104.196 367.253 103.974 366.884 103.753H375.69V100.231H368.593V95.4218H368.572ZM365.819 111.103C365.545 111.578 365.176 111.989 364.712 112.348C364.248 112.706 363.7 112.991 363.088 113.212C362.476 113.434 361.822 113.539 361.126 113.539C360.441 113.539 359.787 113.434 359.165 113.212C358.553 112.991 358.005 112.706 357.541 112.348C357.077 111.989 356.697 111.578 356.434 111.103C356.159 110.629 356.022 110.122 356.022 109.585C356.022 109.047 356.159 108.541 356.434 108.066C356.708 107.591 357.077 107.17 357.541 106.822C358.005 106.463 358.553 106.178 359.165 105.957C359.777 105.735 360.43 105.63 361.126 105.63C361.812 105.63 362.466 105.735 363.088 105.957C363.7 106.178 364.248 106.463 364.712 106.822C365.176 107.18 365.556 107.591 365.819 108.066C366.093 108.541 366.23 109.047 366.23 109.585C366.23 110.133 366.093 110.629 365.819 111.103ZM356.434 89.2738C356.708 88.7992 357.077 88.3774 357.541 88.0294C358.005 87.6708 358.553 87.3861 359.165 87.1646C359.777 86.9432 360.43 86.8377 361.126 86.8377C361.812 86.8377 362.466 86.9432 363.088 87.1646C363.7 87.3861 364.248 87.6708 364.712 88.0294C365.176 88.3879 365.556 88.7992 365.819 89.2738C366.093 89.7483 366.23 90.2545 366.23 90.7923C366.23 91.3301 366.093 91.8363 365.819 92.3109C365.545 92.7854 365.176 93.1967 364.712 93.5553C364.248 93.9138 363.7 94.1985 363.088 94.42C362.476 94.6415 361.822 94.7469 361.126 94.7469C360.441 94.7469 359.787 94.6415 359.165 94.42C358.553 94.1985 358.005 93.9138 357.541 93.5553C357.077 93.1967 356.697 92.7854 356.434 92.3109C356.159 91.8363 356.022 91.3301 356.022 90.7923C356.022 90.2439 356.159 89.7483 356.434 89.2738ZM357.805 97.6575C358.859 97.9739 359.966 98.1426 361.126 98.1426C362.286 98.1426 363.394 97.9739 364.448 97.6575V100.231H357.794V97.6575H357.805Z" fill="#58595B"/>
<path d="M322.276 96.8454C323.162 97.5625 324.196 98.132 325.366 98.5749C326.537 99.0073 327.781 99.2287 329.089 99.2287C330.397 99.2287 331.641 99.0073 332.811 98.5749C333.982 98.1426 335.016 97.5625 335.901 96.8454C336.787 96.1283 337.494 95.3058 338.01 94.3461C338.527 93.397 338.78 92.3847 338.78 91.3195C338.78 90.2544 338.517 89.2421 338.01 88.293C337.494 87.3439 336.787 86.5108 335.901 85.7937C335.016 85.0766 333.982 84.5071 332.811 84.0747C331.641 83.6424 330.397 83.4209 329.089 83.4209C327.781 83.4209 326.537 83.6424 325.366 84.0747C324.196 84.5071 323.162 85.0871 322.276 85.7937C321.391 86.5108 320.684 87.3439 320.167 88.293C319.651 89.2421 319.397 90.2544 319.397 91.3195C319.397 92.3952 319.651 93.397 320.167 94.3461C320.684 95.3058 321.38 96.1389 322.276 96.8454ZM324.396 89.6323C324.67 89.105 325.039 88.6304 325.503 88.2402C325.967 87.8395 326.516 87.5231 327.127 87.2806C327.739 87.038 328.393 86.9115 329.089 86.9115C329.774 86.9115 330.428 87.038 331.05 87.2806C331.662 87.5231 332.21 87.85 332.674 88.2402C333.138 88.641 333.518 89.105 333.782 89.6323C334.056 90.1595 334.193 90.729 334.193 91.3195C334.193 91.9206 334.056 92.4796 333.782 93.0174C333.507 93.5447 333.138 94.0087 332.674 94.4094C332.21 94.8101 331.662 95.1265 331.05 95.3691C330.439 95.6116 329.785 95.7382 329.089 95.7382C328.403 95.7382 327.75 95.6116 327.127 95.3691C326.516 95.1265 325.967 94.7996 325.503 94.4094C325.039 94.0087 324.66 93.5447 324.396 93.0174C324.122 92.4901 323.985 91.9206 323.985 91.3195C323.985 90.729 324.122 90.1595 324.396 89.6323Z" fill="#58595B"/>
</g>
<defs>
<linearGradient id="paint0_linear" x1="140.985" y1="120.397" x2="131.802" y2="104.492" gradientUnits="userSpaceOnUse">
<stop stop-color="#6E4D2B"/>
<stop offset="0.0109" stop-color="#71502D"/>
<stop offset="0.0771" stop-color="#855F39"/>
<stop offset="0.1502" stop-color="#956C43"/>
<stop offset="0.2329" stop-color="#A0754A"/>
<stop offset="0.3332" stop-color="#A77A4E"/>
<stop offset="0.5" stop-color="#A97C50"/>
</linearGradient>
<linearGradient id="paint1_linear" x1="137.61" y1="107.431" x2="145.597" y2="93.5967" gradientUnits="userSpaceOnUse">
<stop stop-color="#81613F"/>
<stop offset="0.0158" stop-color="#886743"/>
<stop offset="0.0894" stop-color="#A68055"/>
<stop offset="0.1647" stop-color="#BF9563"/>
<stop offset="0.2415" stop-color="#D2A56D"/>
<stop offset="0.3208" stop-color="#DEAF74"/>
<stop offset="0.4064" stop-color="#E4B477"/>
</linearGradient>
<radialGradient id="paint2_radial" cx="0" cy="0" r="1" gradientUnits="userSpaceOnUse" gradientTransform="translate(149.716 72.2223) scale(41.898)">
<stop stop-color="#00A1E4"/>
<stop offset="0.1102" stop-color="#009BDD"/>
<stop offset="0.2872" stop-color="#008ECC"/>
<stop offset="0.509" stop-color="#007AB6"/>
<stop offset="0.7642" stop-color="#00619C"/>
<stop offset="1" stop-color="#104685"/>
</radialGradient>
<linearGradient id="paint3_linear" x1="162.242" y1="107.608" x2="154.255" y2="121.442" gradientUnits="userSpaceOnUse">
<stop stop-color="#81613F"/>
<stop offset="0.0158" stop-color="#886743"/>
<stop offset="0.0894" stop-color="#A68055"/>
<stop offset="0.1647" stop-color="#BF9563"/>
<stop offset="0.2415" stop-color="#D2A56D"/>
<stop offset="0.3208" stop-color="#DEAF74"/>
<stop offset="0.4064" stop-color="#E4B477"/>
</linearGradient>
<linearGradient id="paint4_linear" x1="159.204" y1="94.6423" x2="168.386" y2="110.546" gradientUnits="userSpaceOnUse">
<stop stop-color="#6E4D2B"/>
<stop offset="0.0109" stop-color="#71502D"/>
<stop offset="0.0771" stop-color="#855F39"/>
<stop offset="0.1502" stop-color="#956C43"/>
<stop offset="0.2329" stop-color="#A0754A"/>
<stop offset="0.3332" stop-color="#A77A4E"/>
<stop offset="0.5" stop-color="#A97C50"/>
</linearGradient>
<clipPath id="clip0">
<rect width="380" height="56.7564" fill="white" transform="translate(125 72)"/>
</clipPath>
</defs>
</svg>
