<svg width="24" height="22" viewBox="0 0 24 22" fill="none" xmlns="http://www.w3.org/2000/svg">
<path d="M4 22H20C22.2057 22 24 20.2287 24 18.0513V11.2821C24 10.9718 23.7429 10.718 23.4286 10.718C23.1143 10.718 22.8571 10.9718 22.8571 11.2821V18.0513C22.8571 19.6082 21.5771 20.8718 20 20.8718H4C2.42286 20.8718 1.14286 19.6082 1.14286 18.0513V11.2821C1.14286 10.9718 0.885714 10.718 0.571429 10.718C0.257143 10.718 0 10.9718 0 11.2821V18.0513C0 20.2287 1.79429 22 4 22Z" fill="#666666"/>
<path d="M11.5942 15.0672C11.7085 15.1744 11.8513 15.2308 11.9999 15.2308C12.1485 15.2308 12.2913 15.1744 12.4056 15.0672L16.977 10.56C17.1999 10.34 17.1999 9.98462 16.977 9.76462C16.7542 9.54462 16.3942 9.54462 16.1713 9.76462L12.5713 13.3072V0H11.4285V13.3072L7.83419 9.75897C7.61133 9.53897 7.25133 9.53897 7.02847 9.75897C6.80561 9.97897 6.80561 10.3344 7.02847 10.5544L11.5942 15.0672Z" fill="#666666"/>
</svg>
